<svg version="1.2" xmlns="http://www.w3.org/2000/svg" viewBox="0 0 703 429" width="703" height="429"><defs><linearGradient id="P" gradientUnits="userSpaceOnUse"/><linearGradient id="g1" x1="-104.7" y1="337.3" x2="-15" y2="27.8" href="#P"><stop stop-color="#ff8f29"/><stop offset="1" stop-color="#ffad49"/></linearGradient><linearGradient id="g2" x1="137.2" y1="146.6" x2="133.2" y2="146.6" href="#P"><stop offset=".2" stop-color="#6c6556"/><stop offset="1" stop-color="#352118"/></linearGradient><linearGradient id="g3" x1="145.4" y1="369.2" x2="138.9" y2="329.7" href="#P"><stop offset=".1" stop-color="#4f585b"/><stop offset=".6" stop-color="#141515"/></linearGradient><linearGradient id="g4" x1="174.3" y1="329.3" x2="142.9" y2="339.8" href="#P"><stop offset=".1" stop-color="#4f585b"/><stop offset=".6" stop-color="#141515"/></linearGradient><linearGradient id="g5" x1="224.3" y1="206" x2="206.2" y2="249.4" href="#P"><stop offset=".6" stop-color="#3d5567"/><stop offset=".8" stop-color="#202c38"/></linearGradient><linearGradient id="g6" x1="248.3" y1="259.1" x2="226" y2="200.3" href="#P"><stop stop-color="#ff8f29"/><stop offset=".4" stop-color="#ffad49"/></linearGradient><linearGradient id="g7" x1="183.4" y1="217.8" x2="199" y2="235.9" href="#P"><stop offset=".3" stop-color="#f1c39e"/><stop offset=".7" stop-color="#f9e3d1"/></linearGradient><linearGradient id="g8" x1="199.9" y1="206" x2="197.5" y2="214.9" href="#P"><stop offset=".3" stop-color="#e4b38b"/><stop offset="1" stop-color="#f9e3d1"/></linearGradient><linearGradient id="g9" x1="216.5" y1="222.7" x2="206.1" y2="216.4" href="#P"><stop offset=".3" stop-color="#e4b38b"/><stop offset="1" stop-color="#f9e3d1"/></linearGradient><linearGradient id="g10" x1="196.9" y1="203.5" x2="181.3" y2="212.5" href="#P"><stop offset=".3" stop-color="#f9e3d1"/><stop offset=".7" stop-color="#f1c39e"/></linearGradient><linearGradient id="g11" x1="181.7" y1="203.4" x2="181.7" y2="237.5" href="#P"><stop offset=".3" stop-color="#e4b38b"/><stop offset="1" stop-color="#f9e3d1"/></linearGradient><linearGradient id="g12" x1="172.3" y1="167.4" x2="138.1" y2="191.4" href="#P"><stop offset=".6" stop-color="#3d5567"/><stop offset=".8" stop-color="#202c38"/></linearGradient><linearGradient id="g13" x1="156.7" y1="190" x2="159.4" y2="216" href="#P"><stop stop-color="#3d5567"/><stop offset="1" stop-color="#202c38"/></linearGradient><linearGradient id="g14" x1="159" y1="330.4" x2="153.6" y2="245.8" href="#P"><stop offset=".3" stop-color="#394f63"/><stop offset=".8" stop-color="#202c38"/></linearGradient><linearGradient id="g15" x1="167.3" y1="215.5" x2="156.9" y2="173.4" href="#P"><stop offset=".6" stop-color="#3d5567"/><stop offset=".8" stop-color="#202c38"/></linearGradient><linearGradient id="g16" x1="150.4" y1="158.5" x2="138" y2="158.5" href="#P"><stop offset=".3" stop-color="#f9e3d1"/><stop offset="1" stop-color="#f1c39e"/></linearGradient><linearGradient id="g17" x1="131.5" y1="165.2" x2="152.5" y2="176.9" href="#P"><stop offset=".1" stop-color="#f1c39e"/><stop offset="1" stop-color="#f9e3d1"/></linearGradient><linearGradient id="g18" x1="240.1" y1="283.8" x2="223.5" y2="283.8" href="#P"><stop offset=".2" stop-color="#f9e3d1"/><stop offset=".8" stop-color="#f1c39e"/></linearGradient><linearGradient id="g19" x1="240.7" y1="310.2" x2="244.4" y2="288.4" href="#P"><stop stop-color="#f9e3d1"/><stop offset=".7" stop-color="#f1c39e"/></linearGradient><linearGradient id="g20" x1="196.6" y1="216" x2="191.8" y2="228.9" href="#P"><stop offset=".3" stop-color="#e4b38b"/><stop offset="1" stop-color="#f9e3d1"/></linearGradient><linearGradient id="g21" x1="276.7" y1="281.6" x2="219.5" y2="286.9" href="#P"><stop offset=".5" stop-color="#f9e3d1"/><stop offset=".8" stop-color="#f1c39e"/></linearGradient><linearGradient id="g22" x1="257.4" y1="343.8" x2="234.3" y2="343.8" href="#P"><stop offset=".2" stop-color="#4f585b"/><stop offset=".7" stop-color="#141515"/></linearGradient><linearGradient id="g23" x1="257.5" y1="292.4" x2="254.7" y2="282.7" href="#P"><stop stop-color="#f9e3d1"/><stop offset=".5" stop-color="#f1c39e"/></linearGradient><linearGradient id="g24" x1="256.9" y1="237.1" x2="220.4" y2="232.1" href="#P"><stop offset=".3" stop-color="#394f63"/><stop offset=".8" stop-color="#202c38"/></linearGradient><linearGradient id="g25" x1="223.1" y1="238.6" x2="227" y2="259.4" href="#P"><stop offset=".3" stop-color="#202c38"/><stop offset="1" stop-color="#394f63"/></linearGradient><linearGradient id="g26" x1="244.9" y1="177.4" x2="233.8" y2="177.4" href="#P"><stop offset=".5" stop-color="#f9e3d1"/><stop offset="1" stop-color="#f1c39e"/></linearGradient><linearGradient id="g27" x1="230.5" y1="184.2" x2="237.6" y2="192.5" href="#P"><stop offset=".3" stop-color="#f1c39e"/><stop offset="1" stop-color="#f9e3d1"/></linearGradient><linearGradient id="g28" x1="270.8" y1="165.3" x2="251.3" y2="165.3" href="#P"><stop offset=".2" stop-color="#6c6556"/><stop offset="1" stop-color="#352118"/></linearGradient><linearGradient id="g29" x1="253.9" y1="175.9" x2="255.6" y2="164.8" href="#P"><stop offset=".2" stop-color="#6c6556"/><stop offset=".7" stop-color="#352118"/></linearGradient><linearGradient id="g30" x1="256.1" y1="154.1" x2="231.6" y2="148.9" href="#P"><stop offset=".4" stop-color="#ffad49"/><stop offset="1" stop-color="#ff8f29"/></linearGradient><linearGradient id="g31" x1="234.1" y1="191.2" x2="204.5" y2="193.9" href="#P"><stop offset=".3" stop-color="#394f63"/><stop offset=".5" stop-color="#202c38"/></linearGradient><linearGradient id="g32" x1="247" y1="192.2" x2="199.8" y2="202.8" href="#P"><stop offset=".2" stop-color="#394f63"/><stop offset=".6" stop-color="#202c38"/></linearGradient><linearGradient id="g33" x1="195.3" y1="214.9" x2="192.3" y2="236.2" href="#P"><stop offset=".2" stop-color="#f1c39e"/><stop offset=".4" stop-color="#f9e3d1"/></linearGradient><linearGradient id="g34" x1="252.3" y1="157.7" x2="238.3" y2="142.6" href="#P"><stop stop-color="#ff8f29"/><stop offset=".4" stop-color="#ffad49"/></linearGradient><linearGradient id="g35" x1="182.9" y1="242.8" x2="152.4" y2="238" href="#P"><stop offset=".3" stop-color="#394f63"/><stop offset=".8" stop-color="#202c38"/></linearGradient><linearGradient id="g36" x1="139.7" y1="145" x2="135.1" y2="145" href="#P"><stop offset=".2" stop-color="#6c6556"/><stop offset="1" stop-color="#352118"/></linearGradient><linearGradient id="g37" x1="223.5" y1="216.9" x2="211.7" y2="211.2" href="#P"><stop offset=".3" stop-color="#e4b38b"/><stop offset="1" stop-color="#f9e3d1"/></linearGradient><linearGradient id="g38" x1="158" y1="134.7" x2="129.8" y2="134.7" href="#P"><stop offset=".5" stop-color="#ffad49"/><stop offset=".8" stop-color="#ff8f29"/></linearGradient><linearGradient id="g39" x1="136.8" y1="129.9" x2="141.9" y2="165" href="#P"><stop offset=".3" stop-color="#ff8f29"/><stop offset=".6" stop-color="#ffad49"/></linearGradient><linearGradient id="g40" x1="232.2" y1="197" x2="243.2" y2="202.9" href="#P"><stop stop-color="#a1adaf"/><stop offset=".8" stop-color="#e8ecec"/></linearGradient><linearGradient id="g41" x1="253.4" y1="217.1" x2="244.8" y2="212.8" href="#P"><stop stop-color="#394f63"/><stop offset=".6" stop-color="#202c38"/></linearGradient><linearGradient id="g42" x1="238.1" y1="226.4" x2="245.8" y2="200" href="#P"><stop stop-color="#202c38"/><stop offset=".9" stop-color="#394f63"/></linearGradient><linearGradient id="g43" x1="219.5" y1="211" x2="242.2" y2="218.5" href="#P"><stop stop-color="#a1adaf"/><stop offset=".8" stop-color="#e8ecec"/></linearGradient><linearGradient id="g44" x1="254.2" y1="192.4" x2="243.9" y2="179.4" href="#P"><stop offset=".3" stop-color="#e8ecec"/><stop offset=".6" stop-color="#ffffff"/></linearGradient><linearGradient id="g45" x1="225.4" y1="196.2" x2="234.5" y2="201.1" href="#P"><stop offset=".3" stop-color="#ffffff"/><stop offset=".9" stop-color="#e8ecec"/></linearGradient><linearGradient id="g46" x1="223.4" y1="333.7" x2="221.5" y2="353.1" href="#P"><stop offset=".2" stop-color="#f9e3d1"/><stop offset=".5" stop-color="#f1c39e"/></linearGradient><linearGradient id="g47" x1="238.3" y1="340.2" x2="215.1" y2="340.2" href="#P"><stop offset=".3" stop-color="#4f585b"/><stop offset=".8" stop-color="#141515"/></linearGradient><linearGradient id="g48" x1="245.7" y1="244.1" x2="252.3" y2="244.5" href="#P"><stop offset=".3" stop-color="#202c38"/><stop offset=".6" stop-color="#394f63"/></linearGradient><linearGradient id="g49" x1="225" y1="208.9" x2="232.9" y2="219.4" href="#P"><stop offset=".5" stop-color="#202c38"/><stop offset=".8" stop-color="#394f63"/></linearGradient><linearGradient id="g50" x1="261.6" y1="202.8" x2="242.8" y2="177" href="#P"><stop offset=".2" stop-color="#202c38"/><stop offset=".6" stop-color="#394f63"/></linearGradient><linearGradient id="g51" x1="226.7" y1="177.8" x2="202.3" y2="236.3" href="#P"><stop offset=".6" stop-color="#3d5567"/><stop offset=".8" stop-color="#202c38"/></linearGradient><linearGradient id="g52" x1="237.8" y1="217" x2="230.5" y2="220.1" href="#P"><stop offset=".2" stop-color="#394f63"/><stop offset=".4" stop-color="#202c38"/></linearGradient><linearGradient id="g53" x1="230.7" y1="192.4" x2="218.7" y2="196.9" href="#P"><stop stop-color="#202c38"/><stop offset=".9" stop-color="#394f63"/></linearGradient><linearGradient id="g54" x1="233.1" y1="189.2" x2="221.6" y2="188.8" href="#P"><stop offset=".2" stop-color="#202c38"/><stop offset=".4" stop-color="#394f63"/></linearGradient><linearGradient id="g55" x1="234.8" y1="160" x2="222.8" y2="170.9" href="#P"><stop offset=".1" stop-color="#f1c39e"/><stop offset="1" stop-color="#f9e3d1"/></linearGradient><linearGradient id="g56" x1="246.7" y1="160.1" x2="222.3" y2="164.6" href="#P"><stop stop-color="#ffad49"/><stop offset=".5" stop-color="#ff8f29"/></linearGradient><linearGradient id="g57" x1="126.5" y1="140.3" x2="156.4" y2="165.3" href="#P"><stop offset=".1" stop-color="#f1c39e"/><stop offset="1" stop-color="#f9e3d1"/></linearGradient><linearGradient id="g58" x1="166.2" y1="154" x2="148.4" y2="126.9" href="#P"><stop offset=".2" stop-color="#ffad49"/><stop offset=".6" stop-color="#ff8f29"/></linearGradient><linearGradient id="g59" x1="173" y1="218.6" x2="152.8" y2="173.4" href="#P"><stop stop-color="#3d5567"/><stop offset="1" stop-color="#202c38"/></linearGradient><linearGradient id="g60" x1="168.8" y1="230.8" x2="171.8" y2="150.8" href="#P"><stop stop-color="#ff8f29"/><stop offset=".4" stop-color="#ffad49"/></linearGradient><linearGradient id="g61" x1="147.1" y1="202.9" x2="146.3" y2="184.4" href="#P"><stop stop-color="#3d5567"/><stop offset="1" stop-color="#202c38"/></linearGradient><linearGradient id="g62" x1="146.9" y1="215.9" x2="141" y2="229.6" href="#P"><stop stop-color="#3d5567"/><stop offset="1" stop-color="#202c38"/></linearGradient><linearGradient id="g63" x1="153.3" y1="218.9" x2="148.4" y2="183.9" href="#P"><stop stop-color="#3d5567"/><stop offset="1" stop-color="#202c38"/></linearGradient><linearGradient id="g64" x1="154.2" y1="176.8" x2="131.1" y2="183.6" href="#P"><stop offset=".2" stop-color="#e33b3a"/><stop offset=".5" stop-color="#b52c2d"/></linearGradient><linearGradient id="g65" x1="152" y1="187.4" x2="149.8" y2="177.3" href="#P"><stop offset=".1" stop-color="#e33b3a"/><stop offset=".4" stop-color="#b52c2d"/></linearGradient><linearGradient id="g66" x1="149.7" y1="173.4" x2="140.5" y2="177.4" href="#P"><stop offset=".4" stop-color="#e33b3a"/><stop offset=".9" stop-color="#c23131"/></linearGradient><linearGradient id="g67" x1="157.7" y1="191.6" x2="156.6" y2="164.7" href="#P"><stop offset=".6" stop-color="#3d5567"/><stop offset=".8" stop-color="#202c38"/></linearGradient><linearGradient id="g68" x1="149.4" y1="191.9" x2="148.3" y2="165" href="#P"><stop offset=".6" stop-color="#3d5567"/><stop offset=".8" stop-color="#202c38"/></linearGradient><linearGradient id="g69" x1="152.3" y1="218.8" x2="141.8" y2="146.6" href="#P"><stop stop-color="#ff8f29"/><stop offset=".4" stop-color="#ffad49"/></linearGradient><linearGradient id="g70" x1="133.1" y1="225.6" x2="133.9" y2="234" href="#P"><stop stop-color="#ff8f29"/><stop offset=".4" stop-color="#ffad49"/></linearGradient><linearGradient id="g71" x1="157.1" y1="216.7" x2="107.6" y2="232.1" href="#P"><stop offset=".2" stop-color="#e33b3a"/><stop offset=".5" stop-color="#b52c2d"/></linearGradient><linearGradient id="g72" x1="133.3" y1="262.3" x2="145.6" y2="250.6" href="#P"><stop stop-color="#dfdabe"/><stop offset="1" stop-color="#575749"/></linearGradient><linearGradient id="g73" x1="144.5" y1="268.1" x2="148.3" y2="264.7" href="#P"><stop stop-color="#dfdabe"/><stop offset="1" stop-color="#575749"/></linearGradient><linearGradient id="g74" x1="140" y1="246" x2="138.6" y2="247.1" href="#P"><stop stop-color="#dfdabe"/><stop offset="1" stop-color="#575749"/></linearGradient><linearGradient id="g75" x1="176.8" y1="217.7" x2="170.8" y2="196.9" href="#P"><stop stop-color="#3d5567"/><stop offset="1" stop-color="#202c38"/></linearGradient><linearGradient id="g76" x1="154.9" y1="244.1" x2="132.2" y2="244.1" href="#P"><stop offset=".3" stop-color="#f9e3d1"/><stop offset=".7" stop-color="#f1c39e"/></linearGradient><linearGradient id="g77" x1="148" y1="250.9" x2="143.8" y2="259.3" href="#P"><stop offset=".2" stop-color="#f1c39e"/><stop offset=".5" stop-color="#f9e3d1"/></linearGradient><linearGradient id="g78" x1="130.3" y1="252.5" x2="138.7" y2="262.3" href="#P"><stop stop-color="#e4b38b"/><stop offset=".9" stop-color="#f1c39e"/></linearGradient><linearGradient id="g79" x1="87.3" y1="263" x2="161.2" y2="256" href="#P"><stop offset=".6" stop-color="#3d5567"/><stop offset=".8" stop-color="#202c38"/></linearGradient><linearGradient id="g80" x1="125.8" y1="205.1" x2="109.4" y2="237.6" href="#P"><stop stop-color="#3d5567"/><stop offset="1" stop-color="#202c38"/></linearGradient><linearGradient id="g81" x1="198.4" y1="212.4" x2="195.7" y2="217.5" href="#P"><stop offset=".3" stop-color="#e4b38b"/><stop offset="1" stop-color="#f9e3d1"/></linearGradient><linearGradient id="g82" x1="189" y1="212.4" x2="185.2" y2="228.7" href="#P"><stop offset=".3" stop-color="#e4b38b"/><stop offset="1" stop-color="#f9e3d1"/></linearGradient><linearGradient id="g83" x1="69.2" y1="378.9" x2="78.6" y2="369.4" href="#P"><stop stop-color="#e8ebea"/><stop offset="1" stop-color="#ffffff"/></linearGradient><linearGradient id="g84" x1="319.5" y1="56.9" x2="326.9" y2="49.6" href="#P"><stop stop-color="#ff8f29"/><stop offset="1" stop-color="#ffad49"/></linearGradient><linearGradient id="g85" x1="344.7" y1="341.7" x2="357.8" y2="328.6" href="#P"><stop stop-color="#e8ebea"/><stop offset="1" stop-color="#ffffff"/></linearGradient><linearGradient id="g86" x1="726.5" y1="-20.2" x2="705.9" y2="72.1" href="#P"><stop stop-color="#e8ebea"/><stop offset="1" stop-color="#ffffff"/></linearGradient><linearGradient id="g87" x1="44.8" y1="332.7" x2="49.4" y2="328.1" href="#P"><stop stop-color="#e8ebea"/><stop offset="1" stop-color="#ffffff"/></linearGradient><linearGradient id="g88" x1="360.3" y1="104.5" x2="364.8" y2="100" href="#P"><stop stop-color="#ff8f29"/><stop offset="1" stop-color="#ffad49"/></linearGradient><linearGradient id="g89" x1="313.7" y1="393.9" x2="321.7" y2="386" href="#P"><stop stop-color="#e8ebea"/><stop offset="1" stop-color="#ffffff"/></linearGradient><linearGradient id="g90" x1="117.1" y1="39.6" x2="122.1" y2="34.5" href="#P"><stop stop-color="#e8ebea"/><stop offset="1" stop-color="#ffffff"/></linearGradient><linearGradient id="g91" x1="21.1" y1="111.9" x2="31.9" y2="101.1" href="#P"><stop stop-color="#e8ebea"/><stop offset="1" stop-color="#ffffff"/></linearGradient><linearGradient id="g92" x1="512.9" y1="498.2" x2="769.7" y2="307.9" href="#P"><stop stop-color="#ff8f29"/><stop offset="1" stop-color="#ffad49"/></linearGradient></defs><style>.s0{fill:#ffffff}.s1{fill:url(#g1)}.s2{fill:#d6dbda}.s3{fill:#bac3c1}.s4{fill:#f5f7f7}.s5{fill:#a14929}.s6{fill:#b0b9b7}.s7{fill:#929d9b}.s8{fill:#ced4d3}.s9{fill:#788383}.s10{fill:#5d6767}.s11{fill:#ad583e}.s12{fill:#cbd2d0}.s13{opacity: .3;mix-blend-mode: multiply;fill:#ffad49}.s14{fill:url(#g2)}.s15{fill:url(#g3)}.s16{fill:url(#g4)}.s17{fill:url(#g5)}.s18{fill:url(#g6)}.s19{fill:url(#g7)}.s20{fill:url(#g8)}.s21{fill:url(#g9)}.s22{fill:url(#g10)}.s23{fill:url(#g11)}.s24{fill:url(#g12)}.s25{fill:url(#g13)}.s26{fill:url(#g14)}.s27{fill:#1d262e}.s28{fill:url(#g15)}.s29{fill:url(#g16)}.s30{fill:url(#g17)}.s31{fill:url(#g18)}.s32{fill:url(#g19)}.s33{fill:url(#g20)}.s34{fill:url(#g21)}.s35{fill:url(#g22)}.s36{fill:url(#g23)}.s37{fill:url(#g24)}.s38{fill:url(#g25)}.s39{fill:url(#g26)}.s40{fill:url(#g27)}.s41{fill:url(#g28)}.s42{fill:#f8e4d2}.s43{fill:url(#g29)}.s44{fill:url(#g30)}.s45{fill:#d8e1e3}.s46{fill:url(#g31)}.s47{fill:url(#g32)}.s48{fill:url(#g33)}.s49{fill:url(#g34)}.s50{fill:url(#g35)}.s51{fill:url(#g36)}.s52{fill:url(#g37)}.s53{fill:url(#g38)}.s54{fill:url(#g39)}.s55{fill:url(#g40)}.s56{fill:url(#g41)}.s57{fill:url(#g42)}.s58{fill:url(#g43)}.s59{fill:url(#g44)}.s60{fill:url(#g45)}.s61{fill:url(#g46)}.s62{fill:url(#g47)}.s63{fill:url(#g48)}.s64{fill:url(#g49)}.s65{fill:url(#g50)}.s66{fill:url(#g51)}.s67{fill:url(#g52)}.s68{fill:url(#g53)}.s69{fill:url(#g54)}.s70{fill:url(#g55)}.s71{fill:url(#g56)}.s72{fill:url(#g57)}.s73{fill:url(#g58)}.s74{fill:url(#g59)}.s75{fill:url(#g60)}.s76{fill:url(#g61)}.s77{fill:url(#g62)}.s78{fill:url(#g63)}.s79{fill:url(#g64)}.s80{fill:url(#g65)}.s81{fill:url(#g66)}.s82{fill:#b52c2d}.s83{fill:url(#g67)}.s84{fill:url(#g68)}.s85{fill:url(#g69)}.s86{mix-blend-mode: multiply;fill:url(#g70)}.s87{fill:url(#g71)}.s88{mix-blend-mode: multiply;fill:url(#g72)}.s89{mix-blend-mode: multiply;fill:url(#g73)}.s90{mix-blend-mode: multiply;fill:url(#g74)}.s91{fill:url(#g75)}.s92{fill:url(#g76)}.s93{fill:url(#g77)}.s94{fill:url(#g78)}.s95{fill:url(#g79)}.s96{fill:url(#g80)}.s97{fill:url(#g81)}.s98{fill:url(#g82)}.s99{fill:url(#g83)}.s100{fill:url(#g84)}.s101{fill:url(#g85)}.s102{fill:url(#g86)}.s103{fill:url(#g87)}.s104{fill:url(#g88)}.s105{fill:url(#g89)}.s106{fill:url(#g90)}.s107{fill:url(#g91)}.s108{fill:url(#g92)}</style><path class="s0" d="m707.6 440.2h-711.2v-444.4h711.2z" /><path class="s1" d="m441.9 440.2h-445.5v-444.4h387.2c-76 29.9-109.6 99.1-83 189.1c26.5 89.9 125.6 157.2 141.3 255.3z" /><path class="s2" d="m346 277.4h-258.3v-104.7h22v58.8h11.4v-32.8h15.8v-23.9h9.9v-16h15.3v-52.8l17.6 12.7v6.1h9.2v73.9h60.2l15.7-35.2h44v-35.1h37.2z" /><path class="s3" d="m346 277.4h-258.3v-78.7h2.5v-23.9h42.6v23.9h46v-36.7l19.3-5.7v-50.3h17.6v22.7h15.2v46.1h10v23.9h21.3v32.8h83.8z" /><path class="s4" d="m310.4 100.3c1.5-6.6 12.7-11.3 21.9-2.2q8.6-5 12.3 4.3h-42.3q3.1-4.7 8.1-2.1z" /><path class="s4" d="m144.7 81.3h-63.8q5.6-14 18.6-6.5c13.9-13.8 30.7-6.6 33 3.3q7.5-3.9 12.2 3.2z" /><path class="s4" d="m208.7 53q7.4-5.4 13.2 2.1h-37.6c1.2-7.4 12.3-13.2 24.4-2.1z" /><path class="s5" d="m193.5 113.8h47.9l15.2 14.7v149.1h-63.1z" /><path class="s6" d="m256.6 277.6h-63.1v-149.1h63.1z" /><path class="s7" d="m193.5 113.8l15.2 14.7v149.1h-15.2z" /><path class="s8" d="m257.5 219.4h-64.9v-2.5h64.9z" /><path class="s7" d="m257.5 277.6h-64.9v-2.6h64.9z" /><path class="s9" d="m249.7 150.1h-12.2v-12.3h12.2z" /><path class="s9" d="m227.9 150.1h-12.3v-12.2h12.3z" /><path class="s10" d="m248.1 150.1h-10.6v-12.3h10.6z" /><path class="s10" d="m226.2 150.1h-10.6v-12.3h10.6z" /><path class="s9" d="m249.7 169.5h-12.2v-12.2h12.2z" /><path class="s9" d="m227.9 169.5h-12.3v-12.2h12.3z" /><path class="s10" d="m248.1 169.5h-10.6v-12.2h10.6z" /><path class="s10" d="m226.2 169.5h-10.6v-12.2h10.6z" /><path class="s9" d="m249.7 242.8h-12.2v-12.3h12.2z" /><path class="s9" d="m227.9 242.8h-12.3v-12.3h12.3z" /><path class="s10" d="m248.1 242.8h-10.6v-12.3h10.6z" /><path class="s10" d="m226.2 242.8h-10.6v-12.3h10.6z" /><path class="s9" d="m249.7 262.2h-12.2v-12.3h12.2z" /><path class="s9" d="m220.9 250q0.4-0.1 0.8-0.1c3.4 0 6.2 2.8 6.2 6.2v18.9h-12.3v-18.9c0-3.1 2.3-5.7 5.3-6.1z" /><path class="s10" d="m220.9 250c3 0.4 5.3 3 5.3 6.1v18.9h-10.6v-18.9c0-3.1 2.3-5.7 5.3-6.1z" /><path class="s10" d="m248.1 262.2h-10.6v-12.3h10.6z" /><path class="s9" d="m249.7 189h-12.2v-12.3h12.2z" /><path class="s9" d="m227.9 189h-12.3v-12.3h12.3z" /><path class="s10" d="m248.1 189h-10.6v-12.3h10.6z" /><path class="s10" d="m226.2 189h-10.6v-12.3h10.6z" /><path class="s9" d="m249.7 208.4h-12.2v-12.3h12.2z" /><path class="s9" d="m227.9 208.4h-12.3v-12.3h12.3z" /><path class="s10" d="m248.1 208.4h-10.6v-12.3h10.6z" /><path class="s10" d="m226.2 208.4h-10.6v-12.3h10.6z" /><path class="s5" d="m152.5 106v171.4h-81v-149l11.2-22.4z" /><path class="s6" d="m162.8 277.4h-91.3v-149h91.3z" /><path class="s7" d="m162.8 277.4h-21.5v-149l11.2-22.4l10.3 22.4z" /><path class="s8" d="m163.7 199.9h-93.1v-2.6h93.1z" /><path class="s7" d="m163.7 277.4h-93.1v-2.6h93.1z" /><path class="s9" d="m156.8 188.8h-8.6v-12.2h8.6z" /><path class="s9" d="m156.8 169.4h-8.6v-12.3h8.6z" /><path class="s9" d="m156.8 150h-8.6v-12.3h8.6z" /><path class="s10" d="m155.1 188.8h-6.9v-12.2h6.9z" /><path class="s10" d="m155.1 169.4h-6.9v-12.3h6.9z" /><path class="s10" d="m155.1 150h-6.9v-12.3h6.9z" /><path class="s9" d="m90.7 150h-12.3v-12.3h12.3z" /><path class="s9" d="m112.5 150h-12.2v-12.3h12.2z" /><path class="s9" d="m134.4 150h-12.3v-12.3h12.3z" /><path class="s10" d="m90.7 150h-10.6v-12.3h10.6z" /><path class="s10" d="m112.5 150h-10.6v-12.3h10.6z" /><path class="s10" d="m134.4 150h-10.6v-12.3h10.6z" /><path class="s9" d="m90.7 169.4h-12.3v-12.3h12.3z" /><path class="s9" d="m112.5 169.4h-12.2v-12.3h12.2z" /><path class="s9" d="m134.4 169.4h-12.3v-12.3h12.3z" /><path class="s10" d="m90.7 169.4h-10.6v-12.3h10.6z" /><path class="s10" d="m112.5 169.4h-10.6v-12.3h10.6z" /><path class="s10" d="m134.4 169.4h-10.6v-12.3h10.6z" /><path class="s9" d="m90.7 188.8h-12.3v-12.2h12.3z" /><path class="s9" d="m112.5 188.8h-12.2v-12.2h12.2z" /><path class="s9" d="m134.4 188.8h-12.3v-12.2h12.3z" /><path class="s10" d="m90.7 188.8h-10.6v-12.2h10.6z" /><path class="s10" d="m112.5 188.8h-10.6v-12.2h10.6z" /><path class="s10" d="m134.4 188.8h-10.6v-12.2h10.6z" /><path class="s9" d="m156.8 262h-8.6v-12.2h8.6z" /><path class="s9" d="m156.8 242.6h-8.6v-12.2h8.6z" /><path class="s9" d="m156.8 223.2h-8.6v-12.3h8.6z" /><path class="s10" d="m155.1 262h-6.9v-12.2h6.9z" /><path class="s10" d="m155.1 242.6h-6.9v-12.2h6.9z" /><path class="s10" d="m155.1 223.2h-6.9v-12.3h6.9z" /><path class="s9" d="m90.7 223.2h-12.3v-12.3h12.3z" /><path class="s9" d="m112.5 223.2h-12.2v-12.3h12.2z" /><path class="s9" d="m134.4 223.2h-12.3v-12.3h12.3z" /><path class="s10" d="m90.7 223.2h-10.6v-12.3h10.6z" /><path class="s10" d="m112.5 223.2h-10.6v-12.3h10.6z" /><path class="s10" d="m134.4 223.2h-10.6v-12.3h10.6z" /><path class="s9" d="m90.7 242.6h-12.3v-12.2h12.3z" /><path class="s9" d="m112.5 242.6h-12.2v-12.2h12.2z" /><path class="s9" d="m134.4 242.6h-12.3v-12.2h12.3z" /><path class="s10" d="m90.7 242.6h-10.6v-12.2h10.6z" /><path class="s10" d="m112.5 242.6h-10.6v-12.2h10.6z" /><path class="s10" d="m134.4 242.6h-10.6v-12.2h10.6z" /><path class="s9" d="m90.7 262.1h-12.3v-12.3h12.3z" /><path class="s9" d="m112.5 262.1h-12.2v-12.3h12.2z" /><path class="s9" d="m134.4 255.9v18.9h-12.3v-18.9c0-3.4 2.8-6.1 6.2-6.1q0.4 0 0.8 0.1c3 0.4 5.3 2.9 5.3 6z" /><path class="s10" d="m134.4 255.9v18.9h-10.6v-18.9c0-3.1 2.3-5.6 5.3-6c3 0.4 5.3 2.9 5.3 6z" /><path class="s10" d="m90.7 262.1h-10.6v-12.3h10.6z" /><path class="s10" d="m112.5 262.1h-10.6v-12.3h10.6z" /><path class="s11" d="m83.6 128.4l11.2-22.4h1.9l-11.2 22.4z" /><path class="s11" d="m119.4 106l-11.2 22.4h-1.9l11.2-22.4z" /><path class="s11" d="m141.3 106l-11.2 22.4h-2l11.2-22.4z" /><path class="s6" d="m372 277.4h-91.3v-110.2h91.3z" /><path class="s7" d="m372 277.4h-21.5v-110.2h21.5z" /><path class="s8" d="m279.8 216.7h93.1v2.6h-93.1z" /><path class="s7" d="m279.8 274.8h93.1v2.6h-93.1z" /><path class="s9" d="m366 208.2h-8.6v-12.2h8.6z" /><path class="s9" d="m366 188.8h-8.6v-12.2h8.6z" /><path class="s10" d="m364.3 208.2h-6.9v-12.2h6.9z" /><path class="s10" d="m364.3 188.8h-6.9v-12.2h6.9z" /><path class="s9" d="m299.8 188.8h-12.2v-12.2h12.2z" /><path class="s9" d="m321.7 188.8h-12.3v-12.2h12.3z" /><path class="s9" d="m343.6 188.8h-12.3v-12.2h12.3z" /><path class="s10" d="m299.8 188.8h-10.6v-12.2h10.6z" /><path class="s10" d="m321.7 188.8h-10.6v-12.2h10.6z" /><path class="s10" d="m343.6 188.8h-10.6v-12.2h10.6z" /><path class="s9" d="m299.8 208.2h-12.2v-12.2h12.2z" /><path class="s9" d="m321.7 208.2h-12.3v-12.2h12.3z" /><path class="s9" d="m343.6 208.2h-12.3v-12.2h12.3z" /><path class="s10" d="m299.8 208.2h-10.6v-12.2h10.6z" /><path class="s10" d="m321.7 208.2h-10.6v-12.2h10.6z" /><path class="s10" d="m343.6 208.2h-10.6v-12.2h10.6z" /><path class="s9" d="m366 262h-8.6v-12.2h8.6z" /><path class="s9" d="m366 242.6h-8.6v-12.2h8.6z" /><path class="s10" d="m364.3 262h-6.9v-12.2h6.9z" /><path class="s10" d="m364.3 242.6h-6.9v-12.2h6.9z" /><path class="s9" d="m299.8 242.6h-12.2v-12.2h12.2z" /><path class="s9" d="m321.7 242.6h-12.3v-12.2h12.3z" /><path class="s9" d="m343.6 242.6h-12.3v-12.2h12.3z" /><path class="s10" d="m299.8 242.6h-10.6v-12.2h10.6z" /><path class="s10" d="m321.7 242.6h-10.6v-12.2h10.6z" /><path class="s10" d="m343.6 242.6h-10.6v-12.2h10.6z" /><path class="s9" d="m299.8 262.1h-12.2v-12.3h12.2z" /><path class="s9" d="m321.7 262.1h-12.3v-12.3h12.3z" /><path class="s9" d="m343.6 255.9v18.9h-12.3v-18.9c0-3.4 2.8-6.1 6.1-6.1q0.5 0 0.9 0.1c3 0.4 5.3 2.9 5.3 6z" /><path class="s10" d="m343.6 255.9v18.9h-10.6v-18.9c0-3.1 2.3-5.6 5.3-6c3 0.4 5.3 2.9 5.3 6z" /><path class="s10" d="m299.8 262.1h-10.6v-12.3h10.6z" /><path class="s10" d="m321.7 262.1h-10.6v-12.3h10.6z" /><path fill-rule="evenodd" class="s12" d="m372 167.2h-91.3v-24.4h91.3zm-10.7-13l9-10.3h-18.1zm-10.3-10v21.6l9.5-10.8zm1.1 22h18.2l-9.1-10.3zm18.8-1v-20.3l-8.9 10.2zm-20.9-21.2h-21.6l21.6 22zm-22.8 0.2v22h21.5zm-1.2-0.2h-21.5l21.5 22zm-22.8 0.2v22h21.5zm-1.2-0.3h-20.3v22.3h20.3z" /><path class="s4" d="m278.8 76.9h-37.5q5.8-7.6 13.1-2.1c12.2-11.1 23.2-5.3 24.4 2.1z" /><path class="s13" d="m191 347.8c48.4-1 87.6 2.1 87.6 7c0 4.8-39.2 9.5-87.6 10.5c-48.4 1-87.6-2.1-87.6-7c0-4.8 39.2-9.6 87.6-10.5z" /><path class="s14" d="m136.1 148.6l1.1 6.7h-2.1l-1.3-4.7z" /><path class="s15" d="m134.6 342.7q-1.5 7.1-0.5 8.8c1 1.8 7.8 5 7 8.2c-1.2 4.7-16.9 2-18.4-0.2q-0.8-2 0-7.4l1-11.5z" /><path class="s16" d="m167.9 337.6q-0.8 5.7 0.1 10.2c12.4 2.6 16.8 8.2 13.7 8.9q-10.7 1.7-26.5-1.9l0.5-17.3z" /><path class="s17" d="m232 213.9l-6.7 31.4l-7.3-2.5l7.5-34.4z" /><path class="s18" d="m211.3 232.6l25.5 1.9l-2.2 23.4l-8.5-0.6l-1.6-0.2l-15.6-1.2z" /><path class="s19" d="m191.4 222.8l7.9-7.7l0.4-0.7l1.7-3.8l1.2-0.1l1.8-0.1c3.4 0.6 5.3 1.3 6.7 2.4l1.4 1.1l4.1 2.9l-1.6 6.3l-4.3-2l-2.9-1.4q0 0.1 0 0.1c-1 1.2-2.2 2.3-3.4 3.2q-1.1 0.8-2.2 1.5q-1.3 0.7-2.7 1.2c-1.6 0.6-3.3 0.8-5 0.6q-1.5-0.4-3.1-2.1c-0.4-0.4-0.3-1 0-1.4z" /><path class="s20" d="m201.4 210.6l1.2-0.1q1.8 2.6 2.2 5.4l-5.1-1.5z" /><path class="s21" d="m207 219.3l0.8 0.4q-3.1 4-7.7 5.8q-0.2 0.1-0.4 0.1q4.9-2.3 7.3-6.3z" /><path class="s22" d="m188.6 213.4l1.8 0.4q7.9-4.6 10.8-3.3q2.3 0.9 4.6 8.1q-1.5 0.9-2.4 0.2q-1-0.7-4.1-3.7q0 0.1 0 0.1q-0.8 0.9-1.6 1.8q-3.2 3.6-6.2 5.7l-2.4-0.6l-0.3-0.1l-0.9-0.3l-2.5-0.8l-1.4-0.4l-0.3-8.2z" /><path class="s23" d="m188.6 213.4l-0.7 8.3l-2.5-0.8l-1.4-0.4l-0.3-8.2z" /><path class="s24" d="m188 211.4l-1.4 10.8l-24.1-1.1l-3.3-42.5q8.1-0.5 11.4 27.5l0.2 2.3z" /><path class="s25" d="m161.4 184.9l4.9 36.4h-4.3l-2.3-36.4z" /><path class="s26" d="m151.7 247.6q-6.5 23.4-8.4 34.4l-8.5 66.9q-6.4 1.8-13.4-1.1l5-60.7l0.7-48.3z" /><path class="s27" d="m137.8 269.3l-1.8 1.4l-9.2-11.3v-2.8z" /><path class="s28" d="m160.8 242.4l-27.6 0.9q8.8-17.7-0.5-68.4q5.7-1 23.4 2.8z" /><path class="s29" d="m138.7 166.2l0.3-4.1l0.2-1.6l10.8 3.2l0.4 0.1c0 0.1-0.2 2.9-0.3 5.9q-0.2 3.6-0.4 7.5l-3.3 3.9q-5.3-3.6-5.6-3.9q-0.4-0.2-2.8-2.3z" /><path class="s30" d="m139 162.1l7.8 2.9l3.2-1.3l0.4 0.1c0 0.1-0.2 2.9-0.3 5.9l-3 2l-8.4-5.5z" /><path class="s31" d="m223.5 348.5l7.4-12q0-15.4-0.9-21.4l-2.5-20.7l-0.7-6l-0.4-2.6h13.7q0 1.7 0 4.5q-0.1 3.5-1.8 54.4z" /><path class="s32" d="m240.1 290.3c-0.1 3.5-0.3 8.6-0.5 13.9q0.1-7.4-2.9-8.3c-4.7 0.4-7.5-0.4-9.2-1.5l-0.7-6z" /><path class="s33" d="m199 221.6l1.1 3.9q-0.2 0.1-0.4 0.2c-1.1 0.3-2.2 0.6-3.4 0.7q-2.4-2.9 2.7-4.8z" /><path class="s34" d="m236.7 287.5l16.6-1.7q0.3 0.2 0.5 1.3c0.2 1 0.5 2.6 0.7 4.5q2 16.1 4 59.4l-15.9 3.8l7.5-10.8q1.2-8.5-13.4-56.5z" /><path class="s35" d="m258.3 345.6q4.3 4.1-0.1 12.9l-1.7 0.4l-1.5-3q-12.4 7-20 4.4q7.3-7.9 10.8-10.2q-6 10 12.5-4.5z" /><path class="s36" d="m253.8 287.1c0.2 1 0.5 2.6 0.7 4.5c-3.5 1.1-14.8 4.1-15.7-0.3z" /><path class="s37" d="m222.5 260.9q-1.2-7.3 0-20.8l25.5-2.5c2.1 3 3.8 6.6 5 10.7q0.5 1.7 1 3.5q3.9 16.5 2.1 36.7q-13.6 8.5-35.8 1.2q3.6-4.4 2.2-28.8z" /><path class="s38" d="m230.5 241.2c8 6.9 17.2 7.4 22.5 7.1q0.5 1.7 1 3.5q-17.5 5.6-23.1-5.6l-4.6 1.1z" /><path class="s39" d="m234.3 185.6l0.1-3.6l0.1-2.6l10.4 1l-0.3 2.4l-0.3 1.8l-1.2 8.3l-9.3 4.6z" /><path class="s40" d="m234.4 182l2.6 3.6l7.6-2.8l-0.3 1.8l-7.7 3.3l-2.3-2.3z" /><path class="s41" d="m249.2 175.4q2.9-8 2.9-8c0-0.2 1.2 0.2 1.3 0.3q1.5 0.6 3 1.5c1.3 0.9 2.5 1.9 3.4 3.3c1.2 1.8 1.8 3.9 2.2 6c0.5 3 0.8 6.1 1.1 9.2c0 0.8 0.1 1.6 0.4 2.3q0.4 1.1 0.8 2.2c0.7 1.6 1.5 3.1 2.7 4.4c0.4 0.4 2 1.4 1.9 2c-2.3-1.2-4.7-2.2-7.1-3.3c-0.3-0.2-0.7-0.2-0.9-0.4c0.2 0.8 0.5 1.6 0.9 2.3q0.5 1.1 1.2 2q0.4 0.6 0.9 1.2c0.1 0.2 0.7 1.2 0.9 1.2c0 0-18.8-4.7-15.6-26.2z" /><path class="s42" d="m247.6 177.9q-1.6 3.9-2.7 5c-2.2 2.2-7.2 3.8-8.3 3.4c-2-0.8-4.5-4.9-5.2-7q-1.1-3.2 0-13.5l5.2-3l14.8 6.3l-1.7 3c1.5-0.1 2.6 1.3 1.2 3.8q-2 2.7-3.3 2z" /><path class="s43" d="m249.7 172.1l-2.1 2.4l-1.5-10.8l6.7 5.9q-0.5 1.8-1.3 3.7q-0.4-1.3-1.8-1.2z" /><path class="s44" d="m230.6 168.1c-1.1-4.4-1.5-10.5 2.9-13.1c3.7-2.1 8.1-2.1 12.1-1.4q12.8 2.3 6.6 17.9z" /><path class="s45" d="m244 186.4l5.9 3.8l2.1 9.2l-9.4 21.6l-13.2 2.8l-3.1-20.3l3.6-12.3l4.3-3.6l1 5.5z" /><path class="s46" d="m225.9 221.2l0.7-2.2q-4.4-7.8-4.4-13.4q0-3.4 3.5-7.2l1.6-2.6l1.3-2.2l1 14.3c-0.3 0.7-0.3 1.5 0 2.2q-0.1 0.3 0 0.6q-0.1 0.4 0 0.8c0 0.5 0.1 1 0.4 1.4l0.3 4.9l1.1 20.9q1.1 12.6-11.1 7.3q1.1-15.9 5.6-24.8z" /><path class="s47" d="m233.2 208.5l13.7-14.9l2.8 17.7l-0.2 6.1l-0.1 3.5l-0.5 10.6l0.9 1.5l4.4 7.9q4.4 4.3 0 7.7q-20.1 8-24-8.4q-5.8-31.6 3-31.7z" /><path class="s48" d="m205.8 222.1q-1.4 3.4-8.1 4.6q-1.5-1.2-1.5-2c0-2 4.6-4.5 6.6-4.2q0.9 0.2 3 1.6z" /><path class="s49" d="m239.1 166.5l-4.8-1.4q2-8.1 5.9-11.9q4.2-3 8 1.1q-6 1-9.1 12.2z" /><path class="s50" d="m163.6 241.7l4.6 46l1 57.5q-4.5 3.8-15 0.9l-0.7-43.8l-10.2-45.1z" /><path class="s42" d="m135.5 151l-0.2-2l16.4-3.1l5.4 4.4l-0.1 0.2q-2.2 11.1-3.2 12.9c-1.2 2-4.8 5.8-6.3 5.8c-2.3 0-8.2-4.2-9.5-6.9q-0.4-0.9-1.2-4.8q-2 0.1-2.9-2.4q-1.8-5 1.6-4.1z" /><path class="s51" d="m139.7 147l-1.3 9.1l-0.9-0.4l-2-4.7l-0.4-2.7z" /><path class="s52" d="m212.5 213.9l4.1 2.9l-1.6 6.3l-4.3-2z" /><path class="s53" d="m133.8 150.6c-1-2.9-1.5-11.3 4.2-12.8q15.2-5 20 6.3q0.8 3.6 0 6h-19.3l-3.5 0.5z" /><path class="s54" d="m140 137.3q4.6-3.7 8-0.4q6.7 6.5 6.2 12h-4.9q-3.2-9.9-9.3-11.6z" /><path class="s55" d="m241.4 198.1l-1.4 0.8l-3.8-4.3v-1z" /><path class="s56" d="m248.8 217.9l0.7-0.5l-0.1 3.5l-9.5 15.4z" /><path class="s57" d="m242.6 204l-5.9 19.1l-8.2-4.8l7 1.5z" /><path class="s58" d="m235.1 192.8l0.4 0.6q-3.8 9-5.9 18.8q1.9-11.2 5.1-17.9l-4.1 2.7v-1.5z" /><path class="s59" d="m244 186.4l5.9 3.8l-8.1 9.4l-6.6-6.5z" /><path class="s60" d="m234.2 187.6l1 5.5l-5.1 3.3l-0.2-5.2z" /><path class="s61" d="m225.9 347.8l-1.7-1.5l2.1-2.4q5.4 0.1 12.1-1.9q0 2.1-12.5 5.8z" /><path class="s62" d="m238.4 342q2.1 6.9 0 10.2l-1.7 0.6l-1.7-3.2q-9.1 7.1-19.9 5.2q7.9-9.4 11.2-10.9q-4.7 6.5 12.1-1.9z" /><path class="s63" d="m248.9 231.5l0.9 1.5q-0.7 4.1-0.9 9.3q-0.8-3.4 0-10.8z" /><path class="s64" d="m242.6 201.3l-2.4 5.6l-10.2 5.4l6-7.5z" /><path class="s65" d="m245.4 200l-1.5 1.8l-2.3 0.2l-1.9 4.5l-10.1 5.8q5.7-13 20.3-22.1z" /><path class="s66" d="m258.4 202.6c-1.2 2.9-3.1 5.7-4.6 8.4q-4.5 8.2-9 16.4q-2.5 4.4-4.9 8.9l-28.4-14.3l2.6-9q21.9 8 21.9 8c0 0 1.1-2.7 1.1-2.8q2.6-6.6 5.1-13.3q1.4-3.6 2.8-7.1c1.1-3 1.9-6.4 5.1-7.8c1.2-0.5 4.5 1.5 6.2 3c1.4 1.4 2.2 2.6 2.6 4.5q0.4 2.5-0.5 4.9q0 0.1 0 0.2z" /><path class="s67" d="m236.5 219.7q2.4 2.8 2.1 8.5q0.4-3-2.6-7.2z" /><path class="s68" d="m226.7 196.8l0.6-1l2.3 16.8l-3.7-11.1l0.7-3.2z" /><path class="s69" d="m229.6 212.6l-3.1-11l0.8-4.1l-0.5-1.7l3.2-4.7z" /><path class="s70" d="m233.5 170.5q-1.3 0.1-2.5 0.3c0.1-2.4 0.3-4.5 0.4-5l13.1 3.3q-6.7 0.9-11 1.4z" /><path class="s71" d="m252.2 171.4c0.5 0.5-20.7-2.9-28.8-4.8q15.5-9 28.8 4.8z" /><path class="s72" d="m157 150.5l-1.1 5.1q-1.4-0.9-2.8-1.4q-5.1 0-11.3-3.7z" /><path class="s73" d="m135.2 150.6q5.3-2.6 11.7-2.9q10.3-0.3 16.6 3.7q-11.7 1.2-28.3-0.8z" /><path class="s74" d="m150.4 180.2l1.3 0.4l4.1 4.5l-2.4 37.2l0.1-36.1l-3.5-3.9z" /><path class="s75" d="m166.3 245.9q-12.7 2.5-14.6-1.9q1.4-4.8 3.5-67.1l5.7 1.5z" /><path class="s76" d="m144.2 182.5l-4.7 5.9l-1.5-3l3.9-4.3l1.3-0.6z" /><path class="s77" d="m144.9 225.7l5.9-5.6l0.9 1.3l-6.7 5.4z" /><path class="s78" d="m149 213.2l-0.7 1.8l-4.3-8.1l2.2-24.6z" /><path class="s79" d="m145.7 184.5l0.1-1.8v-1.4h2.9l0.2 1.4l0.4 1.7l4.2 22.3l-4.5 8.1l-4-7.6z" /><path class="s80" d="m145.8 182.7h3.1l0.4 1.7c-0.7 0.4-1.9 0.8-3.6 0.1z" /><path class="s81" d="m148.3 184.2q-4.5 0.1-6.1-4.9q1.4-1.6 8.2-1.1q0.5 5.2-2.1 6z" /><path class="s82" d="m147.2 177.5l3.2 2.7l-0.4 2.1l-3.7-3.6z" /><path class="s82" d="m147.1 178.6l-2.9 3.9l-1-1.2l3.1-3.5z" /><path class="s83" d="m150.6 173.9l4.5 3l-0.2 8.6l-8.2-7.4z" /><path class="s84" d="m137.1 169.9l9.7 8.3l-7.4 8.7l-6.1-14.7z" /><path class="s85" d="m133.2 172.1q12.7 11.5 11.9 72.7q-10.1 6.4-25.7 0l10.6-46l-1.6-22.2v-1.6z" /><path class="s86" d="m145 227.9l-9.1 6.1l9-8.3z" /><path class="s87" d="m151.8 220.5l19.1 22.2l-32.7 28.2l-19.2-22.3z" /><path class="s88" d="m126.3 242.2l10.9 13.7l-3.9 1.9l-8.7-14z" /><path class="s89" d="m136 253.4l8.9 11.7l-1.4 1.2l-5.2-3.6l-3.7-7.3z" /><path class="s90" d="m141.5 247.6q0.1 0.1 4.3 5.1l-3.4 0.4l-2.6-4.4z" /><path class="s91" d="m172.2 208.6q-2 0.1-4.8 2.9q2.4-3.4 3.4-3.1z" /><path class="s92" d="m139 246.1l5.2 6.3q3.2-0.9 4.4-0.6q1.3 0.4 3.8 2.4l-0.3 3.2q2.8 1.6 2.8 2.1c0 0.5-5.8 5.8-8 6.1q-2.7 0.4-9.3-6.7l-5.4-8.5z" /><path class="s93" d="m152.1 257.4l-3.8-2.5l3.9 1.4z" /><path class="s94" d="m141.1 248.4l1.3 1.8q-2.8 4.5-6.6 5.7l-1.7-2.8z" /><path class="s95" d="m143.4 247.5c-0.1 0.4-0.9 1-1.3 1.3q-0.5 0.4-1 0.9q-2.6 2.2-5.1 4.5q-1.4 1.2-2.8 2.4l-18.1-32l2-40.4q1.1-10.3 12.6-10.3q5.8 5.7 3.5 17.3q-5.1 25.9-5.1 25.9q0.9 1.7 1.8 3.4q1.8 3.5 3.6 7q2.1 4.2 4.3 8.4c1.2 2.3 2.5 4.7 3.7 7c0.4 0.8 0.7 1.7 1.2 2.4c0.2 0.4 0.5 0.9 0.6 1.4q0.1 0.4 0.1 0.8z" /><path class="s96" d="m128.9 218.7q-4.5-2.7-7.9 0.9q3.3-3.6 7.1-2.5z" /><path class="s97" d="m203.9 219q-1.4 0.5-2.7-0.4q-1.3-0.9-2.7-2.2l0.8-1.3q3.7 3.7 4.6 3.9z" /><path class="s98" d="m197.7 217q-3.2 3.6-6.2 5.7l-2.4-0.6l-0.3-0.1c5-1.9 8.5-4.6 8.9-5z" /><path class="s99" d="m89.5 380.3l-9.4 9.4l-9.5-9.4l9.5-9.5z" /><path class="s100" d="m335.7 58.4l-7.3 7.3l-7.4-7.3l7.4-7.4z" /><path class="s101" d="m372.3 343.1l-13.1 13.1l-13.1-13.1l13.1-13.1z" /><path class="s102" d="m707.6-4.2v59.5l-59.6-59.5z" /><path class="s103" d="m51 331.1c1.8 0 3.2 1.4 3.2 3.2c0 1.8-1.4 3.2-3.2 3.2c-1.8 0-3.2-1.4-3.2-3.2c0-1.8 1.4-3.2 3.2-3.2z" /><path class="s104" d="m366.4 103c1.8 0 3.3 1.4 3.3 3.2c0 1.8-1.5 3.2-3.2 3.2c-1.8 0-3.3-1.4-3.3-3.2c0-1.8 1.5-3.2 3.3-3.2z" /><path class="s105" d="m323.4 390.1c3.2 0 5.7 2.5 5.7 5.6c0 3.2-2.5 5.7-5.7 5.7c-3.1 0-5.6-2.5-5.6-5.7c0-3.1 2.5-5.6 5.6-5.6z" /><path class="s106" d="m123.8 37.7c2 0 3.6 1.6 3.6 3.5c0 2-1.6 3.6-3.6 3.6c-2 0-3.6-1.6-3.6-3.6c0-1.9 1.6-3.5 3.6-3.5z" /><path class="s107" d="m33.8 106.2c4.2 0 7.6 3.4 7.6 7.6c0 4.2-3.4 7.6-7.6 7.6c-4.2 0-7.6-3.4-7.6-7.6c0-4.2 3.4-7.6 7.6-7.6z" /><path class="s108" d="m707.6 359v81.2h-46.5c1.4-34.1 19.5-63.8 46.5-81.2z" /></svg>