<svg version="1.2" xmlns="http://www.w3.org/2000/svg" viewBox="0 0 703 429" width="703" height="429"><defs><linearGradient id="P" gradientUnits="userSpaceOnUse"/><linearGradient id="g1" x1="160" y1="337.3" x2="249.7" y2="27.8" href="#P"><stop stop-color="#ff8f29"/><stop offset="1" stop-color="#ffad49"/></linearGradient><linearGradient id="g2" x1="569.2" y1="146.6" x2="565.2" y2="146.6" href="#P"><stop offset=".2" stop-color="#6c6556"/><stop offset="1" stop-color="#352118"/></linearGradient><linearGradient id="g3" x1="584.9" y1="369.2" x2="578.4" y2="329.7" href="#P"><stop offset=".1" stop-color="#4f585b"/><stop offset=".6" stop-color="#141515"/></linearGradient><linearGradient id="g4" x1="539.4" y1="329.3" x2="508" y2="339.8" href="#P"><stop offset=".1" stop-color="#4f585b"/><stop offset=".6" stop-color="#141515"/></linearGradient><linearGradient id="g5" x1="477.3" y1="206" x2="459.2" y2="249.4" href="#P"><stop offset=".6" stop-color="#3d5567"/><stop offset=".8" stop-color="#202c38"/></linearGradient><linearGradient id="g6" x1="505.6" y1="259.1" x2="483.3" y2="200.3" href="#P"><stop stop-color="#ff8f29"/><stop offset=".4" stop-color="#ffad49"/></linearGradient><linearGradient id="g7" x1="478.7" y1="217.8" x2="494.3" y2="235.9" href="#P"><stop offset=".3" stop-color="#f1c39e"/><stop offset=".7" stop-color="#f9e3d1"/></linearGradient><linearGradient id="g8" x1="498.4" y1="206" x2="496" y2="214.9" href="#P"><stop offset=".3" stop-color="#e4b38b"/><stop offset="1" stop-color="#f9e3d1"/></linearGradient><linearGradient id="g9" x1="512" y1="222.7" x2="501.6" y2="216.4" href="#P"><stop offset=".3" stop-color="#e4b38b"/><stop offset="1" stop-color="#f9e3d1"/></linearGradient><linearGradient id="g10" x1="510.4" y1="203.5" x2="494.8" y2="212.5" href="#P"><stop offset=".3" stop-color="#f9e3d1"/><stop offset=".7" stop-color="#f1c39e"/></linearGradient><linearGradient id="g11" x1="512.4" y1="203.4" x2="512.4" y2="237.5" href="#P"><stop offset=".3" stop-color="#e4b38b"/><stop offset="1" stop-color="#f9e3d1"/></linearGradient><linearGradient id="g12" x1="528.1" y1="167.4" x2="493.9" y2="191.4" href="#P"><stop offset=".6" stop-color="#3d5567"/><stop offset=".8" stop-color="#202c38"/></linearGradient><linearGradient id="g13" x1="533.7" y1="190" x2="536.4" y2="216" href="#P"><stop stop-color="#3d5567"/><stop offset="1" stop-color="#202c38"/></linearGradient><linearGradient id="g14" x1="588.9" y1="330.4" x2="583.5" y2="245.8" href="#P"><stop offset=".3" stop-color="#394f63"/><stop offset=".8" stop-color="#202c38"/></linearGradient><linearGradient id="g15" x1="576.8" y1="215.5" x2="566.4" y2="173.4" href="#P"><stop offset=".6" stop-color="#3d5567"/><stop offset=".8" stop-color="#202c38"/></linearGradient><linearGradient id="g16" x1="565" y1="158.5" x2="552.6" y2="158.5" href="#P"><stop offset=".3" stop-color="#f9e3d1"/><stop offset="1" stop-color="#f1c39e"/></linearGradient><linearGradient id="g17" x1="545.4" y1="165.2" x2="566.4" y2="176.9" href="#P"><stop offset=".1" stop-color="#f1c39e"/><stop offset="1" stop-color="#f9e3d1"/></linearGradient><linearGradient id="g18" x1="479.5" y1="283.8" x2="462.9" y2="283.8" href="#P"><stop offset=".2" stop-color="#f9e3d1"/><stop offset=".8" stop-color="#f1c39e"/></linearGradient><linearGradient id="g19" x1="476.8" y1="310.2" x2="480.5" y2="288.4" href="#P"><stop stop-color="#f9e3d1"/><stop offset=".7" stop-color="#f1c39e"/></linearGradient><linearGradient id="g20" x1="504" y1="216" x2="499.2" y2="228.9" href="#P"><stop offset=".3" stop-color="#e4b38b"/><stop offset="1" stop-color="#f9e3d1"/></linearGradient><linearGradient id="g21" x1="484.5" y1="281.6" x2="427.3" y2="286.9" href="#P"><stop offset=".5" stop-color="#f9e3d1"/><stop offset=".8" stop-color="#f1c39e"/></linearGradient><linearGradient id="g22" x1="465" y1="343.8" x2="441.9" y2="343.8" href="#P"><stop offset=".2" stop-color="#4f585b"/><stop offset=".7" stop-color="#141515"/></linearGradient><linearGradient id="g23" x1="467.2" y1="292.4" x2="464.4" y2="282.7" href="#P"><stop stop-color="#f9e3d1"/><stop offset=".5" stop-color="#f1c39e"/></linearGradient><linearGradient id="g24" x1="482.9" y1="237.1" x2="446.4" y2="232.1" href="#P"><stop offset=".3" stop-color="#394f63"/><stop offset=".8" stop-color="#202c38"/></linearGradient><linearGradient id="g25" x1="445.8" y1="238.6" x2="449.7" y2="259.4" href="#P"><stop offset=".3" stop-color="#202c38"/><stop offset="1" stop-color="#394f63"/></linearGradient><linearGradient id="g26" x1="469.2" y1="177.4" x2="458.1" y2="177.4" href="#P"><stop offset=".5" stop-color="#f9e3d1"/><stop offset="1" stop-color="#f1c39e"/></linearGradient><linearGradient id="g27" x1="454.6" y1="184.2" x2="461.7" y2="192.5" href="#P"><stop offset=".3" stop-color="#f1c39e"/><stop offset="1" stop-color="#f9e3d1"/></linearGradient><linearGradient id="g28" x1="456.1" y1="165.3" x2="436.6" y2="165.3" href="#P"><stop offset=".2" stop-color="#6c6556"/><stop offset="1" stop-color="#352118"/></linearGradient><linearGradient id="g29" x1="458" y1="175.9" x2="459.7" y2="164.8" href="#P"><stop offset=".2" stop-color="#6c6556"/><stop offset=".7" stop-color="#352118"/></linearGradient><linearGradient id="g30" x1="475" y1="154.1" x2="450.5" y2="148.9" href="#P"><stop offset=".4" stop-color="#ffad49"/><stop offset="1" stop-color="#ff8f29"/></linearGradient><linearGradient id="g31" x1="485.3" y1="191.2" x2="455.7" y2="193.9" href="#P"><stop offset=".3" stop-color="#394f63"/><stop offset=".5" stop-color="#202c38"/></linearGradient><linearGradient id="g32" x1="465.7" y1="192.2" x2="418.5" y2="202.8" href="#P"><stop offset=".2" stop-color="#394f63"/><stop offset=".6" stop-color="#202c38"/></linearGradient><linearGradient id="g33" x1="496.3" y1="214.9" x2="493.3" y2="236.2" href="#P"><stop offset=".2" stop-color="#f1c39e"/><stop offset=".4" stop-color="#f9e3d1"/></linearGradient><linearGradient id="g34" x1="472.8" y1="157.7" x2="458.8" y2="142.6" href="#P"><stop stop-color="#ff8f29"/><stop offset=".4" stop-color="#ffad49"/></linearGradient><linearGradient id="g35" x1="573.4" y1="242.8" x2="542.9" y2="238" href="#P"><stop offset=".3" stop-color="#394f63"/><stop offset=".8" stop-color="#202c38"/></linearGradient><linearGradient id="g36" x1="567.9" y1="145" x2="563.3" y2="145" href="#P"><stop offset=".2" stop-color="#6c6556"/><stop offset="1" stop-color="#352118"/></linearGradient><linearGradient id="g37" x1="499.2" y1="216.9" x2="487.4" y2="211.2" href="#P"><stop offset=".3" stop-color="#e4b38b"/><stop offset="1" stop-color="#f9e3d1"/></linearGradient><linearGradient id="g38" x1="569.4" y1="134.7" x2="541.2" y2="134.7" href="#P"><stop offset=".5" stop-color="#ffad49"/><stop offset=".8" stop-color="#ff8f29"/></linearGradient><linearGradient id="g39" x1="545.6" y1="129.9" x2="550.7" y2="165" href="#P"><stop offset=".3" stop-color="#ff8f29"/><stop offset=".6" stop-color="#ffad49"/></linearGradient><linearGradient id="g40" x1="457.6" y1="197" x2="468.6" y2="202.9" href="#P"><stop stop-color="#a1adaf"/><stop offset=".8" stop-color="#e8ecec"/></linearGradient><linearGradient id="g41" x1="467" y1="217.1" x2="458.4" y2="212.8" href="#P"><stop offset="0" stop-color="#394f63"/><stop offset=".6" stop-color="#202c38"/></linearGradient><linearGradient id="g42" x1="470" y1="226.4" x2="477.7" y2="200" href="#P"><stop stop-color="#202c38"/><stop offset=".9" stop-color="#394f63"/></linearGradient><linearGradient id="g43" x1="457.4" y1="211" x2="480.1" y2="218.5" href="#P"><stop stop-color="#a1adaf"/><stop offset=".8" stop-color="#e8ecec"/></linearGradient><linearGradient id="g44" x1="472.1" y1="192.4" x2="461.8" y2="179.4" href="#P"><stop offset=".3" stop-color="#e8ecec"/><stop offset=".6" stop-color="#ffffff"/></linearGradient><linearGradient id="g45" x1="463.3" y1="196.2" x2="472.4" y2="201.1" href="#P"><stop offset=".3" stop-color="#ffffff"/><stop offset=".9" stop-color="#e8ecec"/></linearGradient><linearGradient id="g46" x1="463.8" y1="333.7" x2="461.9" y2="353.1" href="#P"><stop offset=".2" stop-color="#f9e3d1"/><stop offset=".5" stop-color="#f1c39e"/></linearGradient><linearGradient id="g47" x1="486.8" y1="340.2" x2="463.6" y2="340.2" href="#P"><stop offset=".3" stop-color="#4f585b"/><stop offset=".8" stop-color="#141515"/></linearGradient><linearGradient id="g48" x1="450.4" y1="244.1" x2="457" y2="244.5" href="#P"><stop offset=".3" stop-color="#202c38"/><stop offset=".6" stop-color="#394f63"/></linearGradient><linearGradient id="g49" x1="455.4" y1="208.9" x2="463.3" y2="219.4" href="#P"><stop offset=".5" stop-color="#202c38"/><stop offset=".8" stop-color="#394f63"/></linearGradient><linearGradient id="g50" x1="485.1" y1="202.8" x2="466.3" y2="177" href="#P"><stop offset=".2" stop-color="#202c38"/><stop offset=".6" stop-color="#394f63"/></linearGradient><linearGradient id="g51" x1="459.2" y1="177.8" x2="434.8" y2="236.3" href="#P"><stop offset=".6" stop-color="#3d5567"/><stop offset=".8" stop-color="#202c38"/></linearGradient><linearGradient id="g52" x1="466.2" y1="217" x2="458.9" y2="220.1" href="#P"><stop offset=".2" stop-color="#394f63"/><stop offset=".4" stop-color="#202c38"/></linearGradient><linearGradient id="g53" x1="478.2" y1="192.4" x2="466.2" y2="196.9" href="#P"><stop stop-color="#202c38"/><stop offset=".9" stop-color="#394f63"/></linearGradient><linearGradient id="g54" x1="479.6" y1="189.2" x2="468.1" y2="188.8" href="#P"><stop offset=".2" stop-color="#202c38"/><stop offset=".4" stop-color="#394f63"/></linearGradient><linearGradient id="g55" x1="462.3" y1="160" x2="450.3" y2="170.9" href="#P"><stop offset=".1" stop-color="#f1c39e"/><stop offset="1" stop-color="#f9e3d1"/></linearGradient><linearGradient id="g56" x1="474.1" y1="160.1" x2="449.7" y2="164.6" href="#P"><stop stop-color="#ffad49"/><stop offset=".5" stop-color="#ff8f29"/></linearGradient><linearGradient id="g57" x1="530.7" y1="140.3" x2="560.6" y2="165.3" href="#P"><stop offset=".1" stop-color="#f1c39e"/><stop offset="1" stop-color="#f9e3d1"/></linearGradient><linearGradient id="g58" x1="570.5" y1="154" x2="552.7" y2="126.9" href="#P"><stop offset=".2" stop-color="#ffad49"/><stop offset=".6" stop-color="#ff8f29"/></linearGradient><linearGradient id="g59" x1="570.2" y1="218.6" x2="550" y2="173.4" href="#P"><stop stop-color="#3d5567"/><stop offset="1" stop-color="#202c38"/></linearGradient><linearGradient id="g60" x1="553.8" y1="230.8" x2="556.8" y2="150.8" href="#P"><stop stop-color="#ff8f29"/><stop offset=".4" stop-color="#ffad49"/></linearGradient><linearGradient id="g61" x1="567.9" y1="202.9" x2="567.1" y2="184.4" href="#P"><stop stop-color="#3d5567"/><stop offset="1" stop-color="#202c38"/></linearGradient><linearGradient id="g62" x1="553.3" y1="215.9" x2="547.4" y2="229.6" href="#P"><stop stop-color="#3d5567"/><stop offset="1" stop-color="#202c38"/></linearGradient><linearGradient id="g63" x1="563.3" y1="218.9" x2="558.4" y2="183.9" href="#P"><stop stop-color="#3d5567"/><stop offset="1" stop-color="#202c38"/></linearGradient><linearGradient id="g64" x1="558.7" y1="176.8" x2="535.6" y2="183.6" href="#P"><stop offset=".2" stop-color="#e33b3a"/><stop offset=".5" stop-color="#b52c2d"/></linearGradient><linearGradient id="g65" x1="560" y1="187.4" x2="557.8" y2="177.3" href="#P"><stop offset=".1" stop-color="#e33b3a"/><stop offset=".4" stop-color="#b52c2d"/></linearGradient><linearGradient id="g66" x1="560" y1="173.4" x2="550.8" y2="177.4" href="#P"><stop offset=".4" stop-color="#e33b3a"/><stop offset=".9" stop-color="#c23131"/></linearGradient><linearGradient id="g67" x1="558.9" y1="191.6" x2="557.8" y2="164.7" href="#P"><stop offset=".6" stop-color="#3d5567"/><stop offset=".8" stop-color="#202c38"/></linearGradient><linearGradient id="g68" x1="572.3" y1="191.9" x2="571.2" y2="165" href="#P"><stop offset=".6" stop-color="#3d5567"/><stop offset=".8" stop-color="#202c38"/></linearGradient><linearGradient id="g69" x1="590.8" y1="218.8" x2="580.3" y2="146.6" href="#P"><stop stop-color="#ff8f29"/><stop offset=".4" stop-color="#ffad49"/></linearGradient><linearGradient id="g70" x1="555.2" y1="225.6" x2="556" y2="234" href="#P"><stop stop-color="#ff8f29"/><stop offset=".4" stop-color="#ffad49"/></linearGradient><linearGradient id="g71" x1="570.2" y1="216.7" x2="520.7" y2="232.1" href="#P"><stop offset=".2" stop-color="#e33b3a"/><stop offset=".5" stop-color="#b52c2d"/></linearGradient><linearGradient id="g72" x1="574.5" y1="262.3" x2="586.8" y2="250.6" href="#P"><stop stop-color="#dfdabe"/><stop offset="1" stop-color="#575749"/></linearGradient><linearGradient id="g73" x1="568" y1="268.1" x2="571.8" y2="264.7" href="#P"><stop stop-color="#dfdabe"/><stop offset="1" stop-color="#575749"/></linearGradient><linearGradient id="g74" x1="557.4" y1="246" x2="556" y2="247.1" href="#P"><stop stop-color="#dfdabe"/><stop offset="1" stop-color="#575749"/></linearGradient><linearGradient id="g75" x1="540.2" y1="217.7" x2="534.2" y2="196.9" href="#P"><stop stop-color="#3d5567"/><stop offset="1" stop-color="#202c38"/></linearGradient><linearGradient id="g76" x1="570.8" y1="244.1" x2="548.1" y2="244.1" href="#P"><stop offset=".3" stop-color="#f9e3d1"/><stop offset=".7" stop-color="#f1c39e"/></linearGradient><linearGradient id="g77" x1="550.5" y1="250.9" x2="546.3" y2="259.3" href="#P"><stop offset=".2" stop-color="#f1c39e"/><stop offset=".5" stop-color="#f9e3d1"/></linearGradient><linearGradient id="g78" x1="556.8" y1="252.5" x2="565.2" y2="262.3" href="#P"><stop stop-color="#e4b38b"/><stop offset=".9" stop-color="#f1c39e"/></linearGradient><linearGradient id="g79" x1="531.8" y1="263" x2="605.7" y2="256" href="#P"><stop offset=".6" stop-color="#3d5567"/><stop offset=".8" stop-color="#202c38"/></linearGradient><linearGradient id="g80" x1="578.9" y1="205.1" x2="562.5" y2="237.6" href="#P"><stop stop-color="#3d5567"/><stop offset="1" stop-color="#202c38"/></linearGradient><linearGradient id="g81" x1="499" y1="212.4" x2="496.3" y2="217.5" href="#P"><stop offset=".3" stop-color="#e4b38b"/><stop offset="1" stop-color="#f9e3d1"/></linearGradient><linearGradient id="g82" x1="505.5" y1="212.4" x2="501.7" y2="228.7" href="#P"><stop offset=".3" stop-color="#e4b38b"/><stop offset="1" stop-color="#f9e3d1"/></linearGradient><linearGradient id="g83" x1="612.1" y1="378.9" x2="621.5" y2="369.4" href="#P"><stop stop-color="#e8ebea"/><stop offset="1" stop-color="#ffffff"/></linearGradient><linearGradient id="g84" x1="365.8" y1="56.9" x2="373.2" y2="49.6" href="#P"><stop stop-color="#ff8f29"/><stop offset="1" stop-color="#ffad49"/></linearGradient><linearGradient id="g85" x1="329.3" y1="341.7" x2="342.4" y2="328.6" href="#P"><stop stop-color="#e8ebea"/><stop offset="1" stop-color="#ffffff"/></linearGradient><linearGradient id="g86" x1="73.9" y1="-20.2" x2="53.3" y2="72.1" href="#P"><stop stop-color="#e8ebea"/><stop offset="1" stop-color="#ffffff"/></linearGradient><linearGradient id="g87" x1="645.8" y1="332.7" x2="650.4" y2="328.1" href="#P"><stop stop-color="#e8ebea"/><stop offset="1" stop-color="#ffffff"/></linearGradient><linearGradient id="g88" x1="330.4" y1="104.5" x2="334.9" y2="100" href="#P"><stop stop-color="#ff8f29"/><stop offset="1" stop-color="#ffad49"/></linearGradient><linearGradient id="g89" x1="369.8" y1="393.9" x2="377.8" y2="386" href="#P"><stop stop-color="#e8ebea"/><stop offset="1" stop-color="#ffffff"/></linearGradient><linearGradient id="g90" x1="572.5" y1="39.6" x2="577.5" y2="34.5" href="#P"><stop stop-color="#e8ebea"/><stop offset="1" stop-color="#ffffff"/></linearGradient><linearGradient id="g91" x1="656.5" y1="111.9" x2="667.3" y2="101.1" href="#P"><stop stop-color="#e8ebea"/><stop offset="1" stop-color="#ffffff"/></linearGradient><linearGradient id="g92" x1="-152.8" y1="498.2" x2="104" y2="307.9" href="#P"><stop stop-color="#ff8f29"/><stop offset="1" stop-color="#ffad49"/></linearGradient></defs><style>.s0{fill:#ffffff}.s1{fill:url(#g1)}.s2{fill:#d6dbda}.s3{fill:#bac3c1}.s4{fill:#f5f7f7}.s5{fill:#a14929}.s6{fill:#b0b9b7}.s7{fill:#929d9b}.s8{fill:#ced4d3}.s9{fill:#788383}.s10{fill:#5d6767}.s11{fill:#ad583e}.s12{fill:#cbd2d0}.s13{opacity: .3;mix-blend-mode: multiply;fill:#ffad49}.s14{fill:url(#g2)}.s15{fill:url(#g3)}.s16{fill:url(#g4)}.s17{fill:url(#g5)}.s18{fill:url(#g6)}.s19{fill:url(#g7)}.s20{fill:url(#g8)}.s21{fill:url(#g9)}.s22{fill:url(#g10)}.s23{fill:url(#g11)}.s24{fill:url(#g12)}.s25{fill:url(#g13)}.s26{fill:url(#g14)}.s27{fill:#1d262e}.s28{fill:url(#g15)}.s29{fill:url(#g16)}.s30{fill:url(#g17)}.s31{fill:url(#g18)}.s32{fill:url(#g19)}.s33{fill:url(#g20)}.s34{fill:url(#g21)}.s35{fill:url(#g22)}.s36{fill:url(#g23)}.s37{fill:url(#g24)}.s38{fill:url(#g25)}.s39{fill:url(#g26)}.s40{fill:url(#g27)}.s41{fill:url(#g28)}.s42{fill:#f8e4d2}.s43{fill:url(#g29)}.s44{fill:url(#g30)}.s45{fill:#d8e1e3}.s46{fill:url(#g31)}.s47{fill:url(#g32)}.s48{fill:url(#g33)}.s49{fill:url(#g34)}.s50{fill:url(#g35)}.s51{fill:url(#g36)}.s52{fill:url(#g37)}.s53{fill:url(#g38)}.s54{fill:url(#g39)}.s55{fill:url(#g40)}.s56{fill:url(#g41)}.s57{fill:url(#g42)}.s58{fill:url(#g43)}.s59{fill:url(#g44)}.s60{fill:url(#g45)}.s61{fill:url(#g46)}.s62{fill:url(#g47)}.s63{fill:url(#g48)}.s64{fill:url(#g49)}.s65{fill:url(#g50)}.s66{fill:url(#g51)}.s67{fill:url(#g52)}.s68{fill:url(#g53)}.s69{fill:url(#g54)}.s70{fill:url(#g55)}.s71{fill:url(#g56)}.s72{fill:url(#g57)}.s73{fill:url(#g58)}.s74{fill:url(#g59)}.s75{fill:url(#g60)}.s76{fill:url(#g61)}.s77{fill:url(#g62)}.s78{fill:url(#g63)}.s79{fill:url(#g64)}.s80{fill:url(#g65)}.s81{fill:url(#g66)}.s82{fill:#b52c2d}.s83{fill:url(#g67)}.s84{fill:url(#g68)}.s85{fill:url(#g69)}.s86{mix-blend-mode: multiply;fill:url(#g70)}.s87{fill:url(#g71)}.s88{mix-blend-mode: multiply;fill:url(#g72)}.s89{mix-blend-mode: multiply;fill:url(#g73)}.s90{mix-blend-mode: multiply;fill:url(#g74)}.s91{fill:url(#g75)}.s92{fill:url(#g76)}.s93{fill:url(#g77)}.s94{fill:url(#g78)}.s95{fill:url(#g79)}.s96{fill:url(#g80)}.s97{fill:url(#g81)}.s98{fill:url(#g82)}.s99{fill:url(#g83)}.s100{fill:url(#g84)}.s101{fill:url(#g85)}.s102{fill:url(#g86)}.s103{fill:url(#g87)}.s104{fill:url(#g88)}.s105{fill:url(#g89)}.s106{fill:url(#g90)}.s107{fill:url(#g91)}.s108{fill:url(#g92)}</style><path class="s0" d="m706.6 440.2h-711.2v-444.4h711.2z" /><path class="s1" d="m402.4 184.9c26.6-90-7-159.2-83-189.1h387.2v444.4h-445.5c15.7-98.1 114.8-165.4 141.3-255.3z" /><path class="s2" d="m357 128.4h37.2v35.1h44l15.7 35.2h60.2v-73.9h9.2v-6.1l17.6-12.7v52.8h15.3v16h9.9v23.9h15.8v32.8h11.4v-58.8h22v104.7h-258.3z" /><path class="s3" d="m357 231.5h83.8v-32.8h21.3v-23.9h10v-46.1h15.2v-22.7h17.6v50.3l19.3 5.7v36.7h46v-23.9h42.6v23.9h2.5v78.7h-258.3z" /><path class="s4" d="m400.7 102.4h-42.3q3.7-9.3 12.3-4.3c9.2-9.1 20.4-4.4 21.9 2.2q5-2.6 8.1 2.1z" /><path class="s4" d="m570.5 78.1c2.3-9.9 19.1-17.1 33-3.3q13-7.5 18.6 6.5h-63.8q4.7-7.1 12.2-3.2z" /><path class="s4" d="m518.7 55.1h-37.6q5.8-7.5 13.2-2.1c12.1-11.1 23.2-5.3 24.4 2.1z" /><path class="s5" d="m509.5 277.6h-63.1v-149.1l15.2-14.7h47.9z" /><path class="s6" d="m509.5 277.6h-63.1v-149.1h63.1z" /><path class="s7" d="m509.5 277.6h-15.2v-149.1l15.2-14.7z" /><path class="s8" d="m510.4 219.4h-64.9v-2.5h64.9z" /><path class="s7" d="m510.4 277.6h-64.9v-2.6h64.9z" /><path class="s9" d="m465.5 150.1h-12.2v-12.3h12.2z" /><path class="s9" d="m487.4 150.1h-12.3v-12.2h12.3z" /><path class="s10" d="m465.5 150.1h-10.6v-12.3h10.6z" /><path class="s10" d="m487.4 150.1h-10.6v-12.3h10.6z" /><path class="s9" d="m465.5 169.5h-12.2v-12.2h12.2z" /><path class="s9" d="m487.4 169.5h-12.3v-12.2h12.3z" /><path class="s10" d="m465.5 169.5h-10.6v-12.2h10.6z" /><path class="s10" d="m487.4 169.5h-10.6v-12.2h10.6z" /><path class="s9" d="m465.5 242.8h-12.2v-12.3h12.2z" /><path class="s9" d="m487.4 242.8h-12.3v-12.3h12.3z" /><path class="s10" d="m465.5 242.8h-10.6v-12.3h10.6z" /><path class="s10" d="m487.4 242.8h-10.6v-12.3h10.6z" /><path class="s9" d="m465.5 262.2h-12.2v-12.3h12.2z" /><path class="s9" d="m487.4 256.1v18.9h-12.3v-18.9c0-3.4 2.8-6.2 6.2-6.2q0.4 0 0.8 0.1c3 0.4 5.3 3 5.3 6.1z" /><path class="s10" d="m487.4 256.1v18.9h-10.6v-18.9c0-3.1 2.3-5.7 5.3-6.1c3 0.4 5.3 3 5.3 6.1z" /><path class="s10" d="m465.5 262.2h-10.6v-12.3h10.6z" /><path class="s9" d="m465.5 189h-12.2v-12.3h12.2z" /><path class="s9" d="m487.4 189h-12.3v-12.3h12.3z" /><path class="s10" d="m465.5 189h-10.6v-12.3h10.6z" /><path class="s10" d="m487.4 189h-10.6v-12.3h10.6z" /><path class="s9" d="m465.5 208.4h-12.2v-12.3h12.2z" /><path class="s9" d="m487.4 208.4h-12.3v-12.3h12.3z" /><path class="s10" d="m465.5 208.4h-10.6v-12.3h10.6z" /><path class="s10" d="m487.4 208.4h-10.6v-12.3h10.6z" /><path class="s5" d="m620.3 106l11.2 22.4v149h-81v-171.4z" /><path class="s6" d="m631.5 277.4h-91.3v-149h91.3z" /><path class="s7" d="m540.2 128.4l10.3-22.4l11.2 22.4v149h-21.5z" /><path class="s8" d="m632.4 199.9h-93.1v-2.6h93.1z" /><path class="s7" d="m632.4 277.4h-93.1v-2.6h93.1z" /><path class="s9" d="m554.8 188.8h-8.6v-12.2h8.6z" /><path class="s9" d="m554.8 169.4h-8.6v-12.3h8.6z" /><path class="s9" d="m554.8 150h-8.6v-12.3h8.6z" /><path class="s10" d="m554.8 188.8h-6.9v-12.2h6.9z" /><path class="s10" d="m554.8 169.4h-6.9v-12.3h6.9z" /><path class="s10" d="m554.8 150h-6.9v-12.3h6.9z" /><path class="s9" d="m624.6 150h-12.3v-12.3h12.3z" /><path class="s9" d="m602.7 150h-12.2v-12.3h12.2z" /><path class="s9" d="m580.9 150h-12.3v-12.3h12.3z" /><path class="s10" d="m622.9 150h-10.6v-12.3h10.6z" /><path class="s10" d="m601.1 150h-10.6v-12.3h10.6z" /><path class="s10" d="m579.2 150h-10.6v-12.3h10.6z" /><path class="s9" d="m624.6 169.4h-12.3v-12.3h12.3z" /><path class="s9" d="m602.7 169.4h-12.2v-12.3h12.2z" /><path class="s9" d="m580.9 169.4h-12.3v-12.3h12.3z" /><path class="s10" d="m622.9 169.4h-10.6v-12.3h10.6z" /><path class="s10" d="m601.1 169.4h-10.6v-12.3h10.6z" /><path class="s10" d="m579.2 169.4h-10.6v-12.3h10.6z" /><path class="s9" d="m624.6 188.8h-12.3v-12.2h12.3z" /><path class="s9" d="m602.7 188.8h-12.2v-12.2h12.2z" /><path class="s9" d="m580.9 188.8h-12.3v-12.2h12.3z" /><path class="s10" d="m622.9 188.8h-10.6v-12.2h10.6z" /><path class="s10" d="m601.1 188.8h-10.6v-12.2h10.6z" /><path class="s10" d="m579.2 188.8h-10.6v-12.2h10.6z" /><path class="s9" d="m554.8 262h-8.6v-12.2h8.6z" /><path class="s9" d="m554.8 242.6h-8.6v-12.2h8.6z" /><path class="s9" d="m554.8 223.2h-8.6v-12.3h8.6z" /><path class="s10" d="m554.8 262h-6.9v-12.2h6.9z" /><path class="s10" d="m554.8 242.6h-6.9v-12.2h6.9z" /><path class="s10" d="m554.8 223.2h-6.9v-12.3h6.9z" /><path class="s9" d="m624.6 223.2h-12.3v-12.3h12.3z" /><path class="s9" d="m602.7 223.2h-12.2v-12.3h12.2z" /><path class="s9" d="m580.9 223.2h-12.3v-12.3h12.3z" /><path class="s10" d="m622.9 223.2h-10.6v-12.3h10.6z" /><path class="s10" d="m601.1 223.2h-10.6v-12.3h10.6z" /><path class="s10" d="m579.2 223.2h-10.6v-12.3h10.6z" /><path class="s9" d="m624.6 242.6h-12.3v-12.2h12.3z" /><path class="s9" d="m602.7 242.6h-12.2v-12.2h12.2z" /><path class="s9" d="m580.9 242.6h-12.3v-12.2h12.3z" /><path class="s10" d="m622.9 242.6h-10.6v-12.2h10.6z" /><path class="s10" d="m601.1 242.6h-10.6v-12.2h10.6z" /><path class="s10" d="m579.2 242.6h-10.6v-12.2h10.6z" /><path class="s9" d="m624.6 262.1h-12.3v-12.3h12.3z" /><path class="s9" d="m602.7 262.1h-12.2v-12.3h12.2z" /><path class="s9" d="m573.9 249.9q0.4-0.1 0.8-0.1c3.4 0 6.2 2.7 6.2 6.1v18.9h-12.3v-18.9c0-3.1 2.3-5.6 5.3-6z" /><path class="s10" d="m573.9 249.9c3 0.4 5.3 2.9 5.3 6v18.9h-10.6v-18.9c0-3.1 2.3-5.6 5.3-6z" /><path class="s10" d="m622.9 262.1h-10.6v-12.3h10.6z" /><path class="s10" d="m601.1 262.1h-10.6v-12.3h10.6z" /><path class="s11" d="m617.5 128.4l-11.2-22.4h1.9l11.2 22.4z" /><path class="s11" d="m585.5 106l11.2 22.4h-1.9l-11.2-22.4z" /><path class="s11" d="m563.7 106l11.2 22.4h-2l-11.2-22.4z" /><path class="s6" d="m422.3 277.4h-91.3v-110.2h91.3z" /><path class="s7" d="m352.5 277.4h-21.5v-110.2h21.5z" /><path class="s8" d="m423.2 219.3h-93.1v-2.6h93.1z" /><path class="s7" d="m423.2 277.4h-93.1v-2.6h93.1z" /><path class="s9" d="m345.6 208.2h-8.6v-12.2h8.6z" /><path class="s9" d="m345.6 188.8h-8.6v-12.2h8.6z" /><path class="s10" d="m345.6 208.2h-6.9v-12.2h6.9z" /><path class="s10" d="m345.6 188.8h-6.9v-12.2h6.9z" /><path class="s9" d="m415.4 188.8h-12.2v-12.2h12.2z" /><path class="s9" d="m393.6 188.8h-12.3v-12.2h12.3z" /><path class="s9" d="m371.7 188.8h-12.3v-12.2h12.3z" /><path class="s10" d="m413.8 188.8h-10.6v-12.2h10.6z" /><path class="s10" d="m391.9 188.8h-10.6v-12.2h10.6z" /><path class="s10" d="m370 188.8h-10.6v-12.2h10.6z" /><path class="s9" d="m415.4 208.2h-12.2v-12.2h12.2z" /><path class="s9" d="m393.6 208.2h-12.3v-12.2h12.3z" /><path class="s9" d="m371.7 208.2h-12.3v-12.2h12.3z" /><path class="s10" d="m413.8 208.2h-10.6v-12.2h10.6z" /><path class="s10" d="m391.9 208.2h-10.6v-12.2h10.6z" /><path class="s10" d="m370 208.2h-10.6v-12.2h10.6z" /><path class="s9" d="m345.6 262h-8.6v-12.2h8.6z" /><path class="s9" d="m345.6 242.6h-8.6v-12.2h8.6z" /><path class="s10" d="m345.6 262h-6.9v-12.2h6.9z" /><path class="s10" d="m345.6 242.6h-6.9v-12.2h6.9z" /><path class="s9" d="m415.4 242.6h-12.2v-12.2h12.2z" /><path class="s9" d="m393.6 242.6h-12.3v-12.2h12.3z" /><path class="s9" d="m371.7 242.6h-12.3v-12.2h12.3z" /><path class="s10" d="m413.8 242.6h-10.6v-12.2h10.6z" /><path class="s10" d="m391.9 242.6h-10.6v-12.2h10.6z" /><path class="s10" d="m370 242.6h-10.6v-12.2h10.6z" /><path class="s9" d="m415.4 262.1h-12.2v-12.3h12.2z" /><path class="s9" d="m393.6 262.1h-12.3v-12.3h12.3z" /><path class="s9" d="m364.7 249.9q0.4-0.1 0.9-0.1c3.3 0 6.1 2.7 6.1 6.1v18.9h-12.3v-18.9c0-3.1 2.3-5.6 5.3-6z" /><path class="s10" d="m364.7 249.9c3 0.4 5.3 2.9 5.3 6v18.9h-10.6v-18.9c0-3.1 2.3-5.6 5.3-6z" /><path class="s10" d="m413.8 262.1h-10.6v-12.3h10.6z" /><path class="s10" d="m391.9 262.1h-10.6v-12.3h10.6z" /><path fill-rule="evenodd" class="s12" d="m422.3 142.8v24.4h-91.3v-24.4zm-71.5 1.1h-18.1l9 10.3zm-8.3 11.1l9.5 10.8v-21.6zm-0.7 0.9l-9.1 10.3h18.2zm-0.8-0.8l-8.9-10.2v20.3zm12 10.9l21.6-22h-21.6zm1.3 0.2h21.5v-22zm22.7-0.2l21.5-22h-21.5zm1.3 0.2h21.5v-22zm43-22.3h-20.3v22.3h20.3z" /><path class="s4" d="m448.6 74.8q7.3-5.5 13.1 2.1h-37.5c1.2-7.4 12.2-13.2 24.4-2.1z" /><path class="s13" d="m599.6 358.3c0 4.9-39.2 8-87.6 7c-48.4-1-87.6-5.7-87.6-10.5c0-4.9 39.2-8 87.6-7c48.4 0.9 87.6 5.7 87.6 10.5z" /><path class="s14" d="m569.2 150.6l-1.3 4.7h-2.1l1.1-6.7z" /><path class="s15" d="m579.3 340.6l1 11.5q0.8 5.4 0 7.4c-1.5 2.2-17.2 4.9-18.4 0.2c-0.8-3.2 6-6.4 7-8.2q1-1.7-0.5-8.8z" /><path class="s16" d="m547.3 337.5l0.5 17.3q-15.8 3.6-26.5 1.9c-3.1-0.7 1.3-6.3 13.7-8.9q0.9-4.5 0.1-10.2z" /><path class="s17" d="m477.5 208.4l7.5 34.4l-7.3 2.5l-6.7-31.4z" /><path class="s18" d="m494.1 255.9l-15.6 1.2l-1.6 0.2l-8.5 0.6l-2.2-23.4l25.5-1.9z" /><path class="s19" d="m511.6 224.2q-1.6 1.7-3.1 2.1c-1.7 0.2-3.4 0-5-0.6q-1.4-0.5-2.7-1.2q-1.1-0.7-2.2-1.5c-1.2-0.9-2.4-2-3.4-3.2q0 0 0-0.1l-2.9 1.4l-4.3 2l-1.6-6.3l4.1-2.9l1.4-1.1c1.4-1.1 3.3-1.8 6.7-2.4l1.8 0.1l1.2 0.1l1.7 3.8l0.4 0.7l7.9 7.7c0.3 0.4 0.4 1 0 1.4z" /><path class="s20" d="m503.3 214.4l-5.1 1.5q0.4-2.8 2.2-5.4l1.2 0.1z" /><path class="s21" d="m503.3 225.6q-0.2 0-0.4-0.1q-4.6-1.8-7.7-5.8l0.8-0.4q2.4 4 7.3 6.3z" /><path class="s22" d="m519.3 212.3l-0.3 8.2l-1.4 0.4l-2.5 0.8l-0.9 0.3l-0.3 0.1l-2.4 0.6q-3-2.1-6.2-5.7q0 0 0 0q-0.8-0.9-1.6-1.8q0 0 0-0.1q0 0 0 0q-3.1 3-4.1 3.7q-0.9 0.7-2.4-0.2q2.3-7.2 4.6-8.1q2.9-1.3 10.8 3.3l1.8-0.4z" /><path class="s23" d="m519.3 212.3l-0.3 8.2l-1.4 0.4l-2.5 0.8l-0.7-8.3z" /><path class="s24" d="m532.2 208.4l0.2-2.3q3.3-28 11.4-27.5l-3.3 42.5l-24.1 1.1l-1.4-10.8z" /><path class="s25" d="m543.3 184.9l-2.3 36.4h-4.3l4.9-36.4z" /><path class="s26" d="m575.9 238.8l0.7 48.3l5 60.7q-7 2.9-13.4 1.1l-8.5-66.9q-1.9-11-8.4-34.4z" /><path class="s27" d="m576.2 256.6v2.8l-9.2 11.3l-1.8-1.4z" /><path class="s28" d="m546.9 177.7q17.7-3.8 23.4-2.8q-9.3 50.7-0.5 68.4l-27.6-0.9z" /><path class="s29" d="m565 174.9q-2.4 2.1-2.8 2.3q-0.3 0.3-5.6 3.9l-3.3-3.9q-0.2-3.9-0.4-7.5c-0.1-3-0.3-5.8-0.3-5.9l0.4-0.1l10.8-3.2l0.2 1.6l0.3 4.1z" /><path class="s30" d="m564.3 166.2l-8.4 5.5l-3-2c-0.1-3-0.3-5.8-0.3-5.9l0.4-0.1l3.2 1.3l7.8-2.9z" /><path class="s31" d="m464.7 344.7q-1.7-50.9-1.8-54.4q0-2.8 0-4.5h13.7l-0.4 2.6l-0.7 6l-2.5 20.7q-0.9 6-0.9 21.4l7.4 12z" /><path class="s32" d="m476.2 288.4l-0.7 6c-1.7 1.1-4.5 1.9-9.2 1.5q-3 0.9-2.9 8.3c-0.2-5.3-0.4-10.4-0.5-13.9z" /><path class="s33" d="m506.7 226.4c-1.2-0.1-2.3-0.4-3.4-0.7q-0.2-0.1-0.4-0.2l1.1-3.9q5.1 1.9 2.7 4.8z" /><path class="s34" d="m452.9 344l7.5 10.8l-15.9-3.8q2-43.3 4-59.4c0.2-1.9 0.5-3.5 0.7-4.5q0.2-1.1 0.5-1.3l16.6 1.7q-14.6 48-13.4 56.5z" /><path class="s35" d="m457.2 350.1q3.5 2.3 10.8 10.2q-7.6 2.6-20-4.4l-1.5 3l-1.7-0.4q-4.4-8.8-0.1-12.9q18.5 14.5 12.5 4.5z" /><path class="s36" d="m464.2 291.3c-0.9 4.4-12.2 1.4-15.7 0.3c0.2-1.9 0.5-3.5 0.7-4.5z" /><path class="s37" d="m482.7 289.7q-22.2 7.3-35.8-1.2q-1.8-20.2 2.1-36.7q0.5-1.8 1-3.5c1.2-4.1 2.9-7.7 5-10.7l25.5 2.5q1.2 13.5 0 20.8q-1.4 24.4 2.2 28.8z" /><path class="s38" d="m476.7 247.3l-4.6-1.1q-5.6 11.2-23.1 5.6q0.5-1.8 1-3.5c5.3 0.3 14.5-0.2 22.5-7.1z" /><path class="s39" d="m469.2 197.5l-9.3-4.6l-1.2-8.3l-0.3-1.8l-0.3-2.4l10.4-1l0.1 2.6l0.1 3.6z" /><path class="s40" d="m468.7 185.6l-2.3 2.3l-7.7-3.3l-0.3-1.8l7.6 2.8l2.6-3.6z" /><path class="s41" d="m438.2 201.6c0.2 0 0.8-1 0.9-1.2q0.5-0.6 0.9-1.2q0.7-0.9 1.2-2c0.4-0.7 0.7-1.5 0.9-2.3c-0.2 0.2-0.6 0.2-0.9 0.4c-2.4 1.1-4.8 2.1-7.1 3.3c-0.1-0.6 1.5-1.6 1.9-2c1.2-1.3 2-2.8 2.7-4.4q0.4-1.1 0.8-2.2c0.3-0.7 0.4-1.5 0.4-2.3c0.3-3.1 0.6-6.2 1.1-9.2c0.4-2.1 1-4.2 2.2-6c0.9-1.4 2.1-2.4 3.4-3.3c1-0.6 2-1.1 3-1.5c0.1-0.1 1.3-0.5 1.3-0.3q0 0 2.9 8c3.2 21.5-15.6 26.2-15.6 26.2z" /><path class="s42" d="m452.1 175.9c-1.4-2.5-0.3-3.9 1.2-3.8l-1.7-3l14.8-6.3l5.2 3q1.1 10.3 0 13.5c-0.7 2.1-3.2 6.2-5.2 7c-1.1 0.4-6.1-1.2-8.3-3.4q-1.1-1.1-2.7-5q-1.3 0.7-3.3-2z" /><path class="s43" d="m451.5 173.3q-0.8-1.9-1.3-3.7l6.7-5.9l-1.5 10.8l-2.1-2.4q-1.4-0.1-1.8 1.2z" /><path class="s44" d="m450.8 171.5q-6.2-15.6 6.6-17.9c4-0.7 8.4-0.7 12.1 1.4c4.4 2.6 4 8.7 2.9 13.1z" /><path class="s45" d="m467.8 193.1l1-5.5l4.3 3.6l3.6 12.3l-3.1 20.3l-13.2-2.8l-9.4-21.6l2.1-9.2l5.9-3.8z" /><path class="s46" d="m482.7 246q-12.2 5.3-11.1-7.3l1.1-20.9l0.3-4.9c0.3-0.4 0.4-0.9 0.4-1.4q0 0 0 0q0.1-0.4 0-0.8q0.1-0.3 0-0.6c0.3-0.7 0.3-1.5 0-2.2l1-14.3l1.3 2.2l1.6 2.6q3.5 3.8 3.5 7.2q0 5.6-4.4 13.4l0.7 2.2q4.5 8.9 5.6 24.8z" /><path class="s47" d="m472.8 240.2q-3.9 16.4-24 8.4q-4.4-3.4 0-7.7l4.4-7.9l0.9-1.5l-0.5-10.6l-0.1-3.5l-0.2-6.1l2.8-17.7l13.7 14.9q8.8 0.1 3 31.7z" /><path class="s48" d="m500.2 220.5c2-0.3 6.6 2.2 6.6 4.2q0 0.8-1.5 2q-6.7-1.2-8.1-4.6q2.1-1.4 3-1.6z" /><path class="s49" d="m454.8 154.3q3.8-4.1 8-1.1q3.9 3.8 5.9 11.9l-4.8 1.4q-3.1-11.2-9.1-12.2z" /><path class="s50" d="m559.7 257.2l-10.2 45.1l-0.7 43.8q-10.5 2.9-15-0.9l1-57.5l4.6-46z" /><path class="s42" d="m569.1 155.1q-0.9 2.5-2.9 2.4q-0.8 3.9-1.2 4.8c-1.3 2.7-7.2 6.9-9.5 6.9c-1.5 0-5.1-3.8-6.3-5.8q-1-1.8-3.2-12.9l-0.1-0.2l5.4-4.4l16.4 3.1l-0.2 2q3.4-0.9 1.6 4.1z" /><path class="s51" d="m567.9 148.3l-0.4 2.7l-2 4.7l-0.9 0.4l-1.3-9.1z" /><path class="s52" d="m492.3 221.1l-4.3 2l-1.6-6.3l4.1-2.9z" /><path class="s53" d="m567.8 150.6q0 0 0 0l-3.5-0.5h-19.3q-0.8-2.4 0-6q4.8-11.3 20-6.3c5.7 1.5 5.2 9.9 4.2 12.8z" /><path class="s54" d="m553.7 148.9h-4.9q-0.5-5.5 6.2-12q3.4-3.3 8 0.4q-6.1 1.7-9.3 11.6z" /><path class="s55" d="m466.8 193.6v1l-3.8 4.3l-1.4-0.8z" /><path class="s56" d="m463.1 236.3l-9.5-15.4l-0.1-3.5l0.7 0.5z" /><path class="s57" d="m467.5 219.8l7-1.5l-8.2 4.8l-5.9-19.1z" /><path class="s58" d="m472.4 195.5v1.5l-4.1-2.7q3.2 6.7 5.1 17.9q-2.1-9.8-5.9-18.8l0.4-0.6z" /><path class="s59" d="m467.8 193.1l-6.6 6.5l-8.1-9.4l5.9-3.8z" /><path class="s60" d="m473.1 191.2l-0.2 5.2l-5.1-3.3l1-5.5z" /><path class="s61" d="m464.6 342q6.7 2 12.1 1.9l2.1 2.4l-1.7 1.5q-12.5-3.7-12.5-5.8z" /><path class="s62" d="m476.7 343.9q3.3 1.5 11.2 10.9q-10.8 1.9-19.9-5.2l-1.7 3.2l-1.7-0.6q-2.1-3.3 0-10.2q16.8 8.4 12.1 1.9z" /><path class="s63" d="m454.1 242.3q-0.2-5.2-0.9-9.3l0.9-1.5q0.8 7.4 0 10.8z" /><path class="s64" d="m467 204.8l6 7.5l-10.2-5.4l-2.4-5.6z" /><path class="s65" d="m453.1 190.2q14.6 9.1 20.3 22.1l-10.1-5.8l-1.9-4.5l-2.3-0.2l-1.5-1.8z" /><path class="s66" d="m444.6 202.4q-0.9-2.4-0.5-4.9c0.4-1.9 1.2-3.1 2.6-4.5c1.7-1.5 5-3.5 6.2-3c3.2 1.4 4 4.8 5.1 7.8q1.4 3.5 2.8 7.1q2.5 6.7 5.1 13.3c0 0.1 1.1 2.8 1.1 2.8q0 0 21.9-8l2.6 9l-28.4 14.3q-2.4-4.5-4.9-8.9q-4.5-8.2-9-16.4c-1.5-2.7-3.4-5.5-4.6-8.4q0-0.1 0-0.2z" /><path class="s67" d="m467 221q-3 4.2-2.6 7.2q-0.3-5.7 2.1-8.5z" /><path class="s68" d="m476.4 198.3l0.7 3.2l-3.7 11.1l2.3-16.8l0.6 1z" /><path class="s69" d="m473 191.1l3.2 4.7l-0.5 1.7l0.8 4.1l-3.1 11z" /><path class="s70" d="m458.5 169.1l13.1-3.3c0.1 0.5 0.3 2.6 0.4 5q-1.2-0.2-2.5-0.3q-4.3-0.5-11-1.4z" /><path class="s71" d="m450.8 171.4c-0.5 0.5 20.7-2.9 28.8-4.8q-15.5-9-28.8 4.8z" /><path class="s72" d="m561.2 150.5q-6.2 3.7-11.3 3.7q-1.4 0.5-2.8 1.4l-1.1-5.1z" /><path class="s73" d="m539.5 151.4q6.3-4 16.6-3.7q6.4 0.3 11.7 2.9q-16.6 2-28.3 0.8z" /><path class="s74" d="m553 182.3l-3.5 3.9l0.1 36.1l-2.4-37.2l4.1-4.5l1.3-0.4z" /><path class="s75" d="m542.1 178.4l5.7-1.5q2.1 62.3 3.5 67.1q-1.9 4.4-14.6 1.9z" /><path class="s76" d="m559.8 180.5l1.3 0.6l3.9 4.3l-1.5 3l-4.7-5.9z" /><path class="s77" d="m558 226.8l-6.7-5.4l0.9-1.3l5.9 5.6z" /><path class="s78" d="m556.8 182.3l2.2 24.6l-4.3 8.1l-0.7-1.8z" /><path class="s79" d="m558 207.2l-4 7.6l-4.5-8.1l4.2-22.3l0.4-1.7l0.2-1.4h2.9v1.4l0.1 1.8z" /><path class="s80" d="m557.3 184.5c-1.7 0.7-2.9 0.3-3.6-0.1l0.4-1.7h3.1z" /><path class="s81" d="m552.6 178.2q6.8-0.5 8.2 1.1q-1.6 5-6.1 4.9q-2.6-0.8-2.1-6z" /><path class="s82" d="m556.7 178.7l-3.7 3.6l-0.4-2.1l3.2-2.7z" /><path class="s82" d="m556.7 177.8l3.1 3.5l-1 1.2l-2.9-3.9z" /><path class="s83" d="m556.3 178.1l-8.2 7.4l-0.2-8.6l4.5-3z" /><path class="s84" d="m569.7 172.2l-6.1 14.7l-7.4-8.7l9.7-8.3z" /><path class="s85" d="m574.6 175v1.6l-1.6 22.2l10.6 46q-15.6 6.4-25.7 0q-0.8-61.2 11.9-72.7z" /><path class="s86" d="m558.1 225.7l9 8.3l-9.1-6.1z" /><path class="s87" d="m584 248.6l-19.2 22.3l-32.7-28.2l19.1-22.2z" /><path class="s88" d="m578.4 243.8l-8.7 14l-3.9-1.9l10.9-13.7z" /><path class="s89" d="m568.4 255.4l-3.7 7.3l-5.2 3.6l-1.4-1.2l8.9-11.7z" /><path class="s90" d="m563.2 248.7l-2.6 4.4l-3.4-0.4q4.2-5 4.3-5.1z" /><path class="s91" d="m532.2 208.4q1-0.3 3.4 3.1q-2.8-2.8-4.8-2.9z" /><path class="s92" d="m570.8 250.4l-5.4 8.5q-6.6 7.1-9.3 6.7c-2.2-0.3-8-5.6-8-6.1q0-0.5 2.8-2.1l-0.3-3.2q2.5-2 3.8-2.4q1.2-0.3 4.4 0.6l5.2-6.3z" /><path class="s93" d="m550.8 256.3l3.9-1.4l-3.8 2.5z" /><path class="s94" d="m568.9 253.1l-1.7 2.8q-3.8-1.2-6.6-5.7l1.3-1.8z" /><path class="s95" d="m559.7 246.7c0.1-0.5 0.4-1 0.6-1.4c0.5-0.7 0.8-1.6 1.2-2.4c1.2-2.3 2.5-4.7 3.7-7q2.2-4.2 4.3-8.4q1.8-3.5 3.6-7q0.9-1.7 1.8-3.4c0 0 0 0 0 0q0 0-5.1-25.9q-2.3-11.6 3.5-17.3q11.5 0 12.6 10.3l2 40.4l-18.1 32q-1.4-1.2-2.8-2.4c-1.7-1.5-3.4-3-5.1-4.5q-0.5-0.5-1-0.9c-0.4-0.3-1.2-0.9-1.3-1.3q0-0.4 0.1-0.8z" /><path class="s96" d="m574.9 217.1q3.8-1.1 7.1 2.5q-3.4-3.6-7.9-0.9z" /><path class="s97" d="m503.7 215.1l0.8 1.3q-1.4 1.3-2.7 2.2q-1.3 0.9-2.7 0.4q0.9-0.2 4.6-3.9z" /><path class="s98" d="m514.2 222l-0.3 0.1l-2.4 0.6q-3-2.1-6.2-5.7c0.4 0.4 3.9 3.1 8.9 5z" /><path class="s99" d="m622.9 370.8l9.5 9.5l-9.5 9.4l-9.4-9.4z" /><path class="s100" d="m374.6 51l7.4 7.4l-7.4 7.3l-7.3-7.3z" /><path class="s101" d="m343.8 330l13.1 13.1l-13.1 13.1l-13.1-13.1z" /><path class="s102" d="m55-4.2l-59.6 59.5v-59.5z" /><path class="s103" d="m652 331.1c1.8 0 3.2 1.4 3.2 3.2c0 1.8-1.4 3.2-3.2 3.2c-1.8 0-3.2-1.4-3.2-3.2c0-1.8 1.4-3.2 3.2-3.2z" /><path class="s104" d="m336.6 103c1.7 0 3.2 1.4 3.2 3.2c0 1.8-1.5 3.2-3.2 3.2c-1.8 0-3.3-1.4-3.3-3.2c0-1.8 1.5-3.2 3.3-3.2z" /><path class="s105" d="m379.6 390.1c3.1 0 5.6 2.5 5.6 5.6c0 3.1-2.5 5.7-5.6 5.7c-3.1 0-5.7-2.6-5.7-5.7c0-3.1 2.6-5.6 5.7-5.6z" /><path class="s106" d="m579.2 37.7c2 0 3.6 1.5 3.6 3.5c0 2-1.6 3.6-3.6 3.6c-2 0-3.6-1.6-3.6-3.6c0-2 1.6-3.5 3.6-3.5z" /><path class="s107" d="m669.2 106.2c4.2 0 7.6 3.4 7.6 7.6c0 4.2-3.4 7.6-7.6 7.6c-4.2 0-7.6-3.4-7.6-7.6c0-4.2 3.4-7.6 7.6-7.6z" /><path class="s108" d="m41.9 440.2h-46.5v-81.2c27 17.4 45.1 47.1 46.5 81.2z" /></svg>