<svg version="1.2" xmlns="http://www.w3.org/2000/svg" viewBox="0 0 704 439" width="704" height="439"><defs><linearGradient id="P" gradientUnits="userSpaceOnUse"/><linearGradient id="g1" x1="589" y1="63.8" x2="639.4" y2="-34.5" href="#P"><stop stop-color="#fa7938"/><stop offset="1" stop-color="#ffad49"/></linearGradient><linearGradient id="g2" x1="147" y1="-17.5" x2="715.1" y2="117" href="#P"><stop stop-color="#ffffff"/><stop offset="1" stop-color="#cbd2d0"/></linearGradient><linearGradient id="g3" x1="155.2" y1="30.7" x2="180.6" y2="16.7" href="#P"><stop stop-color="#fa7938"/><stop offset="1" stop-color="#ffad49"/></linearGradient><linearGradient id="g4" x1="295.4" y1="117.5" x2="316.5" y2="107.1" href="#P"><stop offset=".2" stop-color="#f9e3d1"/><stop offset=".6" stop-color="#f1c39e"/></linearGradient><linearGradient id="g5" x1="317.3" y1="110.7" x2="319.9" y2="129.4" href="#P"><stop offset=".5" stop-color="#f1c39e"/><stop offset="1" stop-color="#f9e3d1"/></linearGradient><linearGradient id="g6" x1="319.7" y1="120.4" x2="323" y2="143.9" href="#P"><stop offset=".5" stop-color="#f1c39e"/><stop offset="1" stop-color="#f9e3d1"/></linearGradient><linearGradient id="g7" x1="320" y1="171.6" x2="269.5" y2="147.1" href="#P"><stop offset=".1" stop-color="#fa7938"/><stop offset=".8" stop-color="#ffad49"/></linearGradient><linearGradient id="g8" x1="287.9" y1="152.8" x2="270" y2="138.5" href="#P"><stop offset=".2" stop-color="#fa7938"/><stop offset=".4" stop-color="#ffad49"/></linearGradient><linearGradient id="g9" x1="291.2" y1="77.3" x2="320.5" y2="77.3" href="#P"><stop offset=".5" stop-color="#ffad49"/><stop offset=".8" stop-color="#ff8f29"/></linearGradient><linearGradient id="g10" x1="336.1" y1="102.8" x2="294.2" y2="85.5" href="#P"><stop offset=".1" stop-color="#f1c39e"/><stop offset=".4" stop-color="#f9e3d1"/></linearGradient><linearGradient id="g11" x1="314.7" y1="92.6" x2="322" y2="92.6" href="#P"><stop offset=".2" stop-color="#6c6556"/><stop offset="1" stop-color="#352118"/></linearGradient><linearGradient id="g12" x1="297.2" y1="76" x2="312.7" y2="76" href="#P"><stop offset=".3" stop-color="#ff8f29"/><stop offset=".6" stop-color="#ffad49"/></linearGradient><linearGradient id="g13" x1="327.4" y1="225.6" x2="251.5" y2="197.2" href="#P"><stop offset=".3" stop-color="#1660a3"/><stop offset=".7" stop-color="#3ab3e5"/></linearGradient><linearGradient id="g14" x1="281.1" y1="207.3" x2="312.1" y2="207.3" href="#P"><stop offset="0" stop-color="#3ab3e5"/><stop offset=".8" stop-color="#1660a3"/></linearGradient><linearGradient id="g15" x1="267.6" y1="222.4" x2="348.9" y2="180.1" href="#P"><stop offset=".1" stop-color="#3ab3e5"/><stop offset=".5" stop-color="#1660a3"/></linearGradient><linearGradient id="g16" x1="269.7" y1="314" x2="299.2" y2="314" href="#P"><stop offset=".1" stop-color="#4f585b"/><stop offset=".6" stop-color="#141515"/></linearGradient><linearGradient id="g17" x1="323.4" y1="314" x2="344.8" y2="314" href="#P"><stop offset=".1" stop-color="#4f585b"/><stop offset=".7" stop-color="#141515"/></linearGradient><linearGradient id="g18" x1="279.6" y1="307.3" x2="301.7" y2="307.3" href="#P"><stop offset="0" stop-color="#3ab3e5"/><stop offset=".8" stop-color="#103293"/></linearGradient><linearGradient id="g19" x1="321.7" y1="308" x2="345.8" y2="308" href="#P"><stop offset="0" stop-color="#3ab3e5"/><stop offset=".8" stop-color="#103293"/></linearGradient><linearGradient id="g20" x1="311.4" y1="93.9" x2="313.8" y2="110.4" href="#P"><stop offset=".4" stop-color="#f1c39e"/><stop offset="1" stop-color="#f9e3d1"/></linearGradient><linearGradient id="g21" x1="283.6" y1="91.1" x2="322" y2="91.1" href="#P"><stop offset=".2" stop-color="#ffad49"/><stop offset=".6" stop-color="#ff8f29"/></linearGradient><linearGradient id="g22" x1="320.9" y1="109.3" x2="321.1" y2="110.7" href="#P"><stop offset=".4" stop-color="#f1c39e"/><stop offset="1" stop-color="#f9e3d1"/></linearGradient><linearGradient id="g23" x1="281.1" y1="207.1" x2="282" y2="192.4" href="#P"><stop offset=".1" stop-color="#1e3654"/><stop offset=".6" stop-color="#3ab3e5"/></linearGradient><linearGradient id="g24" x1="334.9" y1="165.2" x2="327.7" y2="207.8" href="#P"><stop stop-color="#1e3654"/><stop offset=".8" stop-color="#1660a3"/></linearGradient><linearGradient id="g25" x1="324.5" y1="172.4" x2="306.6" y2="157" href="#P"><stop stop-color="#1e3654"/><stop offset=".8" stop-color="#1660a3"/></linearGradient><linearGradient id="g26" x1="315.3" y1="122.4" x2="342.6" y2="131.1" href="#P"><stop offset=".3" stop-color="#3ab3e5"/><stop offset=".7" stop-color="#1660a3"/></linearGradient><linearGradient id="g27" x1="295.7" y1="124.1" x2="307.5" y2="128.1" href="#P"><stop offset=".2" stop-color="#ad7c4d"/><stop offset=".8" stop-color="#ff8f29"/></linearGradient><linearGradient id="g28" x1="289" y1="126.2" x2="301.1" y2="126.2" href="#P"><stop offset=".2" stop-color="#3ab3e5"/><stop offset=".7" stop-color="#1f79c1"/></linearGradient><linearGradient id="g29" x1="275" y1="201.4" x2="283.6" y2="201.4" href="#P"><stop offset=".2" stop-color="#603619"/><stop offset="1" stop-color="#352118"/></linearGradient><linearGradient id="g30" x1="269.4" y1="200.3" x2="281.8" y2="201.8" href="#P"><stop offset=".4" stop-color="#603619"/><stop offset=".7" stop-color="#774a28"/></linearGradient><linearGradient id="g31" x1="273.6" y1="198.7" x2="282.3" y2="196.4" href="#P"><stop offset=".1" stop-color="#ad7c4d"/><stop offset=".8" stop-color="#8d5b39"/></linearGradient><linearGradient id="g32" x1="319.2" y1="173.3" x2="316.1" y2="197.5" href="#P"><stop offset=".4" stop-color="#1e3654"/><stop offset=".7" stop-color="#1660a3"/></linearGradient><linearGradient id="g33" x1="259.3" y1="128.1" x2="314.1" y2="128.1" href="#P"><stop stop-color="#dfdabe"/><stop offset=".8" stop-color="#94937d"/></linearGradient><linearGradient id="g34" x1="264.4" y1="152.1" x2="276.5" y2="164.5" href="#P"><stop offset=".2" stop-color="#94937d"/><stop offset=".6" stop-color="#dfdabe"/></linearGradient><linearGradient id="g35" x1="258.6" y1="144.5" x2="268.9" y2="144.5" href="#P"><stop stop-color="#f1c39e"/><stop offset=".6" stop-color="#f9e3d1"/></linearGradient><linearGradient id="g36" x1="314.1" y1="164.1" x2="309.4" y2="177.4" href="#P"><stop offset=".1" stop-color="#564840"/><stop offset=".4" stop-color="#94937d"/></linearGradient><linearGradient id="g37" x1="313.1" y1="148.5" x2="344.7" y2="163.7" href="#P"><stop offset=".3" stop-color="#f9e3d1"/><stop offset=".8" stop-color="#f1c39e"/></linearGradient><linearGradient id="g38" x1="337.5" y1="164.8" x2="332.7" y2="180" href="#P"><stop stop-color="#f9e3d1"/><stop offset=".4" stop-color="#e4b38b"/></linearGradient><linearGradient id="g39" x1="342.2" y1="166.4" x2="330.6" y2="181.7" href="#P"><stop stop-color="#e4b38b"/><stop offset="1" stop-color="#f6d3b7"/></linearGradient><linearGradient id="g40" x1="340.3" y1="172.7" x2="307.2" y2="151.4" href="#P"><stop offset=".2" stop-color="#fa7938"/><stop offset=".8" stop-color="#ffad49"/></linearGradient><linearGradient id="g41" x1="313.8" y1="152.3" x2="313.8" y2="158.1" href="#P"><stop offset=".2" stop-color="#e4b38b"/><stop offset=".6" stop-color="#f9e3d1"/></linearGradient><linearGradient id="g42" x1="343.2" y1="218.6" x2="323.6" y2="247.7" href="#P"><stop offset=".3" stop-color="#1e3654"/><stop offset=".7" stop-color="#1660a3"/></linearGradient><linearGradient id="g43" x1="330" y1="190.6" x2="336.3" y2="224.9" href="#P"><stop offset=".1" stop-color="#ad7c4d"/><stop offset=".5" stop-color="#774a28"/></linearGradient><linearGradient id="g44" x1="343.9" y1="226" x2="317.7" y2="234.6" href="#P"><stop offset=".1" stop-color="#603619"/><stop offset=".5" stop-color="#774a28"/></linearGradient><linearGradient id="g45" x1="337.6" y1="192" x2="339.3" y2="209.7" href="#P"><stop offset=".2" stop-color="#ad7c4d"/><stop offset=".6" stop-color="#8d5b39"/></linearGradient><linearGradient id="g46" x1="315.2" y1="195.9" x2="319.4" y2="195.9" href="#P"><stop offset="0" stop-color="#352118"/><stop offset=".8" stop-color="#603619"/></linearGradient><linearGradient id="g47" x1="152.4" y1="176.3" x2="162.1" y2="194.1" href="#P"><stop offset=".3" stop-color="#fa7938"/><stop offset="1" stop-color="#ffad49"/></linearGradient><linearGradient id="g48" x1="153.4" y1="268.7" x2="179.1" y2="253.8" href="#P"><stop offset=".2" stop-color="#3a3e40"/><stop offset=".7" stop-color="#8a999a"/></linearGradient><linearGradient id="g49" x1="229.1" y1="279.7" x2="207.3" y2="295.1" href="#P"><stop offset=".2" stop-color="#8a999a"/><stop offset=".5" stop-color="#3a3e40"/></linearGradient><linearGradient id="g50" x1="167.5" y1="291.4" x2="149.5" y2="267.2" href="#P"><stop offset=".4" stop-color="#b52c2d"/><stop offset=".8" stop-color="#e33b3a"/></linearGradient><linearGradient id="g51" x1="139.9" y1="157.1" x2="158.6" y2="162" href="#P"><stop offset=".3" stop-color="#f1c39e"/><stop offset="1" stop-color="#f9e3d1"/></linearGradient><linearGradient id="g52" x1="155.7" y1="205.6" x2="201.6" y2="205.6" href="#P"><stop stop-color="#e4b38b"/><stop offset="1" stop-color="#f9e3d1"/></linearGradient><linearGradient id="g53" x1="152.7" y1="177.8" x2="152.3" y2="191.3" href="#P"><stop offset=".3" stop-color="#f1c39e"/><stop offset="1" stop-color="#f9e3d1"/></linearGradient><linearGradient id="g54" x1="133" y1="173.9" x2="171.5" y2="173.9" href="#P"><stop offset=".3" stop-color="#fa7938"/><stop offset="1" stop-color="#ffad49"/></linearGradient><linearGradient id="g55" x1="152.1" y1="204.7" x2="134.1" y2="193.9" href="#P"><stop stop-color="#ad7c4d"/><stop offset=".3" stop-color="#da6824"/></linearGradient><linearGradient id="g56" x1="153.7" y1="188.9" x2="173.5" y2="196.3" href="#P"><stop offset=".2" stop-color="#ad7c4d"/><stop offset=".6" stop-color="#ff8f29"/></linearGradient><linearGradient id="g57" x1="154.4" y1="165.1" x2="160.3" y2="172.9" href="#P"><stop offset=".3" stop-color="#f1c39e"/><stop offset="1" stop-color="#f9e3d1"/></linearGradient><linearGradient id="g58" x1="33.4" y1="307.1" x2="59.5" y2="353.6" href="#P"><stop offset=".3" stop-color="#4f585b"/><stop offset=".8" stop-color="#141515"/></linearGradient><linearGradient id="g59" x1="147.1" y1="338.3" x2="180.5" y2="338.3" href="#P"><stop offset=".3" stop-color="#4f585b"/><stop offset=".8" stop-color="#141515"/></linearGradient><linearGradient id="g60" x1="60.3" y1="353.4" x2="7.1" y2="280.4" href="#P"><stop stop-color="#3ab3e5"/><stop offset=".6" stop-color="#1660a3"/></linearGradient><linearGradient id="g61" x1="47.3" y1="311.1" x2="65.9" y2="347" href="#P"><stop offset=".2" stop-color="#103293"/><stop offset=".8" stop-color="#3ab3e5"/></linearGradient><linearGradient id="g62" x1="66.5" y1="260.8" x2="135.7" y2="230.2" href="#P"><stop offset=".3" stop-color="#1660a3"/><stop offset=".8" stop-color="#3ab3e5"/></linearGradient><linearGradient id="g63" x1="169.3" y1="342.6" x2="141.2" y2="362.7" href="#P"><stop offset="0" stop-color="#3ab3e5"/><stop offset=".8" stop-color="#103293"/></linearGradient><linearGradient id="g64" x1="120.4" y1="244.7" x2="136.5" y2="244.7" href="#P"><stop offset=".4" stop-color="#352118"/><stop offset=".8" stop-color="#603619"/></linearGradient><linearGradient id="g65" x1="125.5" y1="148.7" x2="153.1" y2="131.6" href="#P"><stop offset=".3" stop-color="#f9e3d1"/><stop offset="1" stop-color="#f1c39e"/></linearGradient><linearGradient id="g66" x1="131.9" y1="137.9" x2="140.1" y2="137.9" href="#P"><stop offset=".2" stop-color="#6c6556"/><stop offset="1" stop-color="#352118"/></linearGradient><linearGradient id="g67" x1="132" y1="126.4" x2="161.4" y2="126.4" href="#P"><stop offset=".4" stop-color="#ffad49"/><stop offset="1" stop-color="#ff8f29"/></linearGradient><linearGradient id="g68" x1="140.4" y1="194.1" x2="159.5" y2="194.1" href="#P"><stop offset=".2" stop-color="#1660a3"/><stop offset=".9" stop-color="#3ab3e5"/></linearGradient><linearGradient id="g69" x1="92.7" y1="219.5" x2="84.8" y2="157.8" href="#P"><stop stop-color="#fa7938"/><stop offset=".4" stop-color="#ffad49"/></linearGradient><linearGradient id="g70" x1="193.6" y1="245.3" x2="101.3" y2="272.5" href="#P"><stop offset=".5" stop-color="#1660a3"/><stop offset=".9" stop-color="#3ab3e5"/></linearGradient><linearGradient id="g71" x1="290.3" y1="306.8" x2="239.9" y2="373" href="#P"><stop offset=".3" stop-color="#e33b3a"/><stop offset=".6" stop-color="#b52c2d"/></linearGradient><linearGradient id="g72" x1="239.6" y1="350.6" x2="258.7" y2="350.6" href="#P"><stop offset=".1" stop-color="#a1adaf"/><stop offset=".7" stop-color="#e8ecec"/></linearGradient><linearGradient id="g73" x1="263.1" y1="386.7" x2="221.6" y2="408.5" href="#P"><stop offset=".2" stop-color="#4f585b"/><stop offset=".7" stop-color="#141515"/></linearGradient><linearGradient id="g74" x1="221.7" y1="355.6" x2="237" y2="350.7" href="#P"><stop offset=".4" stop-color="#a1adaf"/><stop offset=".9" stop-color="#e8ecec"/></linearGradient><linearGradient id="g75" x1="0" y1="0" x2="0" y2="0" href="#P"><stop offset=".3" stop-color="#f1c39e"/><stop offset=".6" stop-color="#f9e3d1"/></linearGradient><linearGradient id="g76" x1="141.8" y1="124.5" x2="158.8" y2="124.5" href="#P"><stop stop-color="#ff8f29"/><stop offset=".4" stop-color="#ffad49"/></linearGradient><linearGradient id="g77" x1="196.6" y1="328.5" x2="191.7" y2="282.5" href="#P"><stop offset=".4" stop-color="#352118"/><stop offset=".7" stop-color="#721614"/></linearGradient><linearGradient id="g78" x1="274.9" y1="328.3" x2="259.1" y2="344.4" href="#P"><stop offset=".4" stop-color="#721614"/><stop offset=".7" stop-color="#352118"/></linearGradient><linearGradient id="g79" x1="298.3" y1="314" x2="213.7" y2="378" href="#P"><stop offset=".3" stop-color="#e8ecec"/><stop offset=".7" stop-color="#a1adaf"/></linearGradient><linearGradient id="g80" x1="275.7" y1="319" x2="251.9" y2="378.3" href="#P"><stop offset=".3" stop-color="#e33b3a"/><stop offset=".7" stop-color="#b52c2d"/></linearGradient><linearGradient id="g81" x1="108.6" y1="230.1" x2="77.8" y2="190.8" href="#P"><stop stop-color="#fa7938"/><stop offset=".4" stop-color="#ffad49"/></linearGradient><linearGradient id="g82" x1="152.3" y1="179.7" x2="175.7" y2="179.7" href="#P"><stop offset="0" stop-color="#1f79c1"/><stop offset=".4" stop-color="#3ab3e5"/></linearGradient><linearGradient id="g83" x1="164.7" y1="147.9" x2="155.9" y2="163.1" href="#P"><stop offset=".5" stop-color="#f1c39e"/><stop offset="1" stop-color="#f9e3d1"/></linearGradient><linearGradient id="g84" x1="139.2" y1="141.4" x2="172.9" y2="141.4" href="#P"><stop stop-color="#ffad49"/><stop offset=".5" stop-color="#ff8f29"/></linearGradient><linearGradient id="g85" x1="129.1" y1="266.8" x2="117.2" y2="287.3" href="#P"><stop stop-color="#1e3654"/><stop offset=".8" stop-color="#1660a3"/></linearGradient><linearGradient id="g86" x1="138.7" y1="251.7" x2="121.3" y2="284.1" href="#P"><stop offset=".3" stop-color="#ad7c4d"/><stop offset=".6" stop-color="#774a28"/></linearGradient><linearGradient id="g87" x1="93.4" y1="228.7" x2="117.7" y2="249.4" href="#P"><stop offset=".2" stop-color="#603619"/><stop offset=".6" stop-color="#774a28"/></linearGradient><linearGradient id="g88" x1="107" y1="239.4" x2="121.9" y2="255.8" href="#P"><stop offset=".2" stop-color="#603619"/><stop offset=".6" stop-color="#352118"/></linearGradient><linearGradient id="g89" x1="114" y1="246.4" x2="83.5" y2="267.5" href="#P"><stop offset=".2" stop-color="#8d5b39"/><stop offset=".5" stop-color="#ad7c4d"/></linearGradient><linearGradient id="g90" x1="141.4" y1="203.5" x2="144.7" y2="241.5" href="#P"><stop stop-color="#1e3654"/><stop offset=".6" stop-color="#1660a3"/></linearGradient><linearGradient id="g91" x1="129.7" y1="208.8" x2="180.1" y2="208.8" href="#P"><stop offset=".3" stop-color="#f1c39e"/><stop offset=".6" stop-color="#f9e3d1"/></linearGradient><linearGradient id="g92" x1="354.5" y1="445.1" x2="270.6" y2="382" href="#P"><stop stop-color="#fa7938"/><stop offset=".4" stop-color="#ffad49"/></linearGradient><linearGradient id="g93" x1="-123.2" y1="518.9" x2="122.9" y2="223.7" href="#P"><stop stop-color="#fa7938"/><stop offset=".4" stop-color="#ffad49"/></linearGradient><linearGradient id="g94" x1="372.1" y1="127.7" x2="362.8" y2="115" href="#P"><stop stop-color="#fa7938"/><stop offset="1" stop-color="#ffad49"/></linearGradient><linearGradient id="g95" x1="91.4" y1="419.7" x2="82.1" y2="406.9" href="#P"><stop stop-color="#fa7938"/><stop offset="1" stop-color="#ffad49"/></linearGradient><linearGradient id="g96" x1="248.9" y1="106.2" x2="252.3" y2="100.2" href="#P"><stop stop-color="#fa7938"/><stop offset="1" stop-color="#ffad49"/></linearGradient><linearGradient id="g97" x1="43" y1="55" x2="49.7" y2="43.1" href="#P"><stop stop-color="#fa7938"/><stop offset="1" stop-color="#ffad49"/></linearGradient><linearGradient id="g98" x1="672.2" y1="220.5" x2="867.6" y2="902.7" href="#P"><stop stop-color="#ffffff"/><stop offset="1" stop-color="#cbd2d0"/></linearGradient><linearGradient id="g99" x1="710.4" y1="36.1" x2="697.7" y2="149.3" href="#P"><stop stop-color="#ffffff"/><stop offset="1" stop-color="#cbd2d0"/></linearGradient></defs><style>.s0{fill:#ffffff}.s1{fill:url(#g1)}.s2{fill:url(#g2)}.s3{fill:url(#g3)}.s4{fill:#f5b955}.s5{fill:#929d9b}.s6{fill:#b0b9b7}.s7{fill:#cbd2d0}.s8{opacity: .6;mix-blend-mode: multiply;fill:#cbd2d0}.s9{fill:#788383}.s10{fill:#5d6767}.s11{fill:#413b35}.s12{mix-blend-mode: multiply;fill:#413b35}.s13{fill:#ffd246}.s14{mix-blend-mode: multiply;fill:#cbd2d0}.s15{fill:url(#g4)}.s16{fill:url(#g5)}.s17{fill:url(#g6)}.s18{fill:url(#g7)}.s19{fill:url(#g8)}.s20{fill:url(#g9)}.s21{fill:url(#g10)}.s22{fill:url(#g11)}.s23{fill:url(#g12)}.s24{fill:url(#g13)}.s25{fill:url(#g14)}.s26{fill:url(#g15)}.s27{fill:url(#g16)}.s28{fill:url(#g17)}.s29{fill:url(#g18)}.s30{fill:url(#g19)}.s31{fill:url(#g20)}.s32{fill:url(#g21)}.s33{fill:url(#g22)}.s34{fill:url(#g23)}.s35{fill:url(#g24)}.s36{fill:url(#g25)}.s37{fill:url(#g26)}.s38{fill:url(#g27)}.s39{fill:url(#g28)}.s40{fill:url(#g29)}.s41{fill:url(#g30)}.s42{fill:url(#g31)}.s43{fill:url(#g32)}.s44{fill:url(#g33)}.s45{fill:url(#g34)}.s46{fill:url(#g35)}.s47{fill:url(#g36)}.s48{fill:url(#g37)}.s49{fill:url(#g38)}.s50{fill:url(#g39)}.s51{fill:url(#g40)}.s52{fill:url(#g41)}.s53{fill:url(#g42)}.s54{fill:url(#g43)}.s55{fill:url(#g44)}.s56{fill:url(#g45)}.s57{fill:url(#g46)}.s58{fill:url(#g47)}.s59{fill:url(#g48)}.s60{fill:url(#g49)}.s61{fill:url(#g50)}.s62{fill:url(#g51)}.s63{fill:url(#g52)}.s64{fill:url(#g53)}.s65{fill:url(#g54)}.s66{fill:url(#g55)}.s67{fill:url(#g56)}.s68{fill:url(#g57)}.s69{fill:url(#g58)}.s70{fill:url(#g59)}.s71{fill:url(#g60)}.s72{fill:url(#g61)}.s73{fill:url(#g62)}.s74{fill:url(#g63)}.s75{fill:url(#g64)}.s76{fill:url(#g65)}.s77{fill:url(#g66)}.s78{fill:url(#g67)}.s79{fill:url(#g68)}.s80{fill:url(#g69)}.s81{fill:url(#g70)}.s82{fill:url(#g71)}.s83{fill:url(#g72)}.s84{fill:url(#g73)}.s85{fill:url(#g74)}.s86{fill:url(#g75)}.s87{fill:url(#g76)}.s88{fill:url(#g77)}.s89{fill:url(#g78)}.s90{fill:url(#g79)}.s91{fill:url(#g80)}.s92{mix-blend-mode: multiply;fill:url(#g81)}.s93{fill:url(#g82)}.s94{fill:url(#g83)}.s95{fill:url(#g84)}.s96{fill:url(#g85)}.s97{fill:url(#g86)}.s98{fill:url(#g87)}.s99{fill:url(#g88)}.s100{fill:url(#g89)}.s101{fill:url(#g90)}.s102{fill:url(#g91)}.s103{fill:url(#g92)}.s104{fill:url(#g93)}.s105{fill:url(#g94)}.s106{fill:url(#g95)}.s107{fill:url(#g96)}.s108{fill:url(#g97)}.s109{fill:url(#g98)}.s110{fill:url(#g99)}</style><path class="s0" d="m707.6-3.2v444.4h-711.2v-444.4z" /><path class="s1" d="m707.6-3.2v28c-6.1 1.4-12.5 2.2-19 2.2c-25.5 0-48.2-11.8-63-30.2z" /><path class="s2" d="m405.5 297.4c-6.2 17.5-16.3 34-30.3 48l-95.8 95.8h-283v-444.4h211.2l167.6 167.6c36 35.9 46.1 88 30.3 133z" /><path class="s3" d="m194.9 45.1l-23.5 5.5l-5.4-23.6l23.5-5.4z" /><path class="s4" d="m175.3 103.8h-149.6v-3.7h149.6z" /><path class="s4" d="m178.3 297.4h-6.1v-206.7h6.1z" /><path class="s5" d="m88.6 293.2h-48v-155.2h48z" /><path class="s6" d="m88.6 138h133.7v155.2h-133.7z" /><path class="s7" d="m40.6 289h181.7v4.2h-181.7z" /><path class="s8" d="m40.6 253.1h181.7v4.2h-181.7z" /><path class="s7" d="m39 251h184.9v4.2h-184.9z" /><path class="s6" d="m37.1 293.2h188.8v4.2h-188.8z" /><path class="s9" d="m129.4 173.3h-25.3v-21.5h25.3z" /><path class="s5" d="m129.4 173.3h-3.3v-21.5h3.3z" /><path class="s10" d="m50.5 151.8h28.2v21.5h-28.2z" /><path class="s9" d="m53.6 173.3h-3.1v-21.5h3.1z" /><path class="s10" d="m50.5 185.9h28.2v21.5h-28.2z" /><path class="s9" d="m53.6 207.4h-3.1v-21.5h3.1z" /><path class="s9" d="m168 173.3h-25.2v-21.5h25.2z" /><path class="s5" d="m168 173.3h-3.2v-21.5h3.2z" /><path class="s9" d="m206.7 173.3h-25.2v-21.5h25.2z" /><path class="s5" d="m206.7 173.3h-3.2v-21.5h3.2z" /><path class="s9" d="m129.4 207.4h-25.3v-21.5h25.3z" /><path class="s5" d="m129.4 207.4h-3.3v-21.5h3.3z" /><path class="s9" d="m168 207.4h-25.2v-21.5h25.2z" /><path class="s5" d="m168 207.4h-3.2v-21.5h3.2z" /><path class="s9" d="m206.7 207.4h-25.2v-21.5h25.2z" /><path class="s5" d="m206.7 207.4h-3.2v-21.5h3.2z" /><path class="s9" d="m129.4 241.5h-25.3v-21.5h25.3z" /><path class="s5" d="m129.4 241.5h-3.3v-21.5h3.3z" /><path class="s9" d="m168 241.5h-25.2v-21.5h25.2z" /><path class="s5" d="m168 241.5h-3.2v-21.5h3.2z" /><path class="s9" d="m206.7 241.5h-25.2v-21.5h25.2z" /><path class="s5" d="m206.7 241.5h-3.2v-21.5h3.2z" /><path class="s5" d="m59.6 123.4h12.1v14.6h-31.1v-26.6h19z" /><path class="s6" d="m194.1 117.2h28.2v20.8h-28.2z" /><path class="s5" d="m194.1 138h-18.2v-9.9h18.2z" /><path class="s9" d="m88.6 138h-16.9v-7h16.9z" /><path class="s5" d="m106.9 138h-2.8v-68.4h2.8z" /><path class="s5" d="m82.8 138h-2.7v-68.4h2.7z" /><path class="s5" d="m164.8 138h-2.7v-45.4h2.7z" /><path class="s9" d="m144.2 138h-2.7v-45.4h2.7z" /><path class="s4" d="m22.7 58.7h6v238.7h-6z" /><path class="s5" d="m56.3 138h-2.7v-40.1h2.7z" /><path class="s4" d="m93.3 82.2h6.1v215.2h-6.1z" /><path class="s4" d="m232.5 58.7h6v238.7h-6z" /><path class="s4" d="m96.4 123.9h-70.7v-3.7h70.7z" /><path class="s4" d="m236 111.4h-63.1v-3.8h63.1z" /><path class="s4" d="m233.1 145.6h-136.7v-3.7h136.7z" /><path class="s6" d="m204.5 138h-2.7v-45.4h2.7z" /><path class="s11" d="m380 230.3v67.1h-10.1v-67.1z" /><path class="s11" d="m274 230.3v67.1h-10.1v-67.1z" /><path class="s11" d="m374.9 265.7v10h-106v-10z" /><path class="s12" d="m263.9 230.3h10.1v22.6h-10.1z" /><path class="s12" d="m380 230.3v22.6h-10.1v-22.6z" /><path class="s13" d="m394.1 247.4h-144.4v-29.2h144.4z" /><path class="s11" d="m249.7 237.7l10.6-19.5h13.7l-15.8 29.2h-8.5z" /><path class="s11" d="m289.5 247.4h-13.7l15.8-29.2h13.7z" /><path class="s11" d="m320.9 247.4h-13.7l15.8-29.2h13.7z" /><path class="s11" d="m352.2 247.4h-13.7l15.9-29.2h13.7z" /><path class="s11" d="m394.2 227.9l-10.6 19.5h-13.7l15.8-29.2h8.5z" /><path class="s14" d="m306.2 325.7c30.2 0 54.7 2.9 54.7 6.6c0 3.7-24.5 6.6-54.7 6.6c-30.2 0-54.7-2.9-54.7-6.6c0-3.7 24.5-6.6 54.7-6.6z" /><path class="s15" d="m318.9 129l-4.2 6.6l-3.2 3.4l-1.9 2h-8.5v-24l14.3-2l1 4z" /><path class="s16" d="m316.4 119l-8.5 6.5c-1 0.8-2.3 1-3.5 0.6l-3.3-1v-8.1l14.3-2z" /><path class="s17" d="m318.9 129l-4.2 6.6l-3.2 3.4l-10.4 0.9v-11.9q2.6 9.1 17.8 1z" /><path class="s18" d="m301.1 128q0.3 13 17.8 1l7.8-1.1l-1.7 34.4l-30.6-4q-3.9-19.8 6.7-30.3z" /><path class="s19" d="m297.8 130l-5.9 13.4l-5.8 6.6l-1.9-6.6q-1.5-16.4 12-14.5z" /><path class="s20" d="m292.3 100.3l-1.9-3.9q-1-22.3 22.3-16.1q11.7 3.4 9.3 17.1h-3.1z" /><path class="s21" d="m322.2 103.3q1.1 4.8-3.3 6.3l-1.1 4.2c-0.4 1.7-1.4 3.1-2.7 4.2l-7.2 5.3c-1 0.8-2.3 0.9-3.4 0.3l-7-3.8c-2.1-1.2-3.5-3.3-3.7-5.7l-0.4-5.4l-0.7-8.6l-0.2-2.5l19.3-3l6.3 7.1q3.3-1.9 4.1 1.6z" /><path class="s22" d="m322 97.4l-0.4 2.1l-0.4 2.1c-1.2-0.9-2.8-0.1-3.1 0.1q0 0 0 0l-3.4 5.6v-12.7z" /><path class="s23" d="m302.8 79.7q5.5-4.1 9.9 0.6q-10.8 7.3-9.9 15.7l-6.2 0.9q-0.8-12.8 6.2-17.2z" /><path class="s24" d="m330.4 207.1h-46.8v-60.6l17.5-1.2h22.3l2.7 28l0.9 7.3l1.4 10.9z" /><path class="s25" d="m281.1 313.1l1.5-99.8l0.6-1.3l27-2.7l1.9 22.6l-5.9 14.8c-3.2 6.5-5.7 54.3-5.7 67.2z" /><path class="s26" d="m323.3 313.7l-29.3-102.8l29.5-1.6l1.3 2.6l4.1 7.6l2.1 13.6l13 80z" /><path class="s27" d="m298.1 316.9l1.1 16l-32 1.1q-3.8-16.9 13.3-14.6q4-3.4 5.1-3.4q1.2 0 12.5 0.9z" /><path class="s28" d="m342.7 316.8q6 2.4 2.8 17.2h-23.7q-7.5-7.4 6.5-18z" /><path class="s29" d="m279.9 309l21.8 2l-0.9 6.7q-11.5 2.3-21.2-1.6z" /><path class="s30" d="m321.7 313.4l22.8-3.5l1.3 8.2q-13.8 3-23 2z" /><path class="s31" d="m310.2 99.3q-5.7 3.9-13.6 6.6q-1.7 1.2-3.2 2.8l-0.7-8.6z" /><path class="s32" d="m283.6 101q7.4 5.3 38.4-3.6q-15.7-12.1-38.4 3.6z" /><path class="s33" d="m318.7 110.5l-1.2 0.7l1.4-1.6z" /><path class="s34" d="m303.1 202.9l-15.3 4.2h-4.2v-8c3.1 1.2 11.7 4.2 19.5 3.8z" /><path class="s35" d="m328.4 191.5q-9.5-6.2-13.2-21.9v-4l11.8 13.7z" /><path class="s36" d="m322.2 167.8l-5.8-9.9l7-12.8l0.5 5.5l0.9 9.2v5.2z" /><path class="s37" d="m326.7 127.9q-1.6 1.9-4.7 27.9q-5.4 6.4-9.3 0.8q-0.8-5.7 8-28z" /><path class="s38" d="m301.1 128q-2.9 10.5-2 15.4h-3.3l-1.4-1.7l3.4-11.7z" /><path class="s39" d="m301.1 128q-4.3 5-6.9 24.6q-4.8 4.1-6.3 0q-1.7-5.9 8.8-24.6z" /><path class="s40" d="m282.6 224.4l-7.6-0.5l2.6-19.7l6-0.8z" /><path class="s41" d="m276.1 203.8l2.1-0.4l-0.5 1.1l-2.7 19.4l-1.1-4.9l1.1-13.6z" /><path class="s42" d="m283.6 203.4l-6 1.1l-3 0.6l3.8-5.7q4.7-0.2 5.2 0z" /><path class="s43" d="m284.1 173l27.2-9.2l3.9 24.9q-3.3 3-28 2.8q-0.6-0.6-1.3-4.1z" /><path class="s44" d="m305 132l9.1 55.4q-32.3 5.4-45-2.5c-6.5-9-9.5-49.9-9.8-54.4q0-0.3 0-0.5q27.9 21.5 45.7 2z" /><path class="s45" d="m266.3 157l0.8 2.7q-2 0.3-3.4 7.6l-1.4-8.4z" /><path class="s46" d="m260.8 146.8c1.7-0.9 4.7-0.6 7.3 3.2c0.6 0.9 0.9 2.3 0.9 3.6c0.1 2.3-1.3 4.3-3.3 5.4c-1.4 0.8-2.8 2.2-2.6 4.8q-9.3-3.4-5.8-13.6q1.7-2.5 3.5-3.4z" /><path class="s47" d="m310.5 164.9l0.3 2.4q-4.9-0.7-6.1-1.2q-0.7-0.4-1.7-1.7z" /><path class="s48" d="m338 164.1q0 0.2-0.1 0.4q-0.2 2.5-0.6 5c-1.2 7.6-3.4 14.3-4.8 18c-0.6 1.5-2.5 2-3.7 0.9q-3.3-2.8-6.6-6.8q-3.7-7.3-7.8-16q-10.3 0.1-11.4-1.2c-1.4-1.6-2.1-5.4-1.3-7q0.9-1.7 7.1-2.2l-0.1-0.8l-0.7-3.8l6 2c1.8 0.5 3.3 1.8 4.1 3.4l0.8 1.6l5.1 6.4l1.5-4.5l0.6-1.9l0.1-0.4l6.4 3.7l5 3z" /><path class="s49" d="m324.6 162.2q3.4 3.8 7.3 13.5q-2.7-5.1-7.9-11.7z" /><path class="s50" d="m337.9 164.5q-0.2 2.5-0.6 5h-0.1q-9.1-4.3-11.6-9.3l-0.1-0.7l-0.7-2.5l1.3 0.6l6.5 3.3l4.6 2.4l0.4 0.6z" /><path class="s51" d="m326.7 127.9q8.1-1.9 14.6 6.6c3.8 5.1-0.4 31-1.7 33.3l-17.4-9.4q2.5-5.7 3.4-10q-1.5-13.3 1.1-20.5z" /><path class="s52" d="m311.8 154.4l-3 0.8l-0.1-0.8z" /><path class="s53" d="m331 233.1q-6-3.2-9.7-3.7l-7.2-2.2v-15.2l10.7-0.1l4.1 7.6z" /><path class="s54" d="m283.6 203.4l46.2-1.4v9.5q-23.9 10.3-47.2 1.8z" /><path class="s55" d="m336 196.6q-0.6 1.7 1.2 25.2l-3.5 5.4h-11.5l-7-2.9v-26.4z" /><path class="s56" d="m336 196.6l-9.3 8.5l-11.5-7.2z" /><path class="s57" d="m319.4 200.6v25.5l-4.2-1.8v-26.4z" /><path class="s14" d="m198.8 362.4c0 4.6-41.6 8.4-92.8 8.4c-51.3 0-92.9-3.8-92.9-8.4c0-4.7 41.6-8.5 92.9-8.5c51.2 0 92.8 3.8 92.8 8.5z" /><path class="s14" d="m291.3 391.2c0 3-23.1 5.3-51.7 5.3c-28.5 0-51.6-2.3-51.6-5.3c0-2.9 23.1-5.3 51.6-5.3c28.6 0 51.7 2.4 51.7 5.3z" /><path class="s58" d="m153 181.6l-0.4 2.6l-8.9 7.4q-11.7 0-11.5-16.8q11 0.5 20.8 6.8z" /><path class="s59" d="m191.5 298.8c0.9 1.2 0.7 2.8-0.3 3.6c-1.1 0.8-2.7 0.5-3.5-0.6l-25.3-33c-0.8-1.2-0.7-2.7 0.4-3.6c1.1-0.8 2.6-0.5 3.5 0.6z" /><path class="s60" d="m221 280.5c0.7 1 0.7 2.4-0.2 3.1c-0.9 0.7-2.2 0.4-3-0.7l-22.9-29.9c-0.8-1-0.7-2.4 0.2-3c0.9-0.7 2.2-0.4 3 0.6z" /><path class="s61" d="m208.1 246.1c0.8 1.7 0 3.9-1.9 4.7l-46.7 22.2c-1.9 0.8-4 0.1-4.9-1.7c-0.8-1.7 0-3.9 1.9-4.7l46.7-22.2c1.9-0.8 4-0.1 4.9 1.7z" /><path class="s62" d="m154.3 163l-0.2 1l-1.5 8l-2 10.3l-1.8 9l-13.8-6.4l1.2-7.9l1.7-11.1l0.8-4.9l0.1-0.6z" /><path class="s63" d="m168.3 207.6l7.9 18l14.1 18.8q4.6-2.4 7.4-0.3q1.6 1.1 3.9 6.8c0.8 1.3 0.3 3-1.1 3.7l-5.2 2.6c-0.6 0.3-1.4 0-1.6-0.7c-0.7-2.2-2.4-6.5-3.9-5.7q-0.7 0.3-2.6 1.2l-19.9-17.1l-11.6-20.2z" /><path class="s64" d="m150.6 182.3l-1.8 9l-13.8-6.4l1.2-7.9c3 3.1 8.6 7.5 14.4 5.3z" /><path class="s65" d="m133 175.9q10.5 14.1 20 5.7l8.8 7.7l8.1 14.9l1.6 3.6l-17.2 9.2l-18.2-20.6l-3.1-8.2v-11.8" /><path class="s66" d="m154.3 181.9l1.4 21l-5-1.3q1.7-4.6 2.3-20z" /><path class="s67" d="m160.2 192.7q2.1 9.5-2.6 19.9q-0.4 1.1-1.1 3.2l-2.2 1.2l-2-2.3z" /><path class="s68" d="m138.2 164.4l15.3 2.8l-1.6 8.1l-1.4 0.7c-0.7 0.4-1.6 0.3-2.4-0.1l-10.7-6.3z" /><path class="s69" d="m52.8 340.3q6 12.1-11 20l-11.7-32.3l12.3-4.5z" /><path class="s70" d="m158.6 343q15.6-7.8 21.9 4.5l-27.1 17.4l-6.3-14.2z" /><path class="s71" d="m99.3 310.5l-41.3 26l0.3 0.4c-0.6 0.4-1 1-1.5 1.5q-0.5 0.2-0.9 0.3c-0.8 0.3-1.5 0.8-2 1.3q-0.4 0.2-0.7 0.3c0-1.3-0.6-2.6-1.7-3.3q-0.1-0.2-0.2-0.4c-0.3-1.1-0.8-2-1.4-2.9c-1.4-2.3-1.7-5.1-2.7-7.5c-0.5-1-1.4-1.7-2.5-2q-0.1-1-0.4-1.9q0.2-0.2 0.5-0.4c1.4-0.3 2.8-1.2 3.7-2.4l36.2-26.9l4.1-41.6l18.6 7.7l5.3 19.1l2.2 17.2z" /><path class="s72" d="m48.5 319.5l9.5 17l0.7 1l-5.8 3.4q-7.8-7.2-11.6-17.9l6.7-4.8z" /><path class="s73" d="m95.2 250.3l30.9 14.2q7.4 29.9 35.7 77.4l-13.8 10.7l-61.8-96.5z" /><path class="s74" d="m159.7 335.9l3.1 5.3q-5.1 7.3-15.7 11.4l-4-5.4z" /><path class="s75" d="m130.3 246.7l6.2 6.2l-6.2 17.8l-6.5-3.7l-3.4-2.3z" /><path class="s76" d="m164.6 150.8l-0.3 3.9l-1.5 8.9c-0.3 1.8-1.4 3.5-3 4.4l-9.1 5.5c-1 0.6-2.3 0.5-3.3-0.2l-7.1-5.1c-1.3-1-2.1-2.5-2.1-4.1v-1.4h-0.7c-1.8 0-3.5-1.1-4.3-2.9q-2-4.6-1.6-5.6q1.9-3.8 4.8-0.9l3.7-6.8l3.1-6.6l11.5 1.6l8.8 3.2l0.5 3z" /><path class="s77" d="m140.1 146.5l-0.2 1.9l-0.7 9.2l-2.8-4.3q-2.1-2.1-3.9-0.4c-0.2-1-0.5-2.8-0.6-4.8l0.6-0.8l5.8-7.4z" /><path class="s78" d="m163.9 147.2l-24 1.2l-0.7 0.1q0 0 0 0c-1.4 0.9-3.1 1.4-4.8 1.4h-2.3q-0.1-0.8-0.2-1.8q0-0.4 0-0.8c-0.2-6.7 1.6-16.4 13.3-18.6q22.3-3.9 18.7 18.5z" /><path class="s79" d="m142.4 196.1l17.1 6.9l-10.6 21.7l-8.5-16.3z" /><path class="s80" d="m148 209.8l-21.6 9.6l-2.4-5.2l-28.8 7.9l4.1-7.9q19.7-43.9 31.8-42.1q7.9-1.3 10.3 18.7z" /><path class="s81" d="m95.2 222.1q2.5-6.9 3.5-6.9c1.1 0.1 9.5 4.2 24.5-4.8l0.8 3.8l2.4 5.2l7.7-3.5l8.1 20.2l-14.1 26.5l-29.3-13.1l-11.2-10.9z" /><path class="s82" d="m192.1 295.6l27.3-17.2l52.5 54.2l-6.7 11.2q-63.3 9.4-73.1-48.2z" /><path class="s83" d="m250.4 352.6l-7.3 27.8h-3.5l3.5-22.8z" /><path class="s84" d="m250.8 383.8c0 5.1-4.2 9.4-9.4 9.4c-5.2 0-9.4-4.3-9.4-9.4c0-5.2 4.2-9.5 9.4-9.5c5.2 0 9.4 4.3 9.4 9.5z" /><path class="s85" d="m234.6 356.5q0.5 1.7 1.1 3.5c1.6 5 3.2 10.1 4.7 15.2c0.7 2.3 1.4 4.6 2.1 6.8c0.8 2.4 1.2 3.2-1.5 3.2c-3 0-3-1.4-4.2-3.9c-4-8.1-7.4-16.6-11.1-24.8z" /><path class="s86" d="" /><path class="s87" d="m141.8 129.9q4.6-6.6 9.8-1.5q4.9 4.4 7.2 16.3l-6.5 0.7q-1.8-14.7-10.5-15.5z" /><path class="s88" d="m230.9 298.3l-2.3 1.5l-22 15.3l-10.7-12.2l23.6-14.3z" /><path class="s89" d="m258.4 325.4l7.9 8.8l-13.5 12.5l-3.8-11.2z" /><path class="s90" d="m198.8 311.4q45.6-29.7 56.6-24.6q11.1 5 2.2 58.8z" /><path class="s91" d="m186.1 301.5l6-5.9q29.5 40.3 73.1 48.2q-14.6 24.1-48.8 17.4q-26-6.4-30.3-59.7z" /><path class="s92" d="m110.6 215.6q-8.5 1.3-11.9-0.4q15 2.4 22.9-5.7q-0.3-4.2-0.8-15.8q0.1 4.2 2.4 16.7q-5.2 3.9-12.6 5.2z" /><path class="s93" d="m153 181.6l2.5 0.5c3.1 0.7 5.3 3.4 5.3 6.5c0.1 4.9-0.2 12.2-2.5 16.9q-5.6 1.7-6-4.3q2.8-18 0.7-19.6z" /><path class="s94" d="m140.9 148.3q1.8 7.4 23.5 1.6z" /><path class="s95" d="m139.2 148.5q18.1-11.8 33.7-0.6q-14.7 5.6-33.7 0.6z" /><path class="s96" d="m101.5 254.9l24.4 13.4q-16-0.7-27.2-5.7z" /><path class="s97" d="m131.2 258.7v2.8l-5.3 6.8q-24-2.1-41.2-21.6l2.9-8.1z" /><path class="s98" d="m94.5 234.3l3.8 1.2l12.3 10.9l-13.3 21.2h-7.1l-10.9-7.2l1.1-4.7z" /><path class="s99" d="m110.6 246.4l-13.3 21.2h-7.1l15.7-25.4z" /><path class="s100" d="m98.3 235.5l12.3 10.9h-16.1v-12.1z" /><path class="s101" d="m123.2 210.4l0.8 3.8l2.4 5.2l7.7-3.5l8.1 20.2l-1.8 3.4l-7.9-19l-6.6 1.6l-4.3-10.6z" /><path class="s102" d="m178.2 265.2l-7.2 3.1c-0.5 0.3-1.1 0.4-1.5-0.1q1-8.2-4.1-5.9q-1.1 0.5-4.6 2.2l-20.4-26.6l-10.7-20l16.1-7.1l6 20.6l15.4 24.7q8.5-1.4 10.8 0.3c1 0.8 1.8 2.7 2.3 4.4c0.5 1.8-0.4 3.7-2.1 4.4z" /><path fill-rule="evenodd" class="s103" d="m369.9 387.5c0 17-13.8 30.8-30.8 30.8c-16.9 0-30.8-13.8-30.8-30.8c0-17 13.9-30.8 30.8-30.8c17 0 30.8 13.8 30.8 30.8zm-7.5 0c0-12.8-10.4-23.3-23.3-23.3c-12.8 0-23.3 10.5-23.3 23.3c0 12.8 10.5 23.3 23.3 23.3c12.9 0 23.3-10.5 23.3-23.3z" /><path class="s104" d="m37.1 437.6q0 1.8-0.1 3.6h-40.6v-62.7c23.8 9.1 40.7 32.2 40.7 59.1z" /><path class="s105" d="m381.9 110.3l-5 10.9l-10.8-5.1l5-10.8z" /><path class="s106" d="m101.3 402.3l-5.1 10.8l-10.8-5l5-10.8z" /><path class="s107" d="m260.1 105.1c0 2-1.6 3.6-3.6 3.6c-2 0-3.6-1.6-3.6-3.6c0-1.9 1.6-3.5 3.6-3.5c2 0 3.6 1.6 3.6 3.5z" /><path class="s108" d="m63.3 51.8c0 3.9-3.1 7.1-7 7.1c-3.9 0-7.1-3.2-7.1-7.1c0-3.8 3.2-7 7.1-7c3.9 0 7 3.2 7 7z" /><path class="s109" d="m707.6 339.7v101.5h-85.2l-6.9-13.3c-9.1-17.6-2.2-39.4 15.4-48.5z" /><path class="s110" d="m707.6 43.8h-276.2v-2.3h276.2z" /><path class="s0" d="m488.4 314.2h2.8v3.3q-0.6 0.4-1.3 0.6q-0.7 0.2-1.5 0.2q-1 0-1.8-0.3q-0.9-0.3-1.4-0.8q-0.6-0.5-0.9-1.3q-0.3-0.7-0.3-1.6q0-0.9 0.3-1.6q0.3-0.8 0.8-1.3q0.6-0.5 1.4-0.8q0.8-0.3 1.7-0.3q0.6 0 1 0.1q0.4 0 0.8 0.2q0.4 0.1 0.7 0.3q0.3 0.2 0.6 0.4l-0.5 0.8q-0.1 0.1-0.3 0.2q-0.2 0-0.4-0.1q-0.2-0.1-0.4-0.2q-0.2-0.1-0.4-0.2q-0.3-0.1-0.5-0.1q-0.3 0-0.6 0q-0.6 0-1 0.1q-0.5 0.2-0.8 0.6q-0.4 0.3-0.5 0.8q-0.2 0.5-0.2 1.1q0 0.7 0.2 1.2q0.2 0.5 0.5 0.8q0.4 0.4 0.9 0.6q0.4 0.2 1 0.2q0.5 0 0.8-0.1q0.3-0.1 0.6-0.2v-1.4h-0.9q-0.2 0-0.3 0q-0.1-0.1-0.1-0.3z" /><path class="s0" d="m495.2 311.7v2h2.7v1.2h-2.7v2.1h3.5v1.3h-5.2v-7.9h5.2v1.3z" /><path class="s0" d="m506.6 311.7h-2.4v6.6h-1.7v-6.6h-2.4v-1.3h6.5z" /><path class="s0" d="m516.1 311.9q-0.1 0.1-0.2 0.2q0 0-0.2 0q-0.1 0-0.2-0.1q-0.2 0-0.4-0.1q-0.2-0.1-0.4-0.2q-0.3-0.1-0.6-0.1q-0.6 0-0.9 0.2q-0.3 0.3-0.3 0.7q0 0.3 0.2 0.4q0.1 0.2 0.4 0.3q0.3 0.2 0.6 0.3q0.3 0.1 0.7 0.2q0.3 0.1 0.7 0.2q0.3 0.2 0.6 0.4q0.2 0.3 0.4 0.6q0.2 0.4 0.2 0.9q0 0.5-0.2 1q-0.2 0.4-0.6 0.8q-0.4 0.3-0.9 0.5q-0.6 0.2-1.2 0.2q-0.4 0-0.8 0q-0.4-0.1-0.8-0.2q-0.3-0.2-0.6-0.4q-0.3-0.2-0.6-0.4l0.5-0.8q0.1-0.1 0.2-0.1q0.1-0.1 0.2-0.1q0.1 0 0.3 0.1q0.2 0.2 0.4 0.3q0.2 0.1 0.5 0.2q0.3 0.1 0.7 0.1q0.6 0 0.9-0.2q0.4-0.3 0.4-0.8q0-0.3-0.2-0.5q-0.2-0.2-0.4-0.3q-0.3-0.1-0.6-0.2q-0.4-0.1-0.7-0.2q-0.4-0.1-0.7-0.3q-0.3-0.1-0.6-0.4q-0.2-0.2-0.4-0.6q-0.2-0.4-0.2-0.9q0-0.5 0.2-0.9q0.2-0.4 0.5-0.7q0.4-0.3 0.9-0.5q0.5-0.2 1.2-0.2q0.7 0 1.4 0.2q0.6 0.2 1 0.6z" /><path class="s0" d="m524.5 311.7h-2.4v6.6h-1.7v-6.6h-2.4v-1.3h6.5z" /><path fill-rule="evenodd" class="s0" d="m532.8 318.3h-1.3q-0.3 0-0.4-0.1q-0.1-0.1-0.2-0.3l-0.6-1.5h-3.2l-0.6 1.5q0 0.1-0.2 0.2q-0.1 0.2-0.3 0.2h-1.4l3.2-7.9h1.8zm-2.9-3l-0.9-2.4q0-0.2-0.1-0.5q-0.1-0.2-0.2-0.5q-0.1 0.3-0.2 0.5q0 0.3-0.1 0.5l-0.9 2.4z" /><path fill-rule="evenodd" class="s0" d="m540.9 318.3h-1.5q-0.4 0-0.6-0.4l-1.6-2.4q-0.1-0.1-0.2-0.2q-0.1 0-0.3 0h-0.6v3h-1.7v-7.9h2.6q0.8 0 1.4 0.1q0.6 0.2 1 0.5q0.4 0.3 0.6 0.7q0.2 0.5 0.2 1q0 0.4-0.1 0.7q-0.2 0.4-0.4 0.7q-0.2 0.2-0.5 0.5q-0.3 0.2-0.8 0.3q0.2 0.1 0.4 0.2q0.1 0.2 0.2 0.3zm-4-4.1q0.4 0 0.7-0.1q0.3-0.1 0.5-0.3q0.2-0.2 0.3-0.4q0.1-0.3 0.1-0.5q0-0.6-0.4-0.9q-0.4-0.3-1.2-0.3h-0.8v2.5z" /><path class="s0" d="m548.2 311.7h-2.4v6.6h-1.7v-6.6h-2.4v-1.3h6.5z" /><path class="s0" d="m551.8 311.7v2h2.7v1.2h-2.7v2.1h3.5v1.3h-5.3v-7.9h5.3v1.3z" /><path fill-rule="evenodd" class="s0" d="m564.7 314.3q0 0.9-0.3 1.6q-0.3 0.7-0.8 1.2q-0.6 0.6-1.4 0.9q-0.7 0.3-1.7 0.3h-3.1v-7.9h3.1q1 0 1.7 0.3q0.8 0.3 1.4 0.8q0.5 0.5 0.8 1.2q0.3 0.8 0.3 1.6zm-1.7 0q0-0.6-0.2-1.1q-0.1-0.5-0.5-0.8q-0.3-0.4-0.7-0.6q-0.5-0.1-1.1-0.1h-1.4v5.3h1.4q0.6 0 1.1-0.2q0.4-0.2 0.7-0.5q0.4-0.4 0.5-0.9q0.2-0.5 0.2-1.1z" /></svg>