<svg version="1.2" xmlns="http://www.w3.org/2000/svg" viewBox="0 0 4200 3300" width="4200" height="3300"><defs><linearGradient id="P" gradientUnits="userSpaceOnUse"/><linearGradient id="g1" x1="1557.9" y1="-318.6" x2="4303.8" y2="1351.9" href="#P"><stop stop-color="#ffe2e4"/><stop offset="1" stop-color="#a4b8ea"/></linearGradient><linearGradient id="g2" x1="706.4" y1="625.9" x2="1770" y2="1246" href="#P"><stop stop-color="#ffe2e4"/><stop offset="1" stop-color="#a4b8ea"/></linearGradient><linearGradient id="g3" x1="1387.3" y1="2348" x2="753.7" y2="2166.4" href="#P"><stop stop-color="#ffe2e4"/><stop offset="1" stop-color="#a4b8ea"/></linearGradient><linearGradient id="g4" x1="858.5" y1="1759.3" x2="1578.1" y2="2406.2" href="#P"><stop stop-color="#ffe2e4"/><stop offset="1" stop-color="#a4b8ea"/></linearGradient><linearGradient id="g5" x1="3815.8" y1="2033.1" x2="3250.3" y2="2457.8" href="#P"><stop stop-color="#ffe2e4"/><stop offset="1" stop-color="#a4b8ea"/></linearGradient><linearGradient id="g6" x1="4246.8" y1="1425.9" x2="3342.4" y2="2127.8" href="#P"><stop stop-color="#ffe2e4"/><stop offset="1" stop-color="#a4b8ea"/></linearGradient><linearGradient id="g7" x1="1540.6" y1="496.3" x2="1696" y2="496.3" href="#P"><stop stop-color="#798ed8"/><stop offset="1" stop-color="#4259c1"/></linearGradient><linearGradient id="g8" x1="934.4" y1="1236.7" x2="934.4" y2="535" href="#P"><stop stop-color="#4259c1"/><stop offset="1" stop-color="#0f23a3"/></linearGradient><linearGradient id="g9" x1="-410.4" y1="593.3" x2="2862.3" y2="593.3" href="#P"><stop stop-color="#798ed8"/><stop offset="1" stop-color="#4259c1"/></linearGradient><linearGradient id="g10" x1="3181.2" y1="722.6" x2="3181.2" y2="9267.3" href="#P"><stop stop-color="#ffe2e4"/><stop offset="1" stop-color="#ffc1c2"/></linearGradient><linearGradient id="g11" x1="2305.2" y1="2203" x2="2305.2" y2="5542.7" href="#P"><stop stop-color="#b8c7ee"/><stop offset="1" stop-color="#a3b7e9"/></linearGradient><linearGradient id="g12" x1="2305.2" y1="1546.9" x2="2305.2" y2="3529.9" href="#P"><stop stop-color="#b8c7ee"/><stop offset="1" stop-color="#a3b7e9"/></linearGradient><linearGradient id="g13" x1="2305.2" y1="1104.9" x2="2305.2" y2="2480.8" href="#P"><stop stop-color="#b8c7ee"/><stop offset="1" stop-color="#a3b7e9"/></linearGradient><linearGradient id="g14" x1="1853.5" y1="2076.7" x2="1853.5" y2="4059.8" href="#P"><stop stop-color="#b8c7ee"/><stop offset="1" stop-color="#a3b7e9"/></linearGradient><linearGradient id="g15" x1="1853.5" y1="1546.9" x2="1853.5" y2="3529.9" href="#P"><stop stop-color="#b8c7ee"/><stop offset="1" stop-color="#a3b7e9"/></linearGradient><linearGradient id="g16" x1="1491.4" y1="2076.7" x2="1491.4" y2="4059.8" href="#P"><stop stop-color="#b8c7ee"/><stop offset="1" stop-color="#a3b7e9"/></linearGradient><linearGradient id="g17" x1="1491.4" y1="1546.9" x2="1491.4" y2="3529.9" href="#P"><stop stop-color="#b8c7ee"/><stop offset="1" stop-color="#a3b7e9"/></linearGradient><linearGradient id="g18" x1="3029.3" y1="2076.7" x2="3029.3" y2="4059.8" href="#P"><stop stop-color="#b8c7ee"/><stop offset="1" stop-color="#a3b7e9"/></linearGradient><linearGradient id="g19" x1="3029.3" y1="1546.9" x2="3029.3" y2="3529.9" href="#P"><stop stop-color="#b8c7ee"/><stop offset="1" stop-color="#a3b7e9"/></linearGradient><linearGradient id="g20" x1="2667.2" y1="2076.7" x2="2667.2" y2="4059.8" href="#P"><stop stop-color="#b8c7ee"/><stop offset="1" stop-color="#a3b7e9"/></linearGradient><linearGradient id="g21" x1="2667.2" y1="1546.9" x2="2667.2" y2="3529.9" href="#P"><stop stop-color="#b8c7ee"/><stop offset="1" stop-color="#a3b7e9"/></linearGradient><linearGradient id="g22" x1="2322.1" y1="2770.2" x2="2449" y2="2667.5" href="#P"><stop stop-color="#7a8fd8"/><stop offset="1" stop-color="#435ac2"/></linearGradient><linearGradient id="g23" x1="2352.3" y1="2773.3" x2="2445.7" y2="2697.6" href="#P"><stop stop-color="#435ac2"/><stop offset="1" stop-color="#0f24a4"/></linearGradient><linearGradient id="g24" x1="2221" y1="2812.5" x2="2322.6" y2="2750.1" href="#P"><stop stop-color="#7a8fd8"/><stop offset="1" stop-color="#435ac2"/></linearGradient><linearGradient id="g25" x1="2263.5" y1="2793.1" x2="2286.1" y2="2779.3" href="#P"><stop stop-color="#435ac2"/><stop offset="1" stop-color="#0f24a4"/></linearGradient><linearGradient id="g26" x1="1877.8" y1="2640.1" x2="1883.3" y2="2694.3" href="#P"><stop stop-color="#7a8fd8"/><stop offset="1" stop-color="#435ac2"/></linearGradient><linearGradient id="g27" x1="2756.6" y1="2531.6" x2="2765.9" y2="2622.5" href="#P"><stop stop-color="#7a8fd8"/><stop offset="1" stop-color="#435ac2"/></linearGradient><linearGradient id="g28" x1="1818.7" y1="2610.5" x2="1831.5" y2="2735.2" href="#P"><stop stop-color="#fbd77f"/><stop offset="1" stop-color="#f4b214"/></linearGradient><linearGradient id="g29" x1="2031.9" y1="2559.7" x2="2050.5" y2="2741.7" href="#P"><stop stop-color="#435ac2"/><stop offset="1" stop-color="#0f24a4"/></linearGradient><linearGradient id="g30" x1="1929.4" y1="2570.2" x2="1947.9" y2="2751.1" href="#P"><stop stop-color="#435ac2"/><stop offset="1" stop-color="#0f24a4"/></linearGradient><linearGradient id="g31" x1="2729.2" y1="2910.3" x2="2341.1" y2="2988.4" href="#P"><stop stop-color="#7a8fd8"/><stop offset="1" stop-color="#435ac2"/></linearGradient><linearGradient id="g32" x1="2740.7" y1="2974.3" x2="2667.5" y2="2989" href="#P"><stop stop-color="#435ac2"/><stop offset="1" stop-color="#0f24a4"/></linearGradient><linearGradient id="g33" x1="2622.7" y1="2939.7" x2="2599.3" y2="2944.5" href="#P"><stop stop-color="#7a8fd8"/><stop offset="1" stop-color="#435ac2"/></linearGradient><linearGradient id="g34" x1="2580.8" y1="2948.2" x2="2557.4" y2="2952.9" href="#P"><stop stop-color="#7a8fd8"/><stop offset="1" stop-color="#435ac2"/></linearGradient><linearGradient id="g35" x1="2538.9" y1="2956.6" x2="2515.5" y2="2961.3" href="#P"><stop stop-color="#7a8fd8"/><stop offset="1" stop-color="#435ac2"/></linearGradient><linearGradient id="g36" x1="2497" y1="2965" x2="2473.6" y2="2969.8" href="#P"><stop stop-color="#7a8fd8"/><stop offset="1" stop-color="#435ac2"/></linearGradient><linearGradient id="g37" x1="2455.1" y1="2973.5" x2="2431.7" y2="2978.2" href="#P"><stop stop-color="#7a8fd8"/><stop offset="1" stop-color="#435ac2"/></linearGradient><linearGradient id="g38" x1="2849.7" y1="987" x2="3263.2" y2="933.3" href="#P"><stop stop-color="#7a8fd8"/><stop offset="1" stop-color="#435ac2"/></linearGradient><linearGradient id="g39" x1="2916.6" y1="2783.5" x2="3028.4" y2="2771.8" href="#P"><stop stop-color="#435ac2"/><stop offset="1" stop-color="#0f24a4"/></linearGradient><linearGradient id="g40" x1="2902.5" y1="2285.1" x2="3036.1" y2="2244.2" href="#P"><stop stop-color="#435ac2"/><stop offset="1" stop-color="#0f24a4"/></linearGradient><linearGradient id="g41" x1="2940.6" y1="1989.2" x2="3045.6" y2="2058.2" href="#P"><stop stop-color="#798ed8"/><stop offset="1" stop-color="#4259c1"/></linearGradient><linearGradient id="g42" x1="2902.6" y1="2043.8" x2="3071.6" y2="2019.2" href="#P"><stop stop-color="#fbd77f"/><stop offset="1" stop-color="#f4b214"/></linearGradient><linearGradient id="g43" x1="2996.1" y1="2056.3" x2="3069.5" y2="2032.1" href="#P"><stop stop-color="#798ed8"/><stop offset="1" stop-color="#4259c1"/></linearGradient><linearGradient id="g44" x1="2786.4" y1="1626.8" x2="2903.8" y2="1674.5" href="#P"><stop stop-color="#fbd77f"/><stop offset="1" stop-color="#f4b214"/></linearGradient><linearGradient id="g45" x1="2786.4" y1="1626.8" x2="2903.8" y2="1674.5" href="#P"><stop stop-color="#435ac2"/><stop offset="1" stop-color="#0f24a4"/></linearGradient><linearGradient id="g46" x1="2710.7" y1="1448.5" x2="2945.3" y2="1543.9" href="#P"><stop stop-color="#798ed8"/><stop offset="1" stop-color="#4259c1"/></linearGradient><linearGradient id="g47" x1="2681.8" y1="1851.6" x2="2822.7" y2="1909" href="#P"><stop stop-color="#435ac2"/><stop offset="1" stop-color="#0f24a4"/></linearGradient><linearGradient id="g48" x1="2664.2" y1="1390.4" x2="2733.2" y2="1418.5" href="#P"><stop stop-color="#4259c1"/><stop offset="1" stop-color="#0f23a3"/></linearGradient><linearGradient id="g49" x1="2765.8" y1="1443.4" x2="3144.2" y2="1597.3" href="#P"><stop stop-color="#435ac2"/><stop offset="1" stop-color="#0f24a4"/></linearGradient><linearGradient id="g50" x1="3001.4" y1="1815.7" x2="2961.5" y2="1862.5" href="#P"><stop stop-color="#fbd77f"/><stop offset="1" stop-color="#f4b214"/></linearGradient><linearGradient id="g51" x1="3024.3" y1="1831.3" x2="2995.8" y2="1811.6" href="#P"><stop stop-color="#fbd77f"/><stop offset="1" stop-color="#f4b214"/></linearGradient><linearGradient id="g52" x1="2958.2" y1="1847" x2="2942.6" y2="1869.1" href="#P"><stop stop-color="#fbd77f"/><stop offset="1" stop-color="#f4b214"/></linearGradient><linearGradient id="g53" x1="1520" y1="440.3" x2="1457.8" y2="483" href="#P"><stop stop-color="#435ac2"/><stop offset="1" stop-color="#0f24a4"/></linearGradient><linearGradient id="g54" x1="1572.4" y1="508.2" x2="1349.3" y2="566.4" href="#P"><stop stop-color="#435ac2"/><stop offset="1" stop-color="#0f24a4"/></linearGradient><linearGradient id="g55" x1="1395" y1="320.8" x2="1349.6" y2="364.8" href="#P"><stop stop-color="#435ac2"/><stop offset="1" stop-color="#0f24a4"/></linearGradient><linearGradient id="g56" x1="1443.1" y1="331.5" x2="1321.6" y2="337.1" href="#P"><stop stop-color="#fbd77f"/><stop offset="1" stop-color="#f4b214"/></linearGradient><linearGradient id="g57" x1="1476.9" y1="356.2" x2="1326.2" y2="326.2" href="#P"><stop stop-color="#fbd77f"/><stop offset="1" stop-color="#f4b214"/></linearGradient><linearGradient id="g58" x1="1407.8" y1="358.3" x2="1319.7" y2="374.7" href="#P"><stop stop-color="#798ed8"/><stop offset="1" stop-color="#4259c1"/></linearGradient><linearGradient id="g59" x1="1415.8" y1="150.6" x2="1442.4" y2="196.9" href="#P"><stop stop-color="#fbd77f"/><stop offset="1" stop-color="#f4b214"/></linearGradient><linearGradient id="g60" x1="1393.5" y1="160.8" x2="1421.3" y2="148.3" href="#P"><stop stop-color="#fbd77f"/><stop offset="1" stop-color="#f4b214"/></linearGradient><linearGradient id="g61" x1="1447.3" y1="185" x2="1457.2" y2="206.5" href="#P"><stop stop-color="#fbd77f"/><stop offset="1" stop-color="#f4b214"/></linearGradient><linearGradient id="g62" x1="1308.5" y1="2167.2" x2="1157.5" y2="2239.2" href="#P"><stop stop-color="#798ed8"/><stop offset="1" stop-color="#4259c1"/></linearGradient><linearGradient id="g63" x1="1191.1" y1="2300.2" x2="1036.7" y2="2302.2" href="#P"><stop stop-color="#4259c1"/><stop offset="1" stop-color="#0f23a3"/></linearGradient><linearGradient id="g64" x1="1071.9" y1="2749" x2="945.1" y2="2728.4" href="#P"><stop stop-color="#4259c1"/><stop offset="1" stop-color="#0f23a3"/></linearGradient><linearGradient id="g65" x1="1156.5" y1="2339.7" x2="995.7" y2="2323.3" href="#P"><stop stop-color="#fbd77f"/><stop offset="1" stop-color="#f4b214"/></linearGradient><linearGradient id="g66" x1="1126.7" y1="2078.2" x2="1065.2" y2="2037" href="#P"><stop stop-color="#798ed8"/><stop offset="1" stop-color="#4259c1"/></linearGradient><linearGradient id="g67" x1="997.7" y1="1520.7" x2="1343.6" y2="1366.3" href="#P"><stop stop-color="#435ac2"/><stop offset="1" stop-color="#0f24a4"/></linearGradient><linearGradient id="g68" x1="1348" y1="1736.7" x2="1527.5" y2="2138.9" href="#P"><stop stop-color="#fbd77f"/><stop offset="1" stop-color="#f4b214"/></linearGradient><linearGradient id="g69" x1="1087.2" y1="1807.2" x2="1128.4" y2="1853.1" href="#P"><stop stop-color="#fbd77f"/><stop offset="1" stop-color="#f4b214"/></linearGradient><linearGradient id="g70" x1="1064.7" y1="1823.3" x2="1092.7" y2="1803" href="#P"><stop stop-color="#fbd77f"/><stop offset="1" stop-color="#f4b214"/></linearGradient><linearGradient id="g71" x1="1131.4" y1="1837.5" x2="1147.6" y2="1859.3" href="#P"><stop stop-color="#fbd77f"/><stop offset="1" stop-color="#f4b214"/></linearGradient></defs><style>.s0{fill:#ffffff}.s1{opacity: .4;fill:url(#g1)}.s2{fill:url(#g2)}.s3{fill:url(#g3)}.s4{fill:url(#g4)}.s5{fill:url(#g5)}.s6{fill:url(#g6)}.s7{fill:url(#g7)}.s8{fill:url(#g8)}.s9{fill:url(#g9)}.s10{fill:url(#g10)}.s11{fill:url(#g11)}.s12{fill:url(#g12)}.s13{fill:url(#g13)}.s14{fill:url(#g14)}.s15{fill:url(#g15)}.s16{fill:url(#g16)}.s17{fill:url(#g17)}.s18{fill:url(#g18)}.s19{fill:url(#g19)}.s20{fill:url(#g20)}.s21{fill:url(#g21)}.s22{fill:url(#g22)}.s23{fill:url(#g23)}.s24{fill:url(#g24)}.s25{fill:url(#g25)}.s26{fill:url(#g26)}.s27{fill:url(#g27)}.s28{fill:url(#g28)}.s29{fill:url(#g29)}.s30{fill:url(#g30)}.s31{fill:url(#g31)}.s32{fill:url(#g32)}.s33{fill:url(#g33)}.s34{fill:url(#g34)}.s35{fill:url(#g35)}.s36{fill:url(#g36)}.s37{fill:url(#g37)}.s38{fill:url(#g38)}.s39{fill:#efbc90}.s40{fill:#f4caab}.s41{fill:#03053e}.s42{fill:url(#g39)}.s43{fill:url(#g40)}.s44{fill:url(#g41)}.s45{fill:#dbc6af}.s46{fill:url(#g42)}.s47{fill:url(#g43)}.s48{fill:url(#g44)}.s49{fill:url(#g45)}.s50{fill:url(#g46)}.s51{fill:url(#g47)}.s52{fill:url(#g48)}.s53{fill:url(#g49)}.s54{fill:url(#g50)}.s55{fill:url(#g51)}.s56{fill:url(#g52)}.s57{fill:url(#g53)}.s58{fill:url(#g54)}.s59{fill:url(#g55)}.s60{fill:url(#g56)}.s61{fill:url(#g57)}.s62{fill:url(#g58)}.s63{fill:url(#g59)}.s64{fill:url(#g60)}.s65{fill:url(#g61)}.s66{fill:url(#g62)}.s67{fill:#edba8e}.s68{fill:#f1c8a9}.s69{fill:url(#g63)}.s70{fill:url(#g64)}.s71{fill:#d9c4ad}.s72{fill:url(#g65)}.s73{fill:url(#g66)}.s74{fill:url(#g67)}.s75{fill:url(#g68)}.s76{fill:url(#g69)}.s77{fill:url(#g70)}.s78{fill:url(#g71)}</style><path class="s0" d="m4200 3300h-4200v-3300h4200z" /><path class="s1" d="m3750.1 2118.5c-157 682.5-837.4 1108.7-1520.1 952q-31.7-7.3-62.6-16.1c-216.2-61.2-444.2-70.5-663.4-20.9c-138.3 31.3-285.9 32.3-433.4-2.7c-514.4-122.2-832.6-634.4-714.3-1149.8c35.9-156.4 108.1-295.1 205.7-409.2c157.2-183.6 264.9-404.5 307.4-642.4q4.1-23.1 9.7-46.2c99.1-409.4 509.8-659.6 919.2-560.2c94.3 22.9 180.3 62.5 255.6 115c183 127.8 393.8 209.5 615.3 237.1c42.8 5.3 85.6 12.8 128.5 22.7c682.4 156.6 1109.3 838.3 952.4 1520.7z" /><path class="s2" d="m607.9 1496.9c119.4-19.8-380.3-657.7-101.8-810.9q7.6-4.2 15-7.6h0.1c9.2-4.3 18.2-7.6 26.8-10.1c239.3-68.3 264.4 522.1 348.2 585.3c88.4 66.6 162.2-345.9 351.2-211.3c182.4 129.8-37.3 700.7 53.7 716c91 15.3 165.9-453.3 353.7-173c187.7 280.2-96.8 738.4-107.9 743.1c-384.9 164.5-901.3 85.7-958.2-72.1c-61.3-170.3 269.8-117.5 272.6-179.5c2.9-62-641.3-236.3-562.4-551.1c40.1-159.5 189.6-8.9 309-28.8z" /><path class="s3" d="m1013.9 2038.8c-105.6-161.6-151.4-347.5-230.8-517.6q-79.5-170-178.6-291.6q176.6 71 379.3 345.5q202.6 274.4 411.7 773.2q-221.9-65.1-381.6-309.5z" /><path class="s4" d="m1009 2171.7c-89.7-101.1-140.4-225.1-212.9-334.7q-72.4-109.7-153.5-183.7q129.5 31.1 298 200.3q168.5 169.3 364.4 493.3q-160.3-22.3-296-175.2z" /><path class="s5" d="m3062.3 2128.2c55.6-29.3 97.4 16.7 136.4-4c39-20.7 34.5-120.8 97-141.3c62.5-20.5 97.6 30.1 138.6 21.6c41-8.5 120.3-136.6 167.8-137.8c52.5-1.4 46.6 77.7 113.8 44.2c52.3-26 134.5-48.9 153 7.8c17.3 53.1-66.5 96.2-129.8 129.4c-74.7 39.2-34.3 64.9-64.1 93c-29.9 28.1-149.7-6.2-196.7 2.3c-47.1 8.5-4.3 84-57.3 106.2c-44.6 18.7-143.6-16.9-176.5 2.9c-32.9 19.8-30 75.5-68.8 92.6c-42.1 18.4-113.6-2.4-150-19.2q-19-168.4 36.6-197.7z" /><path class="s6" d="m2825 1977.6c58-99.6 167.9-68.7 208.4-138.8c40.5-70.2-63.8-221.8 13.6-314.5c77.4-92.7 181.2-48.1 236.8-101.2c55.6-53.1 54.4-329.6 127.1-377.8c80.3-53.3 148.1 75.6 220.2-42c56-91.2 161.8-206.9 245.7-136.6c78.8 65.9-9.9 214.5-76 327.7c-78.1 133.8 9.7 134.5-9.5 207.2c-19.2 72.8-239 135.9-303.9 195c-64.9 59.1 75 135 14.2 221c-51.3 72.6-240.1 113.5-272.1 176.3c-32 62.8 26.9 146.7-17 211.1c-47.6 69.6-179.1 106.9-252.2 116.1q-193.4-243.9-135.3-343.5z" /><path class="s7" d="m1689.7 767.3h-146v-269h146z" /><path class="s8" d="m2999 661.1l317 571.9h-2379.6l317.1-571.9z" /><path class="s9" d="m2827.2 1233h-1401.9l700.9-637.7z" /><path class="s10" d="m3179.2 1233v1280.9h-2105.9v-1280.9h489.8l563.1-512.3l563.1 512.3z" /><path class="s11" d="m2303.2 2513.9h-354v-621.7h354z" /><path class="s12" d="m2303.2 1731.5h-354v-369.2h354z" /><path class="s13" d="m2303.2 1162.1v70.9h-354v-70.9c0-102.3 79.3-185.3 177-185.3c97.8 0 177 83 177 185.3z" /><path class="s14" d="m1851.5 2261.3h-264.3v-369.1h264.3z" /><path class="s15" d="m1851.5 1731.5h-264.3v-369.2h264.3z" /><path class="s16" d="m1489.4 2261.3h-264.2v-369.1h264.2z" /><path class="s17" d="m1489.4 1731.5h-264.2v-369.2h264.2z" /><path class="s18" d="m3027.3 2261.3h-264.3v-369.1h264.3z" /><path class="s19" d="m3027.3 1731.5h-264.3v-369.2h264.3z" /><path class="s20" d="m2665.2 2261.3h-264.2v-369.1h264.2z" /><path class="s21" d="m2665.2 1731.5h-264.2v-369.2h264.2z" /><path class="s22" d="m2509.4 2725.9c31.9 39.4 25.8 97.2-13.6 129.1c-39.4 31.9-97.2 25.8-129.1-13.6c-31.9-39.4-25.8-97.2 13.6-129.1c39.4-31.9 97.2-25.8 129.1 13.6z" /><path class="s23" d="m2477.3 2735.4l16.1 19.9c2.2 2.7 1.8 6.6-0.9 8.8l-27.6 22.4l22.3 27.6c2.2 2.7 1.8 6.7-0.9 8.8l-19.9 16.1c-2.7 2.2-6.6 1.8-8.8-0.9l-22.4-27.6l-27.6 22.4c-2.7 2.2-6.7 1.7-8.9-1l-16.1-19.8c-2.1-2.7-1.7-6.7 1-8.9l27.6-22.3l-22.4-27.7c-2.2-2.7-1.7-6.6 1-8.8l19.8-16.1c2.7-2.2 6.7-1.8 8.9 0.9l22.3 27.6l27.7-22.3c2.7-2.2 6.6-1.8 8.8 0.9z" /><path class="s24" d="m2361.9 2798c19.6 32.1 9.6 74-22.5 93.6c-32 19.6-73.9 9.6-93.5-22.4c-19.7-32-9.6-73.9 22.4-93.6c32-19.6 73.9-9.6 93.6 22.4z" /><path class="s25" d="m2291 2786.8l48.7 79.4c2.4 3.9 2 8.5-0.9 10.3l-12.6 7.7c-2.9 1.8-7.1 0.1-9.5-3.8l-48.7-79.4c-2.4-3.9-2-8.5 0.9-10.3l12.6-7.6c2.9-1.8 7.2-0.1 9.5 3.7z" /><path class="s26" d="m1883.6 2694.3l-5.6-54.3l701-71.7l5.5 54.2z" /><path class="s27" d="m2660.5 2633.2l-76-10.7l-5.5-54.2l72.2-25.9l105.3 7.7l5.6 54.3z" /><path class="s28" d="m1831.7 2735.2l-12.7-124.7l172-17.6l12.8 124.7z" /><path class="s29" d="m2029.9 2744.8l-23.6 2.4c-10.9 1.2-20.5-6.7-21.7-17.6l-14.8-144.6c-1.1-10.9 6.8-20.6 17.7-21.7l23.5-2.4c10.9-1.1 20.6 6.8 21.7 17.6l14.8 144.7c1.1 10.8-6.8 20.5-17.6 21.6z" /><path class="s30" d="m1927.4 2755.3l-450.9 46.2c-30.9 3.1-58.5-19.3-61.6-50.2l-7.4-72.2c-3.2-30.8 19.3-58.4 50.1-61.5l450.9-46.2c10.9-1.1 20.6 6.8 21.7 17.6l14.8 144.7c1.1 10.8-6.8 20.5-17.6 21.6z" /><path class="s31" d="m2330.9 2934.9l34.8-55.1l343.5-69.1l19.6 97.6l-343.5 69.1l-53.4-37.4c-1.6-1.1-2.1-3.4-1-5.1z" /><path class="s32" d="m2663.3 2971.6l-39-193.9c-1.9-9.5 4.2-18.7 13.7-20.6l40.9-8.3c9.5-1.9 18.7 4.3 20.6 13.7l39 194c1.9 9.4-4.2 18.6-13.7 20.5l-40.9 8.3c-9.5 1.9-18.7-4.2-20.6-13.7z" /><path class="s33" d="m2597.5 2936.2l-20.2-100.5c-0.8-3.8 1.7-7.6 5.6-8.4l10.1-2c3.8-0.8 7.6 1.7 8.4 5.6l20.2 100.5c0.8 3.8-1.7 7.6-5.6 8.4l-10.1 2c-3.8 0.8-7.6-1.7-8.4-5.6z" /><path class="s34" d="m2555.6 2944.6l-20.2-100.4c-0.8-3.9 1.7-7.6 5.6-8.4l10.1-2.1c3.8-0.7 7.6 1.8 8.4 5.6l20.2 100.5c0.7 3.9-1.7 7.6-5.6 8.4l-10.1 2c-3.9 0.8-7.6-1.7-8.4-5.6z" /><path class="s35" d="m2513.7 2953.1l-20.2-100.5c-0.8-3.9 1.7-7.6 5.6-8.4l10.1-2c3.8-0.8 7.6 1.7 8.3 5.6l20.3 100.4c0.7 3.9-1.8 7.7-5.6 8.4l-10.1 2.1c-3.9 0.7-7.6-1.8-8.4-5.6z" /><path class="s36" d="m2471.8 2961.5l-20.2-100.5c-0.8-3.8 1.7-7.6 5.6-8.4l10-2c3.9-0.8 7.7 1.7 8.4 5.6l20.3 100.5c0.7 3.8-1.8 7.6-5.6 8.4l-10.1 2c-3.9 0.8-7.6-1.7-8.4-5.6z" /><path class="s37" d="m2429.9 2969.9l-20.2-100.4c-0.8-3.9 1.7-7.6 5.5-8.4l10.1-2.1c3.9-0.7 7.6 1.8 8.4 5.6l20.2 100.5c0.8 3.9-1.7 7.6-5.5 8.4l-10.1 2c-3.9 0.8-7.6-1.7-8.4-5.6z" /><path fill-rule="evenodd" class="s38" d="m3461.3 2560.5q-1.6 0.3-3.1 0.3c-6.9 0-13.1-4.8-14.5-11.9l-46.9-227.3h-244.2l45.6 221.3c1.7 8.1-3.5 15.9-11.5 17.6q-1.6 0.3-3.1 0.3c-6.9 0-13.1-4.8-14.5-11.9l-49.1-238.1q-0.3-1.1-0.4-2.2l-34.2-166.1q-0.3-0.8-0.4-1.6l-34.2-166.3q-0.3-0.8-0.4-1.7l-34.2-166.3q-0.3-0.8-0.4-1.7l-34.3-166.2q-0.2-0.9-0.3-1.8l-34.2-166q-0.3-1-0.5-2.1l-34.1-165.9q-0.3-1-0.5-2.1l-34.1-165.8q-0.3-1.1-0.5-2.2l-26.5-128.7c-1.6-8 3.5-15.9 11.6-17.5c8-1.7 15.9 3.5 17.5 11.5l24.3 117.9h244.3l-23.1-111.9c-1.6-8 3.5-15.9 11.6-17.5c8-1.7 15.9 3.5 17.5 11.5l318.3 1544.8c1.7 8.1-3.5 15.9-11.5 17.6zm-349.4-436.7h244.2l-28.5-138.2h-244.2zm77.3-810.1h-244.2l28.5 138.2h244.2zm-209.6 168l28.4 138.2h244.3l-28.5-138.2zm34.6 167.9l28.5 138.3h244.2l-28.5-138.3zm34.7 168l28.4 138.3h244.3l-28.5-138.3zm-138.4-671.9l28.4 138.3h244.3l-28.5-138.3zm480.4 1146.1l-28.5-138.2h-244.3l28.5 138.2z" /><path class="s39" d="m2999.4 1964.2h28.7v89.8h-47z" /><path class="s40" d="m3018.3 1874.1c31 10.7 39.5 39.4 22 77.8c-16.6 36.5-52.8 56.5-73.7 48.9c-22.3-8-28.1-45.2-20.2-82.1c8.7-40.5 39.1-55.9 71.9-44.6z" /><path class="s41" d="m3011.9 1861.1c34.2 2.7 53.1 33.6 50.9 64.3q-2 28.5-32.6 43.8q-10.1-29-26.6-33.6c-23.1-6.5-13.1-27.1-23.9-29.3c-11.2-2.3-35.6-11.3-35.2-27.6c15.8 0.6 29.1-20.6 67.4-17.6z" /><path class="s40" d="m3022.9 1934.6c5.1 2.3 7 9.2 4.3 15.4c-2.8 6.1-9.2 9.3-14.4 7c-5.1-2.3-7-9.2-4.3-15.4c2.8-6.2 9.2-9.3 14.4-7z" /><path class="s41" d="m3011.9 1935q-2.5 39.9-10.2 55c-6.6 13.2-35.5 26.8-51.3-4.5q16 3.4 14.2-3.4q-2.2-7.9-18.6-8q-3.2-0.2-3.8-3.1q-0.8-4.4 1.3-11.5q21.7 7.7 31.1 7.7c10.6 0 20.2-7.5 29.2-32.2z" /><path class="s39" d="m2874.7 2814l43.2-241.5l29.3-119l29.6-119.3l10-40.5l84.7 27l-15.3 38.9l-44.7 113.2c-14.8 37.8-29.9 75.5-44.5 113.5l-72.6 232.5l-3 9.7l-18.5-4.5z" /><path class="s39" d="m3030.8 2294.7l3.3 41.6l19.1 235.8l178.4 83.6l9.2 4.4l-6.8 17.5l-9.7-2.9l-204.5-61.8c-7.5-2.3-13.7-8.6-15.4-16.8l-0.7-3.4l-52.1-244.3l-8.6-40.9z" /><path class="s42" d="m2929.2 2780.1l-53.1-7.2l49.5-473.2l158.3-30.8z" /><path class="s43" d="m3073.9 2564.3q9.3 13.9 120.5 58.9l-15.9 45.4q-147.7-35.4-174.3-56.4q-47.8-37.8-72.3-334l159.8 22.3q-27.9 248.7-17.8 263.8z" /><path class="s40" d="m3030.7 2088.9l-137.3 120.5l-0.6 0.6c-5.2 4.6-13.1 5.2-19.1 1l-107.6-76.6l-9.8-6.9l12.9-19.4l10.2 6.4l112.1 69.8l-19.7 1.5l131.6-126.5z" /><path class="s44" d="m3051.1 2099.4c-22.9 36.6-111.4 110.4-169.5 115.5q-34.5 3.1-95.5-60.6l16.5-29.8q46.7 46.2 80.9 24.5c34.3-21.7 102.7-99.3 129.7-99.1c23.8 0.3 48.2 33 37.9 49.5z" /><path class="s45" d="m3091.8 2302.2l-176.9-2.4q30.2-94.1 41.2-130.8q11-36.7 19.5-126.8q24.6 14.4 49.3-7.2c40.7 91.7 71.7 185.1 66.9 267.2z" /><path class="s46" d="m3033.4 2027.7q85.6 128 68.2 264.6q7.3 26.9-89.8 23.2q-97.2-3.7-102.7-17.1c30.7-73.3 54.6-156.3 66.5-256.2q36.3 1.4 57.8-14.5z" /><path class="s40" d="m2995.4 2073.7l36.2-20l9.1 18c11.8 22.9 22.5 45.7 32.7 69.2c5.1 11.7 9.9 23.6 14.4 35.8c4.4 12.2 8.5 24.5 11.6 37.9c0.8 3.4 1.5 6.9 2 10.4l1.3 9.8c0.7 6.5 1.3 12.9 1.8 19.3c1 12.7 1.7 25.4 2.2 38c1.1 25.3 1.5 50.4 1.6 75.7v12l-23.3 0.6l-0.7-12c-1.4-24.7-3.3-49.6-5.7-74.3c-1.3-12.3-2.7-24.6-4.3-36.8c-0.8-6.1-1.8-12.1-2.8-18l-1.6-8.8c-0.6-2.7-1.2-5.3-2-8c-3.1-10.8-7.4-22.1-12.2-33.2c-4.7-11.1-9.9-22.2-15.3-33.2c-10.9-21.9-22.7-43.9-34.9-65z" /><path class="s47" d="m3047.8 2050.2c30.8 30.1 48.6 98.6 61.8 155.5q13.1 56.8 2.4 143.2l-35.4 1.5q-2-87.8-16-125.9c-13.9-38.1-75.2-121.5-69.2-147.8c5.3-23.2 42.5-40.1 56.4-26.5z" /><path class="s40" d="m2769.5 2126c-4.7 6.8-19.5 8.1-33.7-2.6c-15.3-11.5-21.8-27.1-17.6-34.2c6.5-11 61.7 21.4 51.3 36.8z" /><path class="s40" d="m3097.2 2369.8c8.4 0 18 14.9 17.5 37.4c-0.6 24.5-9.5 42.5-17.8 43.1c-12.7 1-18.3-80.6 0.3-80.5z" /><path class="s40" d="m3078.7 2416c-3.5-1.1-5.1-10.9-2.3-23.1c2.5-11.3 8.4-17.7 12-16.8c8 1.8-4.4 41.6-9.7 39.9z" /><path class="s41" d="m2804 2840.5q12.2-3.2 15.6-4.4q13.5-4.9 48.4-19.2q4.3 7 15.1 8.3c8 1 13.8-1.9 14.1-1.9c3.4-0.1 6.4 5.5 6.6 12.5c0.1 2.2-0.2 4.4-0.6 6.3l0.3 9.6l-103.1 3.1l-0.3-9.8c-0.1-2.2 1.6-4.2 3.9-4.5z" /><path class="s41" d="m3227.6 2749.6q0.4-12.6 0.3-16.2q-0.8-14.4-4.3-52q7.9-2.1 12.4-12c3.2-7.3 2.2-13.8 2.3-14c0.9-3.3 7.1-4.5 13.8-2.7c2.2 0.6 4.2 1.5 5.8 2.5l9.4 2.5l-27.1 99.5l-9.5-2.6c-2.2-0.6-3.5-2.8-3.1-5z" /><path class="s48" d="m2658.6 2277.6l-117.4-47.8l244.5-601.2l117.4 47.8z" /><path class="s49" d="m2867.7 1763.4l-117.4-47.7l35.4-87.1l117.4 47.8z" /><path class="s50" d="m2901.9 1650.7l-234.6-95.4l42.7-104.9l234.6 95.4z" /><path class="s51" d="m2817.8 1926.2l-140.5 345.7c-10.7 26.2-40.6 38.8-66.8 28.2l-50.5-20.6c-26.2-10.6-38.8-40.5-28.2-66.7l140.6-345.7c3.7-9.1 14-13.4 23-9.7l112.7 45.8c9.1 3.7 13.4 14 9.7 23z" /><path class="s52" d="m2726.7 1440.8l-54 133c-5.2 12.6-19.5 18.7-32.1 13.6l-26.9-11c-12.6-5.1-18.7-19.5-13.6-32.1l54.1-133c5.1-12.5 19.5-18.6 32.1-13.5l26.9 11c12.6 5.1 18.7 19.4 13.5 32z" /><path class="s53" d="m3057.6 1768.3l-65.3-51.5c-4-3.1-8.8-4.9-13.8-5.2l-146.1-8.7c-5.4-0.4-10.5-2.5-14.6-6l-103.2-89.2c-8-6.9-10.7-18.1-6.7-27.9l46.4-114.1c5.1-12.5 19.5-18.6 32-13.5l249.4 101.4c7.9 3.2 13.6 10.4 15 18.9l29.3 182.6c2 12.6-12.4 21-22.4 13.2z" /><path class="s40" d="m2742 2084.5c2.8-2.2 11.8 2 20.3 11.2c7.8 8.5 9.7 17 7 19.5c-6 5.5-31.8-27.3-27.3-30.7z" /><path class="s54" d="m2968.1 1855.9c18.7-25.9 54.9-31.7 80.8-12.9l8.4 6.1c25.9 18.7 31.7 54.9 12.9 80.8l-4.7 6.5l-102.2-73.9z" /><path class="s55" d="m2968.1 1855.9c18.7-25.9 54.9-31.7 80.8-12.9l6.4 4.6c-24.3-10.3-53.4-3-69.5 19.3l-4.7 6.6l85.2 61.7l-0.8 1.2l-102.2-73.9z" /><path class="s56" d="m2950.9 1856.8c4.5-6.3 13.3-7.7 19.5-3.2l100.6 72.9c4.6 3.3 5.6 9.6 2.3 14.2l-4.5 6.2c-3.3 4.5-9.7 5.6-14.2 2.2l-100.6-72.8c-6.3-4.5-7.7-13.3-3.1-19.5z" /><path class="s39" d="m1398.8 358.2l-40.8-5l9.5-78.1l25 3z" /><path class="s40" d="m1443.3 244.2c3 32.9-6 64.6-26.2 69.3c-19 4.3-48.4-16.9-58.9-50.4c-11.1-35.2-0.7-59.2 27.3-65.2c29.8-6.4 54.6 10.3 57.8 46.3z" /><path class="s41" d="m1346.8 227.9q2.6-21.4 18.6-22.9c6.5-19.8 26.2-20.6 44.3-17.4c18 3.1 31.9 9.9 38 27q5.5 15.5-0.8 31.2c-9-6.1-34.2-6.4-40.7-3.1q-7.3 3.7-10 20.5q-17.8-2.7-22 1.9q-3.2 3.6-3.4 18.9l-4.5 1.3q-22.1-36-19.5-57.4z" /><path class="s40" d="m1389 260c1.7 5.7-0.7 11.4-5.4 12.9c-4.7 1.5-10-2-11.7-7.6c-1.8-5.7 0.6-11.5 5.4-12.9c4.7-1.5 9.9 1.9 11.7 7.6z" /><path class="s39" d="m1679.3 871l-15.7 5.5l-3.5-8.2l-76.1-179.4l-216.5-24l-36.3-4l13.3-76.4l35.5 8.5l223.4 53.1l2.7 0.6c7.3 1.8 12.7 7.3 14.6 14.1l56.2 201.7z" /><path class="s40" d="m1616.7 684.7c-1.8 8-7.9 14.1-15.3 16.3l-192.8 55.8l-8.5 2.5l-5.7-15.6l8.2-3.6l103.5-45.9l-137.2-12.7l-36.4-3.4l12.1-76.6l35.7 7.9l216.9 48.4l2.9 0.6c11.8 2.7 19.3 14.4 16.6 26.3z" /><path class="s57" d="m1416.9 577.4c38.8 33.1 178.5 36.5 206.9 65.3q29.3 29.7 48.7 185.1l-32.6 11.4q-53.3-145.3-62.1-151.3c-8.8-5.9-197.3 12.7-245.3-16.4q-39.8-24.1-22.3-88.9z" /><path class="s58" d="m1400 578.2c27.9 40.5 211.6 43.5 223.4 87.4q12.8 48-188.3 89.9l-10.3-32.4q74.8-23.9 73.4-27.9c-1.3-3.8-135.1 13.5-182.6-22.9q-37-28.2-22.3-88.9z" /><path class="s39" d="m1376.3 373.6l91.3 128.1l-16.8-4.5l106-41.3l9.8-3.8l8 18.8l-9.6 4.4l-103.2 47.7c-5.8 2.7-12.5 0.9-16.2-3.9l-0.5-0.6l-97-123.8l-10.9-13.9l28.9-21.6z" /><path class="s59" d="m1369.3 364.3c22.9 4.1 65.1 77.4 90.6 101.2q25.6 23.8 75.7-4.6l9.3 27.9q-62.2 44.3-91 36.2c-48.4-13.6-111-90.3-124.6-124.9c-6.1-15.5 19.8-39.4 40-35.8z" /><path class="s60" d="m1404.2 351.1c8.6 87.7 28.1 160.8 53.8 225.5q-5.1 11.6-90.3 13.1q-85.1 1.5-78.2-21.8q-12.9-119.9 64.3-230.5q18.5 14.3 50.4 13.7z" /><path class="s39" d="m1609.6 439.2c2.9 6.6-3.2 19.1-16.4 27.1c-12.1 7.4-24.1 4.5-27.5-1.9c-7.6-14.4 39.2-35.3 43.9-25.2z" /><path class="s39" d="m1566.9 455.7c-2.1-2.4 0.3-9.6 7.9-16.3c8.2-7.2 16.5-10 18.8-7.8c3.5 3.4-22 29.5-26.7 24.1z" /><path class="s61" d="m1394.3 349q0.4 69.3 13.6 144.7q13.1 75.3 34.3 125.2q-147.7 6.1-172.6-30.9c-22.5-33.3 44.1-214.9 78.9-254.4z" /><path class="s41" d="m1410.5 844.2l-10.3 3.2l-33.2-108.2l10.2-3.1c1.8-1.2 3.9-2.2 6.3-2.9c7.3-2.3 14.2-1.1 15.3 2.5c0.1 0.2-0.1 0.8-0.4 1.5c-0.6 2.6-1.1 8.7 2.7 16.6q5.2 10.7 14.7 8.5l0.4-0.1l-4.3 60.8l1.9 15.6c0.5 2.5-1 4.9-3.3 5.6z" /><path class="s41" d="m1759.6 883.4l0.5 10.8l-112.9 5.9l-0.6-10.6c-0.7-2-1.1-4.3-1.3-6.9c-0.4-7.6 2.4-14 6.2-14.2c0.2 0 0.7 0.3 1.3 0.8c2.4 1.2 8.2 3.2 16.8 1.4q11.7-2.5 11.8-12.2v-0.5l57.9 19l15.6 2c2.5 0.1 4.5 2 4.7 4.5z" /><path class="s40" d="m1384.1 392.2l-0.8 159.8l-10.9-13.4l112 28.9l10.2 2.6l-4.5 19.9l-10.3-2l-113.6-22c-6.2-1.2-10.6-6.6-10.9-12.7v-0.8l-6.5-159.7l-0.7-17.6l36-0.7z" /><path class="s40" d="m1536 586.8c-1.6 7.1-14.1 13.3-29.4 11.7c-14.1-1.4-21.9-10.9-20.7-18.1c2.6-16.1 52.5-4.5 50.1 6.4z" /><path class="s40" d="m1492 574.2c-0.2-3.2 6.1-7.5 16.2-8.2c10.9-0.8 19.1 1.9 19.7 5.1c0.8 4.8-35.4 10.3-35.9 3.1z" /><path class="s62" d="m1384.1 374.5c16.5 17 8.6 113 15.5 147.8q6.9 34.9 64.4 36.5l-8.9 28.6q-77.5-0.9-96.4-24.6c-31.9-40-40.6-140.8-28.9-176.7c6.4-19.4 39.8-26.5 54.3-11.6z" /><path class="s63" d="m1440 197.4l-100.2 47.6l-3.1-6.4c-12.1-25.4-1.3-55.8 24.1-67.9l8.3-3.9c25.4-12.1 55.8-1.3 67.8 24.1z" /><path class="s64" d="m1440 197.4l-100.2 47.6l-0.6-1.2l83.7-39.8l-3.1-6.4c-10.4-21.9-34.3-32.8-57-27.8l6.3-3c25.4-12.1 55.8-1.3 67.8 24.1z" /><path class="s65" d="m1445.8 210.9l-98.6 46.9c-4.5 2.1-9.9 0.2-12-4.3l-2.9-6c-2.1-4.5-0.2-9.8 4.3-12l98.7-46.9c6.1-2.9 13.5-0.3 16.4 5.8c2.9 6.2 0.3 13.5-5.9 16.5z" /><path class="s40" d="m1081.8 2057.4l145.1 106.6l-19.4 1.1l100.5-82.9l9.1-7.5l15.1 17.2l-8.7 8.1l-95.2 88.8c-5.3 4.9-13.1 5.4-18.8 1.5l-0.7-0.4l-149.8-100z" /><path class="s66" d="m1071 2049.5c26.4-3.8 103.3 63.2 139.6 80q36.3 16.8 75.9-34.5l20.1 27.1q-51.3 70.1-85.5 71.6c-57.5 2.5-153.6-58.1-180.7-90.9c-12.2-14.8 7.4-50 30.6-53.3z" /><path class="s40" d="m1377.9 2038.7c4.9 6.4-2.3 24.8-19.8 41.4c-16.2 15.4-33.4 18.1-38.9 12c-12.4-13.5 51-63.4 58.7-53.4z" /><path class="s41" d="m1104.8 1859.9q14.9 1.9 24.1 1.5q9.3-0.5 16.7-2.8q1.8 15.6-6.7 24q-9.5 9.5-29.7 5.3z" /><path class="s67" d="m1108.2 2047.3h-46.3v-88.6h28.3z" /><path class="s68" d="m1142.4 1913.8c7.9 36.4 2.1 73.1-19.9 81c-20.6 7.5-56.3-12.2-72.7-48.2c-17.2-37.9-8.8-66.2 21.7-76.7c32.4-11.2 62.4 4 70.9 43.9z" /><path class="s41" d="m1152.5 1892c-10.5 12-34.7 6.6-39.2 7.5c-12.1 2.4-24.4 33.3-32.5 34.6c-12.5 1.9-22.1 14.9-19.5 31.5c-7.7-1.6-20.1-14.8-25.2-31.5c-10.9-34.9 7.5-72.6 45.9-76.1c30.1-2.8 49.7 15.7 78.2 0.6q3.2 20.9-7.7 33.4z" /><path class="s68" d="m1083.7 1936.2c2.9 6.5 0.9 13.7-4.5 16.1c-5.4 2.4-12.2-0.9-15.1-7.3c-2.9-6.5-0.9-13.8 4.6-16.2c5.4-2.4 12.1 0.9 15 7.4z" /><path class="s67" d="m1208 2813.3l-18.2 3.8l-2.7-9.6l-61.9-219l-62.9-218.6l-11.4-39.6l85.8-18.5l6 40.8l32.8 225.3l31.1 225.5z" /><path class="s40" d="m1114.9 2320.5l-6.7 40.6l-40.1 241.8l-0.6 3.4c-0.6 3.8-2.3 7.1-4.7 9.7l-133.6 144.7l-6.9 7.3l-14.4-11.4l5.6-8.3l104.5-155.9l8.3-239.4l1.5-41.2z" /><path class="s69" d="m1034.1 2304.2h121.5l52.5 422.9l-70.8 10.3z" /><path class="s70" d="m1010.2 2304.2h116.7q-21.3 270.3-38.8 302.1q-20.8 38.1-103.5 126.5l-56.2-43.4q59.1-83.8 73.4-123.1q14.3-39.3 8.4-262.1z" /><path class="s71" d="m1066.4 2037.8q24.3 21.3 48.6 7.1q8.3 88.7 19.2 125q10.8 36.2 42.8 131.4h-176.7c-4.7-81.1 25.9-173.2 66.1-263.5z" /><path class="s72" d="m1115 2045.3c11.7 101.8 35.2 186.4 65.6 261.1q-5.4 16.5-101.3 17.4c-66.2 0.6-87.2-10.5-88.6-23.6q-14.8-139.5 67.3-269.7q21.2 16.2 57 14.8z" /><path class="s68" d="m1091.3 2098.7c-16.7 17.3-33.3 35.5-48.9 53.9c-7.8 9.2-15.4 18.6-22.6 28.1c-7.2 9.5-14.1 19.2-19.6 28.9c-1.4 2.4-2.6 4.7-3.8 7.1l-3.7 8c-2.3 5.5-4.7 11-6.9 16.6c-4.5 11.3-8.7 22.7-12.9 34.2c-8.2 23-15.9 46.5-23.2 69.8l-3.5 11.3l-22.2-6.1l2.9-11.5c6.1-24.2 12.5-48.1 19.5-72.1c3.6-12 7.2-23.9 11.2-35.9c2-6 4.2-12 6.4-18l3.5-9c1.4-3.2 2.9-6.5 4.4-9.5c6.2-12.1 13.1-23 20.2-33.6c7.2-10.5 14.7-20.7 22.3-30.8c15.4-20 31.1-39.3 47.8-58.4l13-15l29.9 27.7z" /><path class="s73" d="m1108.2 2088.3c-0.5 26.6-79.1 91.7-101.5 124.9q-22.4 33.1-45.4 116.7l-33.5-9.9q10.4-85.2 36.6-136.5c26.1-51.3 59.5-112.6 96.2-134.1c16.5-9.6 48.1 15.4 47.6 38.9z" /><path class="s40" d="m909.6 2418.8c-7.4-3.5-9.3-23.2-1.2-46c7.5-20.9 21.6-31.2 29.3-28.3c17.1 6.5-16.8 79.7-28.1 74.3z" /><path class="s40" d="m943.6 2353.4c3.5 0.5 6.8 8.5 5.1 19.7c-1.7 12.2-6.7 20.7-10.2 20.5c-5.6-0.3-2.9-41.4 5.1-40.2z" /><path class="s41" d="m1279.3 2830v9.6l-101.7 0.3v-9.5c-0.5-1.9-0.8-4-0.8-6.2c-0.1-6.9 2.7-12.5 6.1-12.5c0.2 0 6.1 2.6 13.9 1.4q10.6-1.7 14.6-8.7q34.9 13 48.4 17.4q3.4 1.1 15.5 3.9c2.2 0.2 4 2 4 4.3z" /><path class="s41" d="m965.6 2828.7l-6.8 6.9l-72.4-71.4l6.7-6.8c1-1.7 2.2-3.4 3.8-5c4.8-4.9 10.7-7 13.1-4.6c0.2 0.2 2.5 6.2 8.9 10.8q8.7 6.3 16.5 4.2q15.7 33.8 22.2 46.4q1.6 3.1 8.2 13.6c1.5 1.7 1.4 4.3-0.2 5.9z" /><path class="s74" d="m1732.8 2237.8c31 69.5 13.3 149.1-38.6 203.8l-55.7-124.9c-11-24.6-39.8-35.6-64.4-24.7l-56.1 25.1c-24.6 10.9-35.6 39.8-24.7 64.4l55.8 124.9c-75.4 2.1-146.5-37.9-177.5-107.4c-24.9-55.8-18.4-118 11.9-168.6c9.7-16.3 11.1-36.3 3.4-53.7l-160.7-360c-7.7-17.4-23.6-29.7-42.2-33.4c-57.9-11.3-108.5-48-133.4-103.7c-31-69.6-13.3-149.2 38.6-203.8l55.7 124.9c11 24.6 39.8 35.6 64.4 24.6l56.1-25c24.6-11 35.6-39.8 24.7-64.4l-55.8-124.9c75.4-2.1 146.4 37.9 177.5 107.4c24.8 55.7 18.4 117.9-11.8 168.5c-9.8 16.3-11.2 36.3-3.4 53.7l160.7 360.1c7.7 17.4 23.5 29.7 42.2 33.3c57.9 11.4 108.4 48.1 133.3 103.8z" /><path class="s75" d="m1493.9 2160.3l-20.4 9.2c-19.9 8.8-43.2-0.1-52.1-20l-151.9-340.4c-8.9-19.9 0.1-43.2 20-52.1l20.4-9.1c19.9-8.8 43.2 0.1 52.1 20l151.9 340.4c8.8 19.8-0.1 43.2-20 52z" /><path class="s40" d="m1317.9 2081.6c-2.9-2.1-2.2-10.7 4.3-20c7.1-10.1 15.4-15.3 18.5-13.6c4.8 2.8-16.2 38.2-22.8 33.6z" /><path class="s76" d="m1126.7 1853.3l-100.3 76.5l-4.9-6.5c-19.4-25.4-14.5-61.7 10.9-81.1l8.3-6.3c25.4-19.4 61.7-14.5 81.1 10.9z" /><path class="s77" d="m1126.7 1853.3l-100.3 76.5l-0.9-1.2l83.7-63.9l-4.9-6.5c-16.7-21.8-45.9-28.4-69.9-17.5l6.3-4.8c25.4-19.4 61.7-14.5 81.1 10.9z" /><path class="s78" d="m1136.3 1866.9l-98.7 75.3c-4.4 3.4-10.8 2.6-14.3-1.9l-4.6-6.1c-3.4-4.4-2.5-10.8 2-14.3l98.7-75.3c6.1-4.7 14.9-3.5 19.6 2.7c4.7 6.1 3.5 14.9-2.7 19.6z" /></svg>