<svg version="1.2" xmlns="http://www.w3.org/2000/svg" viewBox="0 0 750 500" width="750" height="500"><defs><clipPath clipPathUnits="userSpaceOnUse" id="cp1"><path d="m631.25 434.1h-459.27v-332.68h459.27z" /></clipPath></defs><style>.s0{fill:#eeeeee}.s1{fill:none;stroke:#ded8d5;stroke-width:2}.s2{fill:#ffb1a5}.s3{fill:#ead254}.s4{fill:#00857b}.s5{fill:#ededed}.s6{fill:#c98bd2}.s7{fill:none;stroke:#ffffff;stroke-linecap:round;stroke-linejoin:round;stroke-width:1.6}.s8{fill:#ffffff}.s9{fill:#56dfed}.s10{fill:none;stroke:#ffffff;stroke-width:1.2}.s11{fill:#8e716c}.s12{fill:none;stroke:#282828;stroke-linecap:round;stroke-linejoin:round;stroke-width:1.2}.s13{fill:#f3978e}.s14{fill:#372f5f}.s15{fill:#261b43}.s16{fill:#e6e6e6}.s17{fill:#282828}.s18{fill:none;stroke:#282828;stroke-linecap:round;stroke-linejoin:round;stroke-width:1}.s19{fill:none;stroke:#c98bd2;stroke-width:1.3}.s20{fill:#005683}.s21{fill:none;stroke:#282828;stroke-linecap:round;stroke-linejoin:round;stroke-width:1.4}.s22{fill:none;stroke:#282828;stroke-linecap:round;stroke-linejoin:round;stroke-width:1.5}.s23{fill:none;stroke:#ffffff;stroke-width:2}</style><path class="s0" d="m750.2 500h-750v-500h750z" /><path class="s1" d="m126 158.7h499.3" /><path class="s1" d="m618.8 434.9h-486.3c-3.6 0-6.5-2.9-6.5-6.5v-295.9c0-3.6 2.9-6.6 6.5-6.6h486.3c3.6 0 6.5 3 6.5 6.6v295.9c0 3.6-2.9 6.5-6.5 6.5z" /><path class="s2" d="m158.9 142.6c0 2.6-2.1 4.6-4.6 4.6c-2.5 0-4.5-2-4.5-4.6c0-2.5 2-4.5 4.5-4.5c2.5 0 4.6 2 4.6 4.5z" /><path class="s3" d="m176.6 142.6c0 2.6-2 4.6-4.5 4.6c-2.6 0-4.6-2-4.6-4.6c0-2.5 2-4.5 4.6-4.5c2.5 0 4.5 2 4.5 4.5z" /><path class="s4" d="m194.4 142.6c0 2.6-2.1 4.6-4.6 4.6c-2.5 0-4.5-2-4.5-4.6c0-2.5 2-4.5 4.5-4.5c2.5 0 4.6 2 4.6 4.5z" /><path class="s5" d="m690.2 268.9h-117.3c-3.4 0-6-2.6-6-6v-108.5c0-3.3 2.6-6 6-6h117.3c3.3 0 6 2.7 6 6v108.5c0 3.4-2.7 6-6 6z" /><path class="s1" d="m690.2 268.9h-117.3c-3.4 0-6-2.6-6-6v-108.5c0-3.3 2.6-6 6-6h117.3c3.3 0 6 2.7 6 6v108.5c0 3.4-2.7 6-6 6z" /><path class="s6" d="m595.2 231.6v-50c0-3.4 2.7-6.1 6-6.1h61c3.4 0 6 2.7 6 6.1v50c0 3.3-2.6 6-6 6h-61c-3.3 0-6-2.7-6-6z" /><path class="s7" d="m648.4 216.9h-28.6h-5.1v-22.6h33.7v5.6z" /><path class="s7" d="m648.4 194.3l-16.9 13.3l-16.8-13.3" /><path class="s5" d="m173.7 359.8h-111.9c-3.1 0-5.7-2.5-5.7-5.7v-97.6c0-3.1 2.6-5.7 5.7-5.7h111.9c3.2 0 5.8 2.6 5.8 5.7v97.6c0 3.2-2.6 5.7-5.8 5.7z" /><path class="s1" d="m173.7 359.8h-111.9c-3.1 0-5.7-2.5-5.7-5.7v-97.6c0-3.1 2.6-5.7 5.7-5.7h111.9c3.2 0 5.8 2.6 5.8 5.7v97.6c0 3.2-2.6 5.7-5.8 5.7z" /><path class="s2" d="m146.5 338.8h-58c-3.7 0-6.7-2.9-6.7-6.6v-56.1c0-3.6 3-6.6 6.7-6.6h58c3.7 0 6.7 3 6.7 6.6v56.1c0 3.7-3 6.6-6.7 6.6z" /><path fill-rule="evenodd" class="s8" d="m132.2 290.5c7.8 7.9 7.8 20.7 0 28.6c-7.8 7.8-20.7 7.8-28.5 0c-7.9-7.9-7.9-20.7 0-28.6c7.8-7.8 20.7-7.8 28.5 0zm-9-3.1q1.6 3 2.5 6h6.4c-2.2-2.8-5.3-4.9-8.9-6zm2.1 16.2q0-3.9-0.9-7.8h-12.9q-1 3.9-1 7.8zm-14.7 2.4q0.3 3.9 1.4 7.8h11.9q1.1-3.9 1.3-7.8zm4.5-19.2q-1.8 3.3-2.9 6.6h11.5q-1-3.3-2.9-6.6q-1.4-0.2-2.8-0.2q-1.5 0-2.9 0.2zm-11.3 6.6h6.4q1-3 2.5-6c-3.6 1.1-6.7 3.2-8.9 6zm-4 10.2h8.7q0.1-3.9 1-7.8h-7.3c-1.4 2.3-2.2 5-2.4 7.8zm10 10.2q-1.1-3.9-1.3-7.8h-8.7c0.2 2.8 1 5.5 2.4 7.8zm3.1 8.5q-1.4-3.1-2.4-6.1h-6.7c2.3 2.9 5.5 5 9.1 6.1zm7.5 0.5q1.6-3.3 2.8-6.6h-10.4q1.1 3.3 2.8 6.6q1.2 0.2 2.4 0.2q1.2 0 2.4-0.2zm11.8-6.6h-6.7q-1 3-2.5 6.1c3.7-1.1 6.9-3.2 9.2-6.1zm3.9-10.2h-8.7q-0.2 3.9-1.2 7.8h7.6c1.3-2.3 2.2-5 2.3-7.8zm-2.3-10.2h-7.4q1 3.9 1.1 7.8h8.6c-0.1-2.8-1-5.5-2.3-7.8z" /><path class="s6" d="m167.1 97.4h-101.4c-2.1 0-3.8-1.7-3.8-3.8c0-2.1 1.7-3.8 3.8-3.8h101.4c2.1 0 3.8 1.7 3.8 3.8c0 2.1-1.7 3.8-3.8 3.8z" /><path class="s9" d="m694.3 345.1h-49.2c-2.1 0-3.8-1.7-3.8-3.8c0-2.1 1.7-3.8 3.8-3.8h49.2c2.1 0 3.8 1.7 3.8 3.8c0 2.1-1.7 3.8-3.8 3.8z" /><path class="s6" d="m659.9 389h-6c-1.6 0-2.9-1.3-2.9-2.9v-5.6c0-1.6 1.3-2.9 2.9-2.9h6c1.6 0 2.8 1.3 2.8 2.9v5.6c0 1.6-1.2 2.9-2.8 2.9z" /><path class="s2" d="m89.8 415.3h-6c-1.6 0-2.8-1.3-2.8-2.9v-5.6c0-1.6 1.2-2.9 2.8-2.9h6c1.6 0 2.9 1.3 2.9 2.9v5.6c0 1.6-1.3 2.9-2.9 2.9z" /><path class="s2" d="m550.1 93.5h-100.1c-1.6 0-3-1.3-3-3v-24.4c0-1.7 1.4-3 3-3h100.1c1.7 0 3 1.3 3 3v24.4c0 1.7-1.3 3-3 3z" /><path class="s10" d="m461.5 73.9h71.1" /><path class="s10" d="m461.5 81.2h29" /><path class="s2" d="m473.5 90.1l-14.9 11.8v-11.8z" /><path class="s9" d="m304.2 95.3h-48.4c-4.7 0-8.6-3.8-8.6-8.5v-45c0-3.6 2.9-6.5 6.5-6.5h50.5c3.6 0 6.5 2.9 6.5 6.5v47.1c0 3.5-2.9 6.4-6.5 6.4z" /><path fill-rule="evenodd" class="s8" d="m293.8 74.5c-0.3 0.2-0.6 0.5-0.9 0.8q-0.7 0.6-1.1 1.2q-0.1 0-0.1 0c-1 1.1-2.3 1.7-3.9 1.7c-0.2 0-0.3 0-0.4 0c-2.3-0.2-4.3-1-5.8-1.7c-4-2-7.4-4.7-10.3-8.1c-2.4-2.8-4-5.5-5.1-8.4c-0.4-1.2-0.9-3-0.8-5c0.1-1.2 0.6-2.3 1.5-3.1l2.2-2.3c0.7-0.7 1.5-1 2.3-1c0.9 0 1.7 0.4 2.4 1c0.4 0.4 0.8 0.9 1.2 1.3c0.2 0.2 0.4 0.4 0.6 0.6l1.8 1.8c0.7 0.7 1.1 1.6 1.1 2.4c0 0.8-0.4 1.7-1.1 2.4q-0.3 0.3-0.6 0.6c-0.5 0.4-0.9 0.9-1.4 1.4c0.3 0.8 0.9 1.7 1.7 2.6c1.6 2.1 3.4 3.7 5.3 4.9c0.2 0.2 0.4 0.2 0.7 0.3q0.2 0.1 0.3 0.2l2.1-2c0.7-0.7 1.5-1.1 2.3-1.1c0.9 0 1.7 0.4 2.4 1.1l3.6 3.7c1.3 1.3 1.3 3.2 0 4.7zm-1.5-3.3l-3.6-3.6c-0.2-0.2-0.5-0.4-0.9-0.4c-0.4 0-0.7 0.2-0.9 0.4l-2.2 2.3c-0.5 0.5-1.2 0.6-1.8 0.3l-0.1-0.1c-0.2-0.1-0.4-0.2-0.6-0.3c-0.3-0.1-0.6-0.2-0.9-0.4c-2.1-1.4-4-3.1-5.9-5.4c-0.9-1.3-1.6-2.3-2.1-3.5c-0.1-0.4-0.2-1 0.4-1.6q0.1-0.1 0.1-0.1c0.5-0.5 1-1 1.6-1.6q0.3-0.3 0.6-0.6c0.2-0.2 0.4-0.5 0.4-0.9c0-0.3-0.2-0.7-0.4-0.9l-1.8-1.8c-0.3-0.2-0.5-0.5-0.7-0.7q-0.6-0.5-1.1-1.1c-0.3-0.3-0.6-0.5-1-0.5c-0.3 0-0.7 0.3-0.9 0.5l-2.1 2.2c-0.6 0.5-0.9 1.1-1 1.8c-0.1 1.3 0.2 2.5 0.8 4c1.1 2.7 2.5 5.2 4.7 7.8c2.7 3.3 6 5.8 9.6 7.6c1.3 0.6 3.1 1.4 5.1 1.5c0.1 0 0.2 0 0.3 0c1 0 1.7-0.3 2.3-0.9c0.5-0.5 0.9-0.9 1.3-1.3q0.4-0.4 0.8-0.8c0.6-0.6 0.6-1.3 0-1.9z" /><g clip-path="url(#cp1)"><path class="s11" d="m517.2 487h-25.4l-8.9-112.6h-3.2l-9.2 112.6h-25.3q-17.8-111 2.3-161.5l31.2-4.2l-0.2-3.6l36.5 4.9q19.9 53.4 2.2 164.4z" /><path class="s12" d="m468.1 374.4h26.5" /><path class="s2" d="m549.3 329.3c1 5.1-1.8 10.2-6.6 12.2q-0.1 0.1-0.2 0.1c-6.1 2.6-13-0.7-14.9-7c-9.9-33-17.7-70.7-12.9-70.2c0.9 0.1 18.5 0 21.6 4.9c3.6 5.8 8.3 35.1 13 60z" /><path class="s13" d="m540.5 283l-22.4 8.7l-2.1-10.6l23.2-5.8z" /><path class="s13" d="m544.7 304.2q-10.6 14.3-10.1 13.6q0.5-0.6 8.3-23z" /><path class="s2" d="m573.4 290l-25.3 46.7c-3.1 5.7-10.4 7.6-15.9 4c-5.5-3.6-6.7-11-2.8-16.2l30.5-39.4z" /><path class="s2" d="m567.7 295.2c-6.6-2.1-10.2-9.2-8-15.8c2.1-6.6 9.2-10.2 15.7-8.1c6.6 2.2 10.3 9.2 8.1 15.8c-2.1 6.6-9.2 10.2-15.8 8.1z" /><path class="s2" d="m559.7 279.4c4.8-11.7 12.3-12.2 18.4-9.7q6.1 2.5 2.6 6z" /><path class="s14" d="m587 250.8l12.8 5.6c0.7 0.3 0.9 1.1 0.6 1.8l-16.8 31.3c-0.4 0.7-1.3 1.1-2 0.8l-12.7-5.5c-0.7-0.3-1-1.2-0.6-1.9l16.8-31.3c0.3-0.7 1.2-1.1 1.9-0.8z" /><path class="s15" d="m585.8 250.3l12.8 5.5c0.7 0.3 0.9 1.1 0.5 1.9l-16.7 31.3c-0.4 0.7-1.3 1-2 0.7l-12.7-5.5c-0.7-0.3-1-1.1-0.6-1.9l16.7-31.3c0.4-0.7 1.3-1 2-0.7z" /><path class="s16" d="m584.4 253.5l11.2 4.8l-13.7 25.5l-11.2-4.8z" /><path class="s8" d="m595.6 258.3l-24.9 20.7l13.7-25.5z" /><path class="s2" d="m574.4 268.6q2.9 0.6 5.4 2c1.1 0.7 1.7 2 1.4 3.2c-0.3 1.2-1.2 2-2.4 2.2l-6.6 0.8q-3.5 6-8 6.6l4.1-10.4z" /><path class="s9" d="m489.9 219.7c-0.8 0 46.9 6.6 54.8 61l-24.7 3.8l-5 41h-69.1l-13.7-75.8q15.3-21.9 43.7-30z" /><path class="s12" d="m520 284.5l2.1-23.8" /><path class="s2" d="m501.2 223.1l-17.6 10.3l-17.3-10.3c3-1.4 4.9-2 6-2.4v-19.1h22.1v18.9q4 1 6.8 2.6z" /><path class="s17" d="m494.9 198.1q1.5 14.6-8.2 15.5q-10.6 0.9-14.6-9.7z" /><path class="s13" d="m462.4 189.9c-3.4 3.1-11.2-8.8-7.8-12.1q3.3-3.4 5.9 1.9l1.5 3.5l1.1 4.8l0.3 1.3z" /><path class="s18" d="m456.2 182q2.6-1.2 4.9 2.6" /><path class="s13" d="m502.6 188.9l0.3-1.3l1.6-4.7l1.8-3.4q3-5 6-1.4c3.1 3.6-5.7 14.9-8.9 11.4z" /><path class="s18" d="m510.3 182.2q-2.5-1.4-5.1 2.2" /><path class="s17" d="m483.2 139.8c14.9 0 26.9 10.8 26.9 26.6c0 15.8-12 23.3-26.9 23.3c-14.8 0-26.9-7.5-26.9-23.3c0-15.8 12.1-26.6 26.9-26.6z" /><path class="s2" d="m483.5 143.5q25-0.5 22.8 24q-0.2 12.5-2.5 23.9c-1.2 6.2-5.3 10.7-11 14c-5.8 3.4-13 3.3-18.7-0.2l-0.9-0.6c-5.4-3.2-9.1-7.3-10.5-13.1c-1.3-6-2.7-14.3-2.7-24q-1.5-23.6 23.5-24z" /><path class="s12" d="m485.1 185.8l-1.5 0.4c-0.8 0.2-1.6-0.1-1.8-0.8q-0.2-0.3-0.2-0.6v-3.4" /><path class="s17" d="m477.7 168.3l-12.4 2.9q0.5-3.1 5.6-4.3q5.1-1.1 6.8 1.4z" /><path class="s17" d="m495.2 166.9q4.9 1.2 5.5 4.3l-12-2.9q1.6-2.5 6.5-1.4z" /><path class="s17" d="m475.1 177.4c0 1.2-1 2.1-2.1 2.1c-1.2 0-2.1-0.9-2.1-2.1c0-1.1 0.9-2.1 2.1-2.1c1.1 0 2.1 1 2.1 2.1z" /><path class="s17" d="m494.9 177.4c0 1.2-0.9 2.1-2.1 2.1c-1.1 0-2.1-0.9-2.1-2.1c0-1.1 1-2.1 2.1-2.1c1.2 0 2.1 1 2.1 2.1z" /><path class="s8" d="m475.1 190.2h16.1q-7.2 8.7-16.1 0z" /><path class="s19" d="m481 178.2c0 5-4 8.9-8.9 8.9c-4.9 0-8.9-3.9-8.9-8.9c0-4.9 4-8.9 8.9-8.9c4.9 0 8.9 4 8.9 8.9z" /><path class="s19" d="m502.9 178.2c0 5-4 8.9-8.9 8.9c-5 0-9-3.9-9-8.9c0-4.9 4-8.9 9-8.9c4.9 0 8.9 4 8.9 8.9z" /><path class="s19" d="m481 178.2q2.1-1.9 4 0" /><path class="s19" d="m463.2 178.2h-2.8" /><path class="s19" d="m502.9 178.2h2.8" /><path class="s17" d="m506 175.6q-10-13.5-7.7-27.2q7.4 3.7 9.4 13.4q1.9 9.6-1.7 13.8z" /><path class="s17" d="m459.3 161.8q1.9-9.7 10-14.3q2.3 13.7-9.3 29q-2.6-5.1-0.7-14.7z" /><path class="s17" d="m505.2 153.8q-12.9 14-48 11.6q5.4-20.6 22.4-22.8q19.7-2.3 25.6 11.2z" /><path class="s17" d="m521 137.4c0 9.2-7.5 16.7-16.7 16.7c-9.3 0-16.8-7.5-16.8-16.7c0-9.3 7.5-16.8 16.8-16.8c9.2 0 16.7 7.5 16.7 16.8z" /><path class="s17" d="m302.1 484h-25.4l-9.1-112.5h-3.3l-8.8 112.5h-25.4q-17.7-111 2.2-164.4l36.5-4.8l-0.3 3.6l31.2 4.1q20.1 50.5 2.4 161.5z" /><path class="s17" d="m275.8 223.9c-5.1 0.3-9.4-0.1-12.8-1.2l-0.1 0.4c-35.1 5.1-54.4-13.4-42.9-35.2c6.5-12.4 14.9-14.1 15.1-24.8c0.3-10.8 4.7-19.8 17.4-23.5q12.6-3.8 21.1 7q10.1-3.5 13.2 5.2c2.8 8.1 6.2 13.9 10.4 18.9c16.8 19.7 20.8 50.7-21.4 53.2z" /><path class="s13" d="m282.5 186.4l0.3-1.3l1.1-4.8l1.5-3.6q2.5-5.3 5.9-1.9c3.3 3.3-4.4 15.3-7.9 12.1z" /><path class="s18" d="m289.7 179q-2.7-1.2-5 2.6" /><path class="s13" d="m242.4 186.6c-3.2 3.4-11.9-7.8-8.9-11.5q3.1-3.6 6.1 1.4l1.8 3.5l1.5 4.7l0.4 1.2z" /><path class="s18" d="m235.5 179.2q2.5-1.4 5.2 2.2" /><path class="s17" d="m289.5 163.4c0 15.8-12 23.3-26.9 23.3c-14.8 0-26.9-7.5-26.9-23.3c0-15.8 12.1-26.5 26.9-26.5c14.9 0 26.9 10.7 26.9 26.5z" /><path class="s2" d="m273.6 227.3h-22.2v-28.6h22.2z" /><path class="s17" d="m275.5 198.1l-0.3 2.7c-0.6 4.7-4.3 8.9-7.1 9.9c-2 0.7-4.1 0.9-6.2 0.4q-7.5-1.9-13.7-14.2q13.8 8.5 27.3 1.2z" /><path class="s2" d="m285.8 164.5c0 9.7-1.3 18.1-2.7 24c-1.3 5.8-5.1 9.9-10.4 13.2l-1 0.6c-5.6 3.4-12.9 3.5-18.6 0.2c-5.8-3.4-9.8-7.8-11.1-14.1q-2.2-11.3-2.5-23.9q-2.1-24.5 22.9-24q24.9 0.5 23.4 24z" /><path class="s12" d="m264.4 182.8l-1.6 0.4c-0.7 0.2-1.5-0.1-1.8-0.8q-0.1-0.3-0.1-0.6v-2" /><path class="s17" d="m273.4 165q5.4 1.3 6 4.7l-13.3-3.2q1.9-2.7 7.3-1.5z" /><path class="s17" d="m259.2 166.5l-13.5 3.2q0.6-3.4 6.1-4.7q5.5-1.2 7.4 1.5z" /><path class="s17" d="m254.3 174.8c0 1.1-0.9 2.1-2.1 2.1c-1.1 0-2-1-2-2.1c0-1.2 0.9-2.1 2-2.1c1.2 0 2.1 0.9 2.1 2.1z" /><path class="s17" d="m274.2 174.8c0 1.1-0.9 2.1-2.1 2.1c-1.2 0-2.1-1-2.1-2.1c0-1.2 0.9-2.1 2.1-2.1c1.2 0 2.1 0.9 2.1 2.1z" /><path class="s8" d="m253 186.7h18.3q-1.3 5-9.6 5q-6.3 0-8.7-5z" /><path class="s17" d="m238.2 158.8q1.9-9.6 9.3-13.4q2.3 13.7-7.7 27.2q-3.6-4.2-1.6-13.8z" /><path class="s17" d="m285.9 172.2q-11.6-14-9.3-27.7q8 4.7 9.9 14.3q2 9.6-0.6 13.4z" /><path class="s17" d="m266.2 139.7q17 2.2 21 24.1q-35.1 2.4-46.5-13q5.9-13.5 25.5-11.1z" /><path class="s2" d="m199.1 389.3q4.8-106.5 11.4-120c2.3-4.7 17.8-6.1 18.6-6.3c8.8-2-20.9 128.1-20.4 127.3z" /><path class="s2" d="m207.9 386.6c6.6 2.2 8.3 10.5 8.8 13.9c0.1 0.9-0.4 1.7-1.2 2.1c-1.1 0.6-2.5 0-2.9-1.3q-1.5-4.8-4.1-4.5c-2.2 7.5 2.3 10.9 5.3 12.2c1.2 0.5 1.8 1.9 1.4 3.1l-0.1 0.2c-0.3 1.1-1.5 1.8-2.7 1.7q-18.1-2.4-13.3-24.7z" /><path class="s13" d="m207.6 281.3l20.8 9q-5.9 33.4-6 33.9q-0.1 0.4-17.2-23.7z" /><path class="s4" d="m276.9 222.2q28.4 8.1 38.1 24.5l-13.7 75.8h-69l-5-41l-24.7-3.8c7.8-54.3 50.9-55.1 50.2-55.1z" /><path class="s2" d="m262.3 218q16.9 2.6 31.4 10.7q-6.3 8.5-31 8.5q-24.9 0-31-8q15.5-8.5 30.6-11.2z" /><path class="s20" d="m374.2 401.4l-4.1 108.4h-53.6l-0.1-108.4z" /><path class="s20" d="m432.9 401.4l-0.1 108.4h-53.6l-4.2-108.4z" /><path class="s20" d="m403.6 439h-55.5v-37.6h55.5z" /><path class="s21" d="m355.9 439h38.2" /><path class="s2" d="m466.7 306.8c3.4 36.7-0.1 63.5 0.8 131.1l-32 1.3l-4.8-126.5z" /><path class="s13" d="m434.7 321.3l33-4.5l0.4 7.9q-13.6 8.9-33.4 10.7z" /><path class="s6" d="m402.9 222.2q63 15.8 74.4 95.7q-30.9 13.4-61.7 7.6l6.9-26.7z" /><path class="s2" d="m214.8 255.4l46.9 55.4l-14.3 40.4q-35.7-49.6-51.7-87.8z" /><path class="s2" d="m216.4 257.4q-16.5 9.3-20.7 6q-7.3-5.9-13.3-27.4q30.7-11.7 30.5-11.2q-0.3 0.5 3.5 32.6z" /><path class="s2" d="m210.8 242.2l7.7-13.2c0.9-1.6 2.7-1.8 3.8-1.5c1.8 0.3 2.9 2.1 2.4 3.7c-2.2 6.7-8.6 24.6-8.3 26.2z" /><path class="s2" d="m206.6 231.9l-2.3-19.6c-0.2-1.6 0.8-2.9 2.4-3.2c1.7-0.3 3.5 0.9 3.8 2.6l5.3 26.4z" /><path class="s2" d="m197.4 232.7l-5.3-21.8c-0.3-1.5 0.5-2.9 1.9-3.4c1.6-0.5 3.5 0.4 4.1 2l7.2 18.9z" /><path class="s2" d="m189.4 235.3l-7.2-17.5c-0.7-1.6 0-3.5 1.6-4.2c1.7-0.7 3.8 0.1 4.6 1.8l9.1 18.5z" /><path class="s2" d="m182.4 236l-7.2-11.4c-0.6-1.3 0-2.8 1.3-3.4c1.2-0.6 2.7-0.1 3.5 1l9.4 13.1z" /><path class="s22" d="m214.4 236.1q-10.8-1.1-11.9 13.2" /><path class="s2" d="m253.8 313.8l49.3-60.7l6.1 64.1q-27.4 37.5-45 41.5q-17.5 4.1-26.3-26.4z" /><path class="s13" d="m273.3 289.4l35.9 27.8l-9.3 11.7q-14.2-8.9-30.8-34z" /><path class="s6" d="m324.8 302.2l-16.9 20.7q-25.2-10.6-40.9-34.3q26-56.8 74.9-67.8z" /><path class="s6" d="m402.9 222.2q16.4 7.2 31.6 22.1l0.4 165.2h-120.3l-3.8-166.1q12-13 31.1-22.8c13.6-6.9 47-4.6 61 1.6z" /><path class="s21" d="m398.8 301.5c-9.2 0-16.7-7.4-16.7-16.7v-16.7h33.5v16.7c0 9.3-7.5 16.7-16.8 16.7z" /><path class="s21" d="m434.7 326.2l1.6-54.4" /><path class="s21" d="m312.6 317.1l-2.6-47.1" /><path class="s17" d="m343.3 160l-5-24.8c-0.3-2.1-1.1-5.2-0.1-8.1c1.6-4.9 7.4-14.2 17.4-9.9l2.1 9.8q-10.3 2.1-14.5 15.7z" /><path class="s17" d="m354.9 122.3c-0.2 3.3-3.1 17.5-13.2 22.7q-8.9-19 13.2-22.7z" /><path class="s2" d="m402.9 222.2q-2.9 17.4-31.6 17q-28.6-0.4-31.4-17.9l11.6-5.2v-42.2h38.8v42.2z" /><path class="s17" d="m355.6 117.2q7.1-18.8 29.1-8.8c13.3 6 17 14.1 18.6 19.9c0.5 1.9 0.8 4.9 0.6 6.7l-5.3 25l-20.8-34.6l-20.1 1.6z" /><path class="s13" d="m398.6 160q2.6-4.2 8-2.1c5.4 2 3 15.1-5.1 16.8q-2.9 0.6-5.2-1.4q2-9.6 2.3-13.3z" /><path class="s21" d="m405.5 162.5q-4.5-1.5-7.7 5.1" /><path class="s13" d="m345.6 173.3q-2.3 2-5.2 1.4c-8.1-1.7-10.5-14.8-5.1-16.8q5.4-2.1 8 2.1q0.3 3.7 2.3 13.3z" /><path class="s21" d="m336.4 162.5q4.5-1.5 7.7 5.1" /><path class="s2" d="m399.1 147.5c0 7.9-0.7 24.5-5.6 34.3c-4.6 9.2-12.1 14.2-22 14.5c-9.9 0.3-17.3-3.5-23.2-15.5q-5.9-12-5.6-33.1q0-28.3 27.9-28.3q29.4 0 28.5 28.1z" /><path class="s17" d="m371.5 196.3q11.5 0 18.8-9.2q-4.4 20.2-20.9 18q-14.4-1.9-17.6-18.4q6.8 9.6 19.7 9.6z" /><path class="s21" d="m373.7 167.2l-2.1 0.6c-1 0.2-2.1-0.2-2.5-1.2q-0.2-0.4-0.2-0.8v-6.5" /><path class="s17" d="m360.7 156.1c0 1.4-1.2 2.6-2.6 2.6c-1.4 0-2.5-1.2-2.5-2.6c0-1.4 1.1-2.5 2.5-2.5c1.4 0 2.6 1.1 2.6 2.5z" /><path class="s17" d="m384.5 156.1c0 1.4-1.1 2.6-2.5 2.6c-1.4 0-2.6-1.2-2.6-2.6c0-1.4 1.2-2.5 2.6-2.5c1.4 0 2.5 1.1 2.5 2.5z" /><path class="s17" d="m384.8 141.4q7 1.7 7.7 6.5l-17-4.4q2.3-3.9 9.3-2.1z" /><path class="s17" d="m364.8 143.5l-17.1 4.4q0.8-4.8 7.8-6.5q7-1.8 9.3 2.1z" /><path class="s21" d="m380.4 172.4q-3.8 1.9-9.8 1.9q-6.6 0-9.2-1.9" /><path class="s23" d="m368.2 156.9c0 5.9-4.8 10.8-10.8 10.8c-5.9 0-10.8-4.9-10.8-10.8c0-6 4.9-10.8 10.8-10.8c6 0 10.8 4.8 10.8 10.8z" /><path class="s23" d="m394.8 156.9c0 5.9-4.9 10.8-10.8 10.8c-6 0-10.8-4.9-10.8-10.8c0-6 4.8-10.8 10.8-10.8c5.9 0 10.8 4.8 10.8 10.8z" /><path class="s23" d="m368.2 156.9q2.6-2.4 5 0" /><path class="s23" d="m346.6 156.9l-3.6-0.1" /><path class="s23" d="m394.8 156.9l4-0.1" /><path class="s17" d="m372.4 116.7q23.5 6.5 24.2 6.3q0.7-0.3 3.5 25.4q-3.8-11.5-19.7-11.2q-23.4 0.5-28.6-14.2z" /></g></svg>