<svg version="1.2" xmlns="http://www.w3.org/2000/svg" viewBox="0 0 277 245" width="277" height="245"><style>.s0{fill:#ffffff}.s1{opacity: .5;fill:#dfc8ed}.s2{fill:#ef3c8e}.s3{fill:#723f3f}.s4{fill:#5e2e2e}.s5{fill:#ff5097}.s6{fill:#f3e0fc}.s7{fill:#ffaa94}.s8{fill:#ffd0ca}.s9{fill:#c33856}.s10{fill:#dfdfea}.s11{fill:#f9b4af}.s12{fill:#f79826}.s13{fill:#fab234}.s14{fill:#ae99c6}.s15{fill:#d6afdb}.s16{fill:#b292ef}.s17{fill:#dfc8ed}.s18{fill:#b89fce}.s19{fill:#cfb8e0}.s20{fill:#7b78ef}.s21{fill:#f6e9ff}.s22{fill:#d1bae2}.s23{fill:#a991c1}.s24{fill:#bfa9d3}.s25{fill:#ea4e98}.s26{fill:#ff6caf}.s27{fill:#f2e1ff}.s28{fill:#512626}</style><path class="s0" d="m314.6 277.5h-516.9c-7.8 0-14.1-6.3-14.1-14.1v-311.8c0-7.8 6.3-14.1 14.1-14.1h516.9c7.7 0 14 6.3 14 14.1v311.8c0 7.8-6.3 14.1-14 14.1z" /><path class="s1" d="m6.8 188.1l22.4-12.9l-1.3-0.7c-2.6-1.5-2.9-3.8-0.6-5.1l18.4-10.7c2.3-1.3 6.3-1.1 8.9 0.4l6 3.5l18.8 10.8l11.4 6.6c2.6 1.5 2.9 3.8 0.6 5.1l-44.9 25.9c-2.3 1.3-6.3 1.2-8.9-0.3l-30.1-17.5c-2.6-1.5-2.9-3.8-0.7-5.1z" /><path class="s1" d="m217.9 211.4l-22.2 12.9l1.3 0.7c2.6 1.5 2.8 3.8 0.6 5.1l-18.4 10.6c-2.2 1.3-6.2 1.1-8.8-0.4l-6-3.4l-18.7-10.8l-11.3-6.6c-2.6-1.5-2.9-3.7-0.6-5l11.4-6.6l-12.4-7.1c-2.2-1.3-1.9-3.6 0.7-5.1l11.3-6.6l18.9-10.9l6-3.4c2.6-1.5 6.6-1.7 8.8-0.4l18.5 10.7c2.3 1.3 2 3.6-0.6 5.1l-1.3 0.7l22.3 12.9c1.6 0.9 1.9 2.3 1.2 3.5c1.3 1.4 1.1 3.1-0.7 4.1z" /><path class="s1" d="m216.5 138.5l-80.9 46.7c-2.2 1.2-6 1.1-8.5-0.3l-61.8-35.8c-2.5-1.4-2.8-3.6-0.7-4.9l81-46.7c2.1-1.2 5.9-1.1 8.4 0.4l61.9 35.7c2.5 1.4 2.8 3.6 0.6 4.9z" /><path class="s1" d="m106.7 213.4c0 5.4-8.3 9.8-18.5 9.8c-10.2 0-18.5-4.4-18.5-9.8q0-0.2 0-0.3c0.3-5.3 8.5-9.6 18.5-9.6c10 0 18.1 4.3 18.4 9.6q0.1 0.1 0.1 0.3z" /><path class="s1" d="m246.7 163.3c0 5.4-8.3 9.8-18.5 9.8c-10.2 0-18.5-4.4-18.5-9.8q0.1-0.2 0.1-0.3c0.3-5.3 8.4-9.6 18.4-9.6c10.1 0 18.2 4.3 18.5 9.6q0 0.1 0 0.3z" /><path class="s1" d="m273.1 142.5c0 5.4-8.3 9.8-18.5 9.8c-10.2 0-18.5-4.4-18.5-9.8q0-0.2 0-0.3c0.3-5.3 8.5-9.6 18.5-9.6c10 0 18.2 4.3 18.5 9.6q0 0.1 0 0.3z" /><path class="s1" d="m209.4 106.4c0 5-7.6 9-17 9c-9.4 0-17-4-17-9q0-0.1 0.1-0.3c0.2-4.8 7.7-8.7 16.9-8.7c9.2 0 16.7 3.9 16.9 8.7q0 0.2 0.1 0.3z" /><path class="s2" d="m243 83.2c-0.6-1-1.2-2.3-1-3.8c0.2-3.7 2.6-6.8 3.8-9.7q2.2-5.3 5.1-4l0.8 1q-0.1 17.4-5 17.7c-2.1 0.2-3 0-3.7-1.2z" /><path class="s3" d="m250.9 135.3v2.2q-0.2 0.8-1.2 1.5c-1 0.6-2.9 1.7-4 2.1c-1.5 0.5-4.2 1.1-5.4 1.1c-1.3 0.1-1.9-0.6-1.2-1.2c1.2-1.2 1.6-1.6 2.9-2.9q1.4-1.3 2.5-2.5z" /><path class="s3" d="m267 137.6q0.8 3.7-0.5 7.5c-1.4 3.8-3.7 3.8-4.6 3.5c-0.8-0.3-1.2-2.7-1.1-5.4q0.2-2.8 0.4-4.9z" /><path class="s4" d="m265 118.7q3.6 8.1 4.3 17.4q0.5 1.6-2.3 3q-2.8 1.4-6.8-0.1q0-12-3.3-18.8q-1.7-3.7-2.2-16.7l-2.8 13.9l-0.3 17.5q-1.9 2-4.4 2q-3.1 0-3.3-1.8q-0.5-15.1 0.7-23.5q1.1-7.4 3.7-21.5q12.2-3.6 11.9-1q4.2 4.1 3.7 11.8c-0.2 3.6 0.8 11.7 1.1 17.8z" /><path class="s5" d="m246.9 90.3c0-5.3-0.8-13.3-0.5-15.7q0.5-4.7 4.7-8.1q3.9-1.6 7.7 1.4q5.3 2.5 5.6 4.9c0.2 1.4-0.8 10-1.5 15.3c-0.2 1.5 0.1 4.1 0.4 6.7c-2 1.5-4.2 2.6-6.7 2.8c-3.4 0.4-7.5-1-10-3.6c0.2-1.5 0.3-2.8 0.3-3.7z" /><path class="s2" d="m256.9 72q-1.1 1.3-3 3q-1.6 1.5-3.2 3.3q-1.6-2.6-0.9-5.8q0.3-1.7 1.5-3.3z" /><path class="s6" d="m252.8 70.7c1.3 0.6 3.1 1.2 2.5 1.8q-1.1 1.1-4.5 4.3q-0.6-1.4-0.4-3.3q0.1-2 0.8-3.8q0.6 0.6 1.6 1z" /><path class="s7" d="m257.5 62.8l1 5.7q-3.1 2.9-4.4 3.3q-1.3-1.1-1.8-1.8l0.3-3.7z" /><path class="s8" d="m258 63.7c-1.4 2.2-4.4 3.4-5.7 3.6c-2.4 0.4-5-6.2-2.2-10.2c2.6-3.9 6.5-2.4 7.9-0.6c1.1 1.4 1.4 4.8 0 7.2z" /><path class="s0" d="m252.7 67.3l0.1 3.4l-2.4 1q-0.1-3.6 2.3-4.4z" /><path class="s0" d="m260.1 69.2q-0.8 1.6-6.4 4.3l-0.9-2.8q2.2-1 3.1-1.5q1.8-1 2.2-2.7c1.4 0.5 2.3 2 2 2.7z" /><path class="s0" d="m252.1 81.9l-0.3 4.7l-2.9-1.8l0.3-4.6z" /><path class="s9" d="m251.9 82.1l-0.1 0.5l-2.5-1.4l0.1-0.6z" /><path class="s10" d="m251.8 83l-0.3 3.1l-1.5-0.9l0.2-3.1z" /><path class="s8" d="m255.8 80.7c1.2 0.5 1.8 0.7 2.9 1.2q1.2 0.5 1.2 0.5v3.4l-5.3-1.4z" /><path class="s5" d="m245.7 77.8q2.9 0.2 6.2 1.3q2.7 0.8 4.2 2.2q-0.5 1.9-1.1 2.6c-0.7 0.8-9.7 1.3-11.2 0.4c-1.5-1-1.3-5.8 1.9-6.5z" /><path class="s0" d="m256.6 81.1q-0.2 0.1-0.5 0.8q-0.2 0.6-0.7 2.4l-1.9 0.1q-0.3-0.9-0.2-2.4q0.1-1.5 1.2-1.8z" /><path class="s2" d="m257.2 90.4c-2.3-0.3-6.9-3.7-8.6-5.5c-1.7-1.7-2.9-3.6-2.9-5q0.1-1.4 0.8-2.3q1.2 0.3 3.6 1.7q2.4 1.4 11 7.5q-1.9 3.9-3.9 3.6z" /><path class="s2" d="m256.3 87q2.4-7.2 3-9.7c1-3.9 3-5.8 4.2-6.2c2.3 1 2.3 3.4 2 8.1c-0.2 2.8-0.8 5-2.3 7.8c-1.6 2.9-3.9 3.7-5.7 3.5c-1.9-0.2-1.8-1.8-1.2-3.5z" /><path class="s0" d="m249.5 78.7q-1.2 0.1-1.8 0.3q-1.5 0.6-1.8 1.7q-1-1.3-0.2-2.5c0.7-1 1.7-1 2.1-0.8q0.9 0.2 1.7 1.3z" /><path class="s4" d="m258 65.5q-0.8-0.4-0.8-1.6c0.4-0.5 0.9-1.6 0.4-2.7q-0.4-0.6-1.7 0.3q-2-2.6-3.6-3.2c-1.1 1.6-2 2.5-3.2 2.8q-1.2 0.3-2.8-0.8q1.9 0 1.9-0.6q-0.9-0.4-2.8-1.9q1.7 0.2 2.9-2.6c0.6-1.5 1.7-3.6 5.6-3.3q2.1 0.1 3.7 2.7q0.9-0.7 2.3 1c1.4 1.9 0.8 4.8-0.4 6.4q-1.1 1.6-1.5 3.5z" /><path class="s11" d="m187.5 40.3q-3.2 4.8-3.8 6.9q-1.1 4.3-2.5 6.8l-2.5-1.7q0-1.4 0.4-3.8c0.3-2.1 0.9-3.7 1.2-4.6q1.3-3.2 2.6-5.8z" /><path class="s12" d="m186.5 31.8c2.2-1.8 6.2-0.1 5.1 2.9q-2 5.4-3.8 8.3q-1.3-0.5-3.4-1.3q-2.2-0.8-3.3-2.7q2.6-4.9 5.4-7.2z" /><path class="s3" d="m183 101.5q1.4-1.3 2.4-2.5l6.3-0.2v2.1q-0.1 0.8-1.1 1.4c-1 0.7-2.9 1.7-4 2.1c-1.4 0.5-4.1 1.1-5.2 1.1c-1.4 0.1-1.9-0.5-1.2-1.2c1.1-1.2 1.5-1.5 2.8-2.8z" /><path class="s3" d="m197.7 102.5l5.6-0.6q0.8 3.6-0.5 7.3c-1.3 3.7-3.7 3.8-4.5 3.5c-0.8-0.3-1.2-2.7-1-5.4q0.1-2.6 0.4-4.8z" /><path class="s4" d="m193.3 67.6l-2.7 11.8l1.3 19q-1.8 2.1-4.2 2.3q-3.1 0.2-3.4-1.5q-1.8-16.5-1.3-24.9q0.5-7.3 2.2-19.6q2.4-0.9 5-1.7c0.6 6.7 2.7 7.9 3.1 14.6z" /><path class="s4" d="m203.3 103.3q-2.7 1.4-6.7 0q-1.4-12.5-3.5-19.6q-1.5-5.4-1.9-15.4l-0.1 0.3c0.1-5 0-10 0-15c2.9-0.5 5.7-0.7 5.5 0.5q2.7-0.2 4.4 7.3c1.4 6-0.9 12.9-0.6 18.9q3.5 8 5.1 20.1q0.6 1.6-2.2 2.9z" /><path class="s13" d="m189.3 33.1q1-0.6 1.8-0.9l5.3 1.3q5.1 1.5 6.3 5.5c0.1 1.2 0 4.1-0.2 5.4c-0.2 0.2-1.4 0-1.5 0.2c-1.6 4.7-0.7 10.7-0.4 15.4c-7.9 3.5-13.8 1.8-16-0.5c0-8.2-2.6-19.8 4.7-26.4z" /><path class="s12" d="m193.9 32.2q1.8 0.5 3.2 1.5q-0.2 1.4-2.2 3.3c-2.1 2-3.8 3.9-5.6 3.1c-1.8-0.7-1.3-2.1-0.3-4.5q1-2.3 1.2-2.7q2-1.1 3.7-0.7z" /><path class="s11" d="m190.8 32.5l4.8-3.5l0.8 4.5q-1 1.7-2.2 3c-0.9 1-3.7 3.2-4.8 2.5q-1.4-0.9 1.2-5.1z" /><path class="s8" d="m196.2 22.8c1 1.3 1.4 4.7-0.1 7.1c-1.3 2.1-4.3 3.3-5.6 3.5c-2.3 0.4-4.9-6.1-2.2-10c2.6-3.8 6.5-2.4 7.9-0.6z" /><path class="s4" d="m193.9 19.9c1.4 0.2 2.4 1.1 3.1 2.1c2.4 0.5 2.1 3.9 1.6 5.2q-1.2 2.5-2.5 2.7q0.3-1.4 0-2c-0.2-0.5-1-0.6-1.3 0.3q-0.3 0.1-0.7 0.1l0.3-1.8q-1.4 0.7-2.9-0.2c-1.5-0.8-2.9-0.4-3.4 0.1c-0.3-0.7-0.3-1.2-0.3-1.8c-0.9-0.7-1.8-1.3-1.6-1.7c0.7 0.2 1.5 0.2 2.2-0.2c-0.6-0.5-0.9-0.9-1.2-1.4c1.6 0.2 5.1-1.6 6.7-1.4z" /><path class="s11" d="m180.1 54c1 1.1 1.8 2.2 0.4 2.3c-1.2 0.1-2.3-1.2-2.7-2.1q-0.7-1.3-0.2-2.5q1.4 1.2 2.5 2.3z" /><path class="s14" d="m84.8 133l-8.6 4.9v-7.7l8.6-4.9z" /><path class="s15" d="m76.2 130.2v7.7l-1.7-1v-7.6z" /><path class="s14" d="m143 99.7l-8.6 4.9v-7.7l8.6-4.9z" /><path class="s15" d="m134.4 96.9v7.7l-1.7-1v-7.6z" /><path class="s14" d="m145 21.9v60c0 2.3-1.5 5.1-3.2 6.1l-77.1 44.5l0.2 3.7l-4.2-2.4h0.1c-0.8-0.3-1.2-1.3-1.2-2.6v-63.1c0-2.4 1.4-5.1 3.2-6.1l79-45.6c0.8-0.5 1.5-0.5 2-0.2l4.3 2.4z" /><path class="s6" d="m146.1 90.5l-79 45.6c-1.8 1-3.2-0.1-3.2-2.4v-63.1c0-2.4 1.4-5.1 3.2-6.2l79-45.6c1.8-1 3.2 0.1 3.2 2.4v63.2c0 2.3-1.4 5-3.2 6.1z" /><path class="s4" d="m146.5 83.3l-79.8 46.1v-61.1l79.8-46.1z" /><path class="s0" d="m115.1 106.3l-10.2 5.9c-0.5 0.3-0.9-0.1-0.9-0.8c0-0.7 0.4-1.5 0.9-1.8l10.2-5.9c0.5-0.3 1 0.1 1 0.8c0 0.7-0.5 1.5-1 1.8z" /><path class="s16" d="m143.7 82l-74.3 42.9v-55.3l74.3-42.8z" /><path class="s14" d="m213 135c-0.1 0.6-0.6 1.2-1.4 1.7l-76.3 44.1c-2 1.2-5.6 1-8-0.4l-58.3-33.6c-1.3-0.8-1.9-1.6-2-2.5v-5.3h5.3v0.9l72.4-41.8c2-1.2 5.6-1 8 0.3l55.1 31.8v-0.5l5.2 0.3z" /><path class="s6" d="m211.6 131.9l-76.3 44.1c-2 1.1-5.6 1-8-0.4l-58.3-33.7c-2.4-1.3-2.6-3.4-0.6-4.6l76.3-44c2-1.2 5.6-1.1 8 0.3l58.4 33.7c2.3 1.3 2.6 3.4 0.5 4.6z" /><path class="s17" d="m187.6 118.3l-75.6 43.6l-38.4-22.1l75.6-43.7z" /><path class="s17" d="m183.3 144.2l-26.7 15.4l-14.3-8.2l26.7-15.5z" /><path class="s14" d="m76.9 139.7l5.3-3.1l3.8 2.2l-5.3 3.1z" /><path class="s14" d="m82.4 142.9l5.3-3.1l3.8 2.2l-5.3 3.1z" /><path class="s14" d="m87.9 146.1l7.2-4.1l3.8 2.1l-7.2 4.2z" /><path class="s14" d="m156.2 106.7l3.4-2l9.3 5.3l-3.4 2z" /><path class="s14" d="m93.4 149.3l7.2-4.2l3.8 2.2l-7.2 4.1z" /><path class="s14" d="m99 152.4l9.4-5.4l3.8 2.2l-9.4 5.4z" /><path class="s14" d="m156.7 119.1l14.1-8.1l3.8 2.2l-14.1 8.1z" /><path class="s14" d="m104.5 155.6l5.3-3l3.8 2.2l-5.3 3z" /><path class="s14" d="m83.5 135.9l5.3-3.1l3.8 2.2l-5.3 3.1z" /><path class="s14" d="m89 139.1l5.3-3.1l3.8 2.2l-5.3 3.1z" /><path class="s14" d="m90.2 132l5.2-3l3.8 2.2l-5.2 3z" /><path class="s14" d="m95.7 135.2l5.3-3l3.8 2.2l-5.3 3z" /><path class="s14" d="m96.8 128.2l5.2-3l3.8 2.2l-5.2 3z" /><path class="s14" d="m102.3 131.4l5.3-3l3.8 2.2l-5.3 3z" /><path class="s14" d="m103.4 124.4l5.3-3.1l3.8 2.2l-5.3 3.1z" /><path class="s14" d="m108.9 127.6l5.3-3.1l3.8 2.2l-5.3 3.1z" /><path class="s14" d="m110 120.6l5.3-3.1l3.8 2.2l-5.3 3.1z" /><path class="s14" d="m115.5 123.8l5.3-3.1l3.8 2.2l-5.3 3z" /><path class="s14" d="m116.7 116.7l5.3-3l3.8 2.2l-5.3 3z" /><path class="s14" d="m122.2 119.9l5.3-3l3.8 2.1l-5.3 3.1z" /><path class="s14" d="m96.5 141.1l5.3-3.1l3.8 2.2l-5.3 3.1z" /><path class="s14" d="m102.1 144.3l5.2-3.1l3.8 2.2l-5.2 3.1z" /><path class="s14" d="m103.2 137.2l5.3-3l3.8 2.2l-5.3 3z" /><path class="s14" d="m108.7 140.4l5.3-3l3.8 2.2l-5.3 3z" /><path class="s14" d="m109.8 133.4l5.3-3l3.8 2.2l-5.3 3z" /><path class="s14" d="m115.3 136.6l5.3-3l3.8 2.2l-5.3 3z" /><path class="s14" d="m116.5 129.6l5.2-3.1l3.8 2.2l-5.2 3.1z" /><path class="s14" d="m122 132.8l5.3-3.1l3.8 2.2l-5.3 3.1z" /><path class="s14" d="m123.1 125.8l5.2-3.1l3.8 2.2l-5.2 3.1z" /><path class="s14" d="m128.6 129l5.3-3.1l3.8 2.2l-5.3 3.1z" /><path class="s14" d="m129.7 121.9l5.3-3l3.8 2.2l-5.3 3z" /><path class="s14" d="m135.3 125.1l5.2-3l3.8 2.2l-5.2 3z" /><path class="s14" d="m136.4 118.1l5.2-3l3.8 2.1l-5.2 3.1z" /><path class="s14" d="m141.9 121.3l5.3-3.1l3.8 2.2l-5.3 3.1z" /><path class="s14" d="m110.2 145.9l5.3-3l3.8 2.2l-5.3 3z" /><path class="s14" d="m116.9 142.1l5.3-3.1l3.8 2.2l-5.3 3.1z" /><path class="s14" d="m123.5 138.3l5.3-3.1l3.8 2.2l-5.3 3.1z" /><path class="s14" d="m130.1 134.4l5.3-3l3.8 2.2l-5.3 3z" /><path class="s14" d="m136.7 130.6l5.3-3l3.8 2.2l-5.3 3z" /><path class="s14" d="m143.4 126.8l5.3-3.1l3.8 2.2l-5.3 3.1z" /><path class="s14" d="m150 123l5.3-3.1l3.8 2.2l-5.3 3.1z" /><path class="s14" d="m143 114.3l5.3-3.1l3.8 2.2l-5.3 3z" /><path class="s14" d="m148.6 117.4l5.2-3l3.8 2.2l-5.3 3z" /><path class="s14" d="m149.6 110.4l5.3-3l3.8 2.2l-5.3 3z" /><path class="s14" d="m155.2 113.6l5.2-3l3.8 2.2l-5.3 3z" /><path class="s14" d="m123.3 112.9l5.3-3l3.8 2.2l-5.3 3z" /><path class="s14" d="m128.8 116.1l5.3-3.1l3.8 2.2l-5.3 3.1z" /><path class="s14" d="m130 109l5.3-3l3.8 2.2l-5.3 3z" /><path class="s14" d="m135.6 112.2l5.2-3.1l3.8 2.2l-5.2 3.1z" /><path class="s14" d="m136.6 105.2l5.3-3l3.8 2.1l-5.3 3.1z" /><path class="s14" d="m142.2 108.4l5.2-3.1l3.8 2.2l-5.2 3.1z" /><path class="s14" d="m143.3 101.3l5.3-3l3.8 2.2l-5.3 3z" /><path class="s14" d="m148.8 104.5l5.3-3l3.8 2.2l-5.3 3z" /><path class="s14" d="m111.1 151.8l5.3-3l3.8 2.2l-5.3 3z" /><path class="s14" d="m117.8 148l5.2-3.1l3.8 2.2l-5.2 3.1z" /><path class="s14" d="m152.4 128l5.2-3.1l3.8 2.2l-5.3 3.1z" /><path class="s14" d="m159 124.2l5.2-3.1l3.8 2.2l-5.3 3.1z" /><path class="s14" d="m165.6 120.3l5.3-3l3.8 2.2l-5.3 3z" /><path class="s14" d="m172.2 116.6l4-2.4l3.8 2.2l-4.1 2.3z" /><path class="s14" d="m124.4 144.1l26.7-15.4l3.8 2.2l-26.7 15.4z" /><path class="s0" d="m79.7 151.8l-7.5-4.3v-2.4l7.5 4.3z" /><path class="s0" d="m88.3 156.8l-7.5-4.3v-2.4l7.5 4.3z" /><path class="s18" d="m120.3 44.6l-0.5-0.4v47.9c0 0.6-0.3 1.2-0.7 1.4l-45.2 26.1l0.3 0.1l-0.9 1.7l-1.4-0.9q0 0-0.1 0q-0.2-0.2-0.2-0.5v-48.8c0-0.5 0.4-1.1 0.7-1.3l46.8-27q0.3-0.2 0.5 0q0 0 0 0l1.4 0.8z" /><path class="s19" d="m121.3 93c0 0.5-0.3 1.1-0.7 1.3l-46.8 27c-0.4 0.2-0.7 0-0.7-0.5v-48.7c0-0.6 0.3-1.1 0.7-1.4l46.8-27c0.4-0.2 0.7 0 0.7 0.5z" /><path class="s0" d="m119.9 92.6l-45.5 26.2v-43.4l45.5-26.2z" /><path class="s5" d="m120 47.6l-1.8 1.1v-2.5l1.8-1.1z" /><path class="s20" d="m117.2 49.3l-1.9 1v-2.4l1.9-1.1z" /><path fill-rule="evenodd" class="s5" d="m87.6 70.7q0.3 0 0.5 0.2q0.2 0.1 0.3 0.4q0.1 0.3 0.1 0.7q0 0.4-0.1 0.8q-0.1 0.4-0.3 0.8q0.2 0.2 0.3 0.4q0.1 0.3 0.1 0.7v2l-0.9 0.5v-2q0-0.3-0.1-0.4q-0.2-0.1-0.4 0l-0.9 0.5v2.7l-1 0.6v-6.6l1-0.6l0.9-0.5q0.3-0.2 0.5-0.2zm-0.1 2.5q0.1-0.4 0.1-0.7q0-0.3-0.1-0.4q-0.2-0.1-0.4 0l-0.9 0.6v1.4l0.9-0.5q0.2-0.1 0.4-0.4z" /><path class="s5" d="m90.2 74.5l2-1.2v1.2l-2.6 1.5l-0.3 0.2v-6.6l0.9-0.5l2-1.2v1.3l-2 1.1v1.5l1.6-0.9v1.2l-1.6 0.9z" /><path class="s5" d="m95.1 69.1q0.3 0 0.5 0.2q0.2 0.1 0.3 0.4q0.1 0.3 0.1 0.7q0 0.4-0.1 0.8q-0.1 0.5-0.3 0.8q-0.2 0.4-0.5 0.7q-0.3 0.3-0.6 0.5l-1.6 1v-1.3l1.6-0.9q0.2-0.1 0.4-0.5q0.2-0.3 0.2-0.6q0-0.3-0.2-0.4q-0.2-0.1-0.4 0l-0.2 0.1q-0.3 0.2-0.5 0.2q-0.3 0-0.5-0.1q-0.2-0.2-0.3-0.5q-0.1-0.3-0.1-0.7q0-0.4 0.1-0.8q0.1-0.4 0.3-0.8q0.2-0.4 0.5-0.7q0.2-0.3 0.5-0.5l1.7-0.9v1.2l-1.7 0.9q-0.2 0.2-0.3 0.5q-0.2 0.3-0.2 0.6q0 0.3 0.2 0.4q0.1 0.1 0.3 0l0.2-0.1q0.3-0.2 0.6-0.2z" /><path class="s5" d="m100 63.5v4.4q0 0.4-0.1 0.9q-0.2 0.5-0.4 0.9q-0.2 0.4-0.5 0.8q-0.3 0.3-0.7 0.5q-0.3 0.2-0.6 0.2q-0.3 0-0.5-0.2q-0.3-0.1-0.4-0.5q-0.1-0.3-0.1-0.7v-4.4l0.9-0.6v4.4q0 0.2 0.1 0.4q0 0.1 0.1 0.2q0.1 0.1 0.2 0.1q0.2 0 0.3-0.1q0.2-0.1 0.3-0.3q0.2-0.1 0.3-0.3q0.1-0.2 0.1-0.4q0.1-0.2 0.1-0.4v-4.4z" /><path class="s5" d="m104.2 61l0.9-0.5v6.6l-0.9 0.5v-4.1l-0.9 2.7l-0.8 0.4l-0.9-1.6v4.1l-0.9 0.5v-6.6l0.9-0.5l1.3 2.3z" /><path class="s5" d="m106.8 64.9l2-1.2v1.3l-2.6 1.5l-0.4 0.2v-6.6l0.9-0.5l2.1-1.2v1.2l-2 1.2v1.4l1.6-0.9v1.2l-1.6 1z" /><path class="s21" d="m96.1 103.2l-19 10.9v-27.6l19-11z" /><path class="s22" d="m87 106.2q-0.2 0.1-0.4 0.2q-0.1 0.1-0.3 0.2q-0.2 0.1-0.4 0.2q-2.7 1.2-4.6 1.2q2.6-3.6 2.6-4.7q0-1.2 0-3.4l2.7-1.5l2.8-1.7q0 2.2 0 3.4q0 1.2 2.6 1.7q-1.9 2.3-4.6 4.1q-0.2 0.2-0.4 0.3z" /><path class="s17" d="m90.3 89.8c0 3.3-1.7 8.3-3.8 9.5c-2 1.2-3.7-1.9-3.7-5.1c0-3.3 1.7-6.9 3.7-8.1c2.1-1.2 3.8 0.5 3.8 3.7z" /><path class="s17" d="m89.8 89.3q1.5-1.2 1.5 0.9q0 2.1-2.1 3.6z" /><path class="s17" d="m83.9 96.8q-2 0.9-2.1-1.1q0-2.1 1.6-2.6z" /><path class="s23" d="m90.2 91.9c-0.1 0.9-0.3 2.5-0.5 4c-0.3 2.3-1.2 4.3-3.1 5.2c0 0-0.1 0-0.1 0.1c-1.9 1.2-2.8 0.3-3.1-1.6c-0.2-1.3-0.4-2.7-0.5-3.5l0.2-0.2c0.4 0.7 0.9 1.6 1.2 1.5c0.2-0.1 1.3-1.9 2.4-2.5c1-0.6 1.9 0 2.2-0.2c0.2-0.2 0.8-1.7 1.1-2.7z" /><path class="s17" d="m86.7 98.3c0 0-0.1 0.1-0.1 0.1c-0.9 0.5-1.4-0.5-1.3-0.8c0.1-0.3 0.9-1.8 1.3-2q0 0 0 0q0-0.1 0-0.1q0 0 0 0q0.1 0 0.1 0c0.3-0.1 1.2 0.4 1.3 0.5c0.1 0.2-0.4 1.8-1.3 2.3z" /><path class="s23" d="m90.6 85q0 2.6-0.4 4.1c-0.6-0.4-0.8-2.3-1-2.4c-0.5-0.1-1.3 1-2.2 1.8c-0.1 0.1-0.7 0.5-0.8 0.5c-1 0.3-1.8 0.1-2.3 0.7c-0.2 0.4-0.4 2.5-1 3.6q-0.4-1-0.4-3.6c0-1 0.2-2 0.8-2.8c0.4-0.6 1.9-1.9 3.3-2.7c1.4-0.8 2.8-1.1 3.1-1c0.7 0.1 0.9 0.8 0.9 1.8z" /><path class="s23" d="m95.8 103.1v0.2l-9 5.2l-0.4 0.3l-8.9 5.1v-0.2c0-1.2 0.5-2.7 1.4-3.6c0.4-0.5 0.9-1 1.4-1.5q2-2.1 2.9-3.5c0 0 2.7 0.5 3.4 0.7c0.8-1 3.5-4.7 3.5-4.7q0.9 0.4 2.9 0.2c0.5-0.1 0.9-0.1 1.4-0.2c0.8 0 1.4 0.8 1.4 2z" /><path class="s17" d="m101 95.3l0.5 1.1l1.2-0.4l-0.9 1.6l0.2 1.4l-1-0.1l-1.1 1.3l0.2-1.6l-0.8-0.7l1.2-0.9z" /><path class="s23" d="m104.9 93l0.5 1.2l1.2-0.5l-0.9 1.6l0.2 1.4l-1-0.1l-1.1 1.3l0.2-1.6l-0.8-0.6l1.2-0.9z" /><path class="s23" d="m108.8 90.8l0.5 1.1l1.2-0.5l-0.9 1.6l0.2 1.4l-1-0.1l-1.1 1.4l0.2-1.7l-0.8-0.6l1.2-0.9z" /><path class="s23" d="m112.7 88.5l0.5 1.1l1.2-0.4l-0.9 1.6l0.2 1.4l-1-0.1l-1.1 1.3l0.2-1.7l-0.8-0.6l1.2-0.9z" /><path class="s23" d="m116.6 86.2l0.5 1.1l1.2-0.4l-0.9 1.6l0.2 1.4l-1-0.1l-1.1 1.3l0.2-1.6l-0.8-0.6l1.1-0.9z" /><path class="s23" d="m118.6 64.4l-19.7 11.4v-1.8l19.7-11.4z" /><path class="s23" d="m118.6 68.1l-19.7 11.4v-1.8l19.7-11.4z" /><path class="s17" d="m118.6 71.8l-19.7 11.4v-1.8l19.7-11.3z" /><path class="s17" d="m118.6 75.5l-19.7 11.4v-1.7l19.7-11.4z" /><path class="s17" d="m118.6 79.2l-19.7 11.4v-1.8l19.7-11.4z" /><path class="s17" d="m118.6 81.1v1.8l-11 6.4v-1.8z" /><path class="s18" d="m149.4 6l-0.5-0.4v47.9c0 0.5-0.3 1.1-0.7 1.4l-45.3 26.1l0.4 0.1l-0.9 1.6l-1.4-0.8q-0.1 0-0.1 0q-0.2-0.2-0.2-0.6v-48.7c0-0.5 0.3-1.1 0.7-1.3l46.8-27q0.3-0.2 0.5-0.1q0 0 0 0l1.4 0.8z" /><path class="s19" d="m150.4 54.3c0 0.6-0.3 1.2-0.7 1.4l-46.8 27c-0.4 0.2-0.7 0-0.7-0.5v-48.8c0-0.5 0.3-1.1 0.7-1.3l46.8-27c0.4-0.2 0.7 0 0.7 0.5z" /><path class="s0" d="m149 53.9l-45.5 26.3v-43.4l45.5-26.2z" /><path class="s5" d="m149.1 9l-1.8 1v-2.4l1.8-1.1z" /><path class="s20" d="m146.2 10.6l-1.8 1.1v-2.5l1.8-1z" /><path fill-rule="evenodd" class="s5" d="m116.7 32.1q0.3 0 0.5 0.2q0.2 0.1 0.3 0.4q0.1 0.3 0.1 0.7q0 0.4-0.1 0.8q-0.1 0.4-0.3 0.8q0.2 0.1 0.3 0.4q0.1 0.3 0.1 0.7v1.9l-0.9 0.6v-2q0-0.3-0.1-0.4q-0.2-0.1-0.4 0l-0.9 0.5v2.7l-1 0.5v-6.6l0.9-0.5l1-0.5q0.3-0.2 0.5-0.2zm-0.1 2.4q0.1-0.3 0.1-0.6q0-0.3-0.1-0.4q-0.2-0.1-0.4 0l-0.9 0.5v1.5l0.9-0.5q0.2-0.2 0.4-0.5z" /><path class="s5" d="m119.3 35.9l2-1.2v1.2l-2.6 1.5l-0.3 0.2v-6.6l0.9-0.5l2-1.2v1.2l-2 1.2v1.5l1.6-1v1.2l-1.6 1z" /><path class="s5" d="m124.2 30.5q0.3 0 0.5 0.1q0.2 0.2 0.3 0.5q0.1 0.3 0.1 0.7q0 0.4-0.1 0.8q-0.2 0.4-0.4 0.8q-0.2 0.4-0.4 0.7q-0.3 0.3-0.6 0.5l-1.7 0.9v-1.2l1.7-0.9q0.2-0.2 0.4-0.5q0.2-0.3 0.2-0.6q0-0.3-0.2-0.4q-0.2-0.1-0.4 0l-0.2 0.1q-0.3 0.2-0.5 0.2q-0.3 0-0.5-0.2q-0.2-0.1-0.3-0.4q-0.1-0.3-0.1-0.7q0-0.4 0.1-0.8q0.1-0.5 0.3-0.8q0.2-0.4 0.5-0.7q0.2-0.3 0.5-0.5l1.7-1v1.3l-1.7 0.9q-0.2 0.1-0.4 0.4q-0.1 0.4-0.1 0.7q0 0.3 0.1 0.4q0.2 0.1 0.4 0l0.2-0.1q0.3-0.2 0.6-0.2z" /><path class="s5" d="m129.1 24.8v4.4q0 0.5-0.2 1q-0.1 0.4-0.3 0.9q-0.2 0.4-0.5 0.7q-0.3 0.4-0.7 0.6q-0.3 0.2-0.6 0.2q-0.3 0-0.5-0.2q-0.3-0.2-0.4-0.5q-0.1-0.3-0.1-0.8v-4.4l0.9-0.5v4.4q0 0.2 0 0.4q0.1 0.1 0.2 0.2q0.1 0 0.2 0q0.2 0 0.3 0q0.2-0.1 0.3-0.3q0.1-0.1 0.2-0.3q0.1-0.2 0.2-0.4q0.1-0.3 0.1-0.5v-4.3z" /><path class="s5" d="m133.3 22.4l0.9-0.5v6.6l-0.9 0.5v-4.1l-0.9 2.6l-0.8 0.5l-0.9-1.6v4.1l-0.9 0.5v-6.6l0.9-0.5l1.3 2.3z" /><path class="s5" d="m135.8 26.3l2.1-1.2v1.2l-2.6 1.5l-0.4 0.2v-6.5l0.9-0.6l2.1-1.2v1.3l-2.1 1.1v1.5l1.7-0.9v1.2l-1.7 0.9z" /><path class="s21" d="m125.3 64.5l-19 11v-27.6l19-11z" /><path class="s24" d="m115.8 51.3q0.3-0.1 0 16.8l-6.6 3.8q-0.4-2.5 0.4-3.9c1-1.8 1.3-2.2 1.4-3c0-0.9-1.1-0.4-1.1-1.6c0-0.8 1-1.7 1.1-2.9q0.1-1-0.3-3.5l1.1-2.3q3.7-3.2 4-3.4z" /><path class="s24" d="m119.9 50l1.1 1.1q-0.4 2.9-0.3 3.8c0.1 1.1 1.1 0.8 1.1 1.6c0 1.2-1.1 2-1.1 2.9c0.1 0.8 0.4 0.7 1.4 1.3q0.8 0.5 0.4 3.5l-6.6 3.8q-0.3-16.6 0-16.7q0.3-0.2 4-1.3z" /><path class="s23" d="m124.5 65l-8.5 4.9l-0.4 0.2l-8.5 5q0-3.1 1-4.2q0.9-1 2.6-2.7l4.9-2.9l0.4-0.2l4.9-2.8q1.7-0.2 2.5-0.2q1-0.1 1.1 2.9z" /><path class="s22" d="m120.9 62.2q-1.2 3-4.2 5.2c-0.2 0.2-1.7 1.1-1.8 1.1q-3 1.2-4.2-0.3q3-3.5 3-5.2c0-0.6 0-1.2 0-1.8l4.1-2.3c0.1 0.5 0.1 1.1 0.1 1.7q0 1.7 3 1.6z" /><path class="s17" d="m119.4 53.1c0 3.1-1.6 8-3.6 9.1c-2 1.2-3.6-1.8-3.6-4.9c0-3.2 1.6-6.7 3.6-7.8c2-1.2 3.6 0.5 3.6 3.6z" /><path class="s24" d="m120 56.4c0.4-2.1-0.5-3.2-1.2-3.5c-0.5-0.1-1-0.2-1.4-0.5c-0.3-0.2-0.6-0.5-0.8-0.9c-1.6 2.8-4.4 4.9-5.2 8.3c-1.1-2-1.2-7.2 1.2-10.5c2-2.9 3.8-3 5-1.9c1.1-1.9 2.1-1.5 2.7-0.8c0.6 0.6 0.8 1.8 0.9 3c0.1 1.1 0 4.7-1.2 6.8z" /><path class="s23" d="m130.1 56.7l0.5 1.1l1.2-0.4l-0.9 1.5l0.2 1.5l-1-0.1l-1.1 1.3l0.2-1.7l-0.8-0.6l1.2-0.9z" /><path class="s23" d="m134 54.4l0.5 1.1l1.2-0.4l-0.9 1.6l0.2 1.4l-1-0.1l-1.1 1.3l0.2-1.7l-0.8-0.6l1.1-0.9z" /><path class="s23" d="m137.9 52.1l0.5 1.1l1.2-0.4l-0.9 1.6l0.2 1.4l-1-0.1l-1.1 1.3l0.2-1.6l-0.8-0.7l1.1-0.9z" /><path class="s23" d="m141.8 49.9l0.5 1.1l1.2-0.4l-0.9 1.5l0.2 1.5l-1-0.2l-1.1 1.4l0.2-1.7l-0.8-0.6l1.1-0.9z" /><path class="s23" d="m145.7 47.6l0.5 1.1l1.1-0.4l-0.8 1.6l0.2 1.4l-1-0.1l-1.1 1.3l0.2-1.7l-0.8-0.6l1.1-0.9z" /><path class="s23" d="m147.7 25.8l-19.7 11.4v-1.8l19.7-11.4z" /><path class="s23" d="m147.7 29.5l-19.7 11.4v-1.8l19.7-11.4z" /><path class="s17" d="m147.7 33.2l-19.7 11.4v-1.8l19.7-11.4z" /><path class="s17" d="m147.7 36.9l-19.7 11.4v-1.8l19.7-11.4z" /><path class="s17" d="m147.7 40.6l-19.7 11.3v-1.7l19.7-11.4z" /><path class="s17" d="m147.7 42.5v1.8l-11 6.4v-1.8z" /><path class="s18" d="m183.9 16.3l-0.5-0.4v47.9c0 0.5-0.3 1.1-0.7 1.3l-45.3 26.2l0.4 0.1l-0.9 1.6l-1.5-0.8q0 0 0 0q-0.2-0.2-0.2-0.6v-48.7c0-0.5 0.3-1.1 0.7-1.3l46.8-27.1q0.3-0.1 0.5 0q0 0 0 0l1.4 0.8z" /><path class="s19" d="m184.8 64.6c0 0.5-0.3 1.1-0.7 1.4l-46.8 27c-0.4 0.2-0.7 0-0.7-0.5v-48.8c0-0.5 0.3-1.1 0.7-1.3l46.8-27c0.4-0.3 0.7 0 0.7 0.5z" /><path class="s0" d="m183.5 64.2l-45.5 26.3v-43.4l45.5-26.2z" /><path class="s5" d="m183.6 19.3l-1.9 1v-2.4l1.9-1.1z" /><path class="s20" d="m180.7 20.9l-1.8 1.1v-2.5l1.8-1z" /><path fill-rule="evenodd" class="s5" d="m151.2 42.4q0.3 0 0.5 0.1q0.2 0.2 0.3 0.5q0.1 0.3 0.1 0.7q0 0.4-0.1 0.8q-0.1 0.4-0.3 0.8q0.2 0.1 0.3 0.4q0.1 0.3 0.1 0.7v1.9l-0.9 0.6v-2q0-0.3-0.2-0.4q-0.1-0.2-0.4 0l-0.9 0.5v2.7l-0.9 0.5v-6.6l0.9-0.5l0.9-0.5q0.3-0.2 0.6-0.2zm-0.2 2.4q0.2-0.3 0.2-0.6q0-0.3-0.2-0.4q-0.1-0.1-0.4 0l-0.9 0.5v1.5l0.9-0.5q0.3-0.2 0.4-0.5z" /><path class="s5" d="m153.7 46.2l2.1-1.2v1.2l-2.6 1.5l-0.4 0.2v-6.6l0.9-0.5l2.1-1.2v1.2l-2.1 1.2v1.5l1.7-1v1.2l-1.7 1z" /><path class="s5" d="m158.7 40.8q0.2 0 0.4 0.1q0.2 0.2 0.3 0.5q0.1 0.3 0.1 0.7q0 0.4-0.1 0.8q-0.1 0.4-0.3 0.8q-0.2 0.4-0.5 0.7q-0.2 0.3-0.5 0.5l-1.7 0.9v-1.2l1.7-0.9q0.2-0.2 0.4-0.5q0.1-0.3 0.1-0.6q0-0.3-0.1-0.4q-0.2-0.1-0.4 0l-0.2 0.1q-0.3 0.2-0.6 0.2q-0.2 0-0.4-0.2q-0.2-0.1-0.4-0.4q-0.1-0.3-0.1-0.7q0-0.4 0.1-0.8q0.2-0.5 0.4-0.9q0.2-0.3 0.4-0.6q0.3-0.3 0.6-0.5l1.6-1v1.3l-1.6 0.9q-0.2 0.1-0.4 0.4q-0.2 0.3-0.2 0.7q0 0.3 0.2 0.4q0.2 0.1 0.4 0l0.2-0.1q0.3-0.2 0.6-0.2z" /><path class="s5" d="m163.5 35.1v4.4q0 0.5-0.1 1q-0.1 0.4-0.3 0.9q-0.3 0.4-0.6 0.7q-0.3 0.4-0.6 0.6q-0.4 0.2-0.7 0.2q-0.3 0-0.5-0.2q-0.2-0.2-0.3-0.5q-0.2-0.3-0.2-0.8v-4.4l1-0.5v4.4q0 0.2 0 0.3q0.1 0.2 0.2 0.3q0.1 0 0.2 0q0.1 0 0.3 0q0.1-0.1 0.3-0.3q0.1-0.2 0.2-0.3q0.1-0.2 0.2-0.5q0-0.2 0-0.4v-4.4z" /><path class="s5" d="m167.7 32.7l1-0.5v6.6l-1 0.5v-4.2l-0.9 2.7l-0.7 0.5l-0.9-1.7v4.2l-0.9 0.5v-6.6l0.9-0.5l1.3 2.3z" /><path class="s5" d="m170.3 36.6l2-1.2v1.2l-2.5 1.5l-0.4 0.2v-6.6l0.9-0.5l2-1.2v1.3l-2 1.1v1.5l1.7-0.9v1.2l-1.7 0.9z" /><path class="s21" d="m159.7 74.8l-19 11v-27.7l19-10.9z" /><path class="s22" d="m150.4 77.9q-0.1 0.1-0.1 0.1q-0.1 0.1-0.2 0.1q-0.1 0.1-0.2 0.1q-2.7 1.3-5.9 0.8q1.9-2.4 2.8-3.6c0.8-1.2 1.2-3.6 1.2-4.8q0-1.2 0-2.4l2.2-1.3h0.1l2.2-1.3q0 1.2 0 2.4c0 1.2 0.4 3.1 1.2 3.4q0.9 0.2 2.8 0.4q-3.2 4.2-5.9 6q-0.1 0.1-0.2 0.1z" /><path class="s17" d="m153.8 60.2c0 3.2-1.6 8-3.5 9.2c-2 1.1-3.6-1.9-3.6-5c0-3.2 1.6-6.6 3.6-7.8c1.9-1.1 3.5 0.5 3.5 3.6z" /><path class="s17" d="m153.4 59.8q1.5-1.2 1.4 0.8q0 2-1.9 3.4z" /><path class="s17" d="m147.7 67q-1.9 0.8-2-1.1q0-2 1.5-2.6z" /><path class="s24" d="m147.3 58.1c1.8-4.4 4.3-5.3 6.2-4.3q2.7 1.4 0.3 7.4q-0.2-1.3-2.2-1q-2 0.3-3.1 0.6l-1.8 3.6c-1.1 0.1-1.7-4.2 0.6-6.3z" /><path class="s23" d="m159.7 74.8l-9.3 5.4l-0.4 0.2l-9.3 5.4q0.1-0.8 0.2-2c0.1-1.2 0.5-2.3 1.4-3.2q0.9-1 3.4-3.8c0.9 2.2 3.7 1 4.5 0.6c0.8-0.6 3.6-2.6 4.5-5.7q2.5-0.2 3.4-0.3c0.9 0 1.3 0.5 1.4 1.6q0.1 1.1 0.2 1.8z" /><path class="s17" d="m164.5 67l0.6 1.1l1.1-0.4l-0.8 1.5l0.2 1.5l-1.1-0.2l-1 1.4l0.2-1.7l-0.8-0.6l1.1-0.9z" /><path class="s23" d="m168.4 64.7l0.6 1.1l1.1-0.4l-0.8 1.6l0.2 1.4l-1.1-0.1l-1 1.3l0.2-1.7l-0.9-0.6l1.2-0.9z" /><path class="s23" d="m172.3 62.4l0.6 1.1l1.1-0.4l-0.8 1.6l0.2 1.4l-1.1-0.1l-1 1.3l0.2-1.6l-0.9-0.7l1.2-0.9z" /><path class="s23" d="m176.2 60.2l0.6 1.1l1.1-0.5l-0.8 1.6l0.2 1.5l-1.1-0.2l-1 1.4l0.2-1.7l-0.9-0.6l1.2-0.9z" /><path class="s23" d="m180.1 57.9l0.5 1.1l1.2-0.4l-0.8 1.6l0.2 1.4l-1.1-0.1l-1 1.3l0.2-1.7l-0.9-0.6l1.2-0.9z" /><path class="s23" d="m182.2 36.1l-19.7 11.4v-1.8l19.7-11.4z" /><path class="s23" d="m182.2 39.8l-19.7 11.4v-1.8l19.7-11.4z" /><path class="s17" d="m182.2 43.5l-19.7 11.4v-1.8l19.7-11.4z" /><path class="s17" d="m182.2 47.2l-19.7 11.4v-1.8l19.7-11.4z" /><path class="s17" d="m182.2 50.9l-19.7 11.3v-1.7l19.7-11.4z" /><path class="s17" d="m182.2 52.8v1.8l-11.1 6.4v-1.8z" /><path class="s17" d="m232.4 88.6c0.6 0.2 5.1 0 6.7 4.2c1.6 4.3 3 8.3 3.5 10.5c0.6 2.3-0.2 4.7-3.5 7.7q-3.3 3-4.8 3.7q-3.4-3.2-3.9-7.4q-0.5-4.2 2-18.7z" /><path class="s25" d="m230.4 97.8l11.7 6.7l-0.1 10l-11.6-6.7z" /><path class="s5" d="m229.4 98.3l11.7 6.8l-0.1 10l-11.6-6.8z" /><path class="s2" d="m241.1 105.1l1-0.6l-0.1 10l-1 0.6z" /><path class="s26" d="m242.1 104.5l-1 0.6l-11.7-6.8l1-0.5z" /><path class="s6" d="m230.7 98.5v-1.2l11.7 6.8l-0.1 10l-0.8-0.5l0.1-8.8z" /><path class="s3" d="m215.2 162.2q0.8-0.5 6.1 0.9l5.7 2l-0.4 4.3q-2 2.1-4.9 0.2c-1.6-1.1-4.9-2.6-6.1-4.3c-0.9-1.3-1.2-2.6-0.4-3.1z" /><path class="s3" d="m229.3 153.8q0.9-0.5 6.2 1l5.7 1.9l-0.4 4.3q-2.1 2.2-4.9 0.3c-1.7-1.1-4.9-2.6-6.2-4.4c-0.8-1.2-1.2-2.6-0.4-3.1z" /><path class="s4" d="m236.7 114.4q2.6 2.6 3 8q0.2 2.4-1.1 12.8q2 5.4 2.5 8.9q0.6 4.1 0.4 12.1c-0.3 1.1-1.4 2.1-3.7 2q-2.2-0.2-3.9-3.1q-0.8-6.7-1.5-11.1c-0.4-2.5-0.9-4.2-1.1-6.3q-0.1-2.4-0.4-8.3q-2.7 11-3.6 14.3c1.7 5.6 0.2 20.8 0 22c-3.4 2.6-5.5 0.1-6.9-2.1c0.1-3.4-0.4-9.3-0.5-14c-0.1-3.7-0.1-5.3-0.1-6.5c-0.2-2.5 0.9-9.8 1.5-15.4q0.7-6.5 0.8-11.2z" /><path class="s6" d="m226.7 92.9c3.9 0 4.8-2.9 6.4-3c2.1 0.1 3.9 0.8 4.3 2.4c1.1 3.5 1.2 4.8 1.1 7.4c-0.1 3.6-0.7 7.1-1.6 11.5c-0.3 1.8 1.3 4.8 1.2 5.4c-1.7 2.9-5.1 4.5-8.1 4.8c-3.6 0.4-6.8-1.1-8-2.3c-0.6-2.2 0.9-5.9 1-9.5c0.1-2-1-7.6 0.2-11.2c1.1-3.3 0.8-3.9 3.5-5.5z" /><path class="s11" d="m228.8 93.5q0.6-1.6 0-4l4.9-1.2l0.6 3.5c-1.8 0.9-3.5 1.5-5.5 1.8q0 0 0-0.1z" /><path class="s8" d="m233.7 88.3c-1.9 1.9-4.6 2.6-6 2.3c-1.1-0.2-2.4-1.8-2.6-3.6c-0.2-2-0.1-5.3 2.1-7.3c3.5-3.3 7.3-0.9 8.2 1.3c0.8 1.6 0.4 5.2-1.7 7.3z" /><path class="s12" d="m236.1 87.5q-1.5 1.7-3.2 4.3q-3.7-1.6-3.1-4.1c0.8-1 1.3-1.6 0.9-2.5c-0.3-0.6-0.9-0.6-1.4-0.3c-0.2-0.2-0.8-1.8-0.9-2.1q-2.6-1.1-3.3-3.9q0.7 0 1.6-0.3c-0.5-0.5-0.4-0.9-0.3-1.8c0.3 0.3 0.9 0.9 1.8 0.7c0.8-0.1 1.4-0.4 2.5-0.7c3.3-0.7 4.6 0.9 5.2 3.6c2.3 1.7 1.8 5.4 0.2 7.1z" /><path class="s17" d="m234.3 90q1.1 1.2 0.6 1.8c-0.4 0.5-2 1.4-3 1.8q-2 0.8-5.2-0.7q2.1-0.5 4-1.4q2.3-1.1 3.6-1.5z" /><path class="s8" d="m201.4 86.1q-2.7-0.9-4.3-1.7c-1.6-0.9-0.9-3.4-0.6-4.3c-0.2-0.2-0.5-0.5-0.8-0.8c-0.4-0.3-1.4-0.8-1.4-1.3c0.1-0.8 1.9 0.2 3.7 1.5q1.7 1.2 5.4 3.4z" /><path class="s17" d="m228.2 99c-0.3 2.3-1.2 4.7-2.7 5.7c-1.7 1.3-5.6-4.2-8.2-6.1c-2.6-1.8-8.4-5.6-9.6-6.7c-3-2.5-5.3-3.8-6.4-4.9c-1-0.8-0.7-2.2 0-3.3c1-1.7 1.9-1.4 2.5-1.2c0.6 0.3 3.6 1.4 6.1 2.8c3.2 1.7 7.6 4.1 9.5 4.9c2.7 1.2 6.1 2.3 7.6 3.9c1.1 1.2 1.4 2.7 1.2 4.9z" /><path class="s8" d="m203 43.2c-0.7 3.7-0.8 8.8-2.1 10.7c-0.6 0.8-1.1 1.9-2.6 2c-1.9 0-6.5-1.1-7.5-1.3c-1.1-0.2-2.4-0.3-3.4-0.3c-1.8 0.2-2.9-0.6-3.3-1c-1-1.1-0.9-1.4-2-3c-0.5-0.8-0.9-2.2-0.1-2.8c0.9-0.7 2.6-0.2 3.8 1.1c1.1 1.1 2.1 2.2 3.6 2.5q1.5 0.2 7.5 0q-0.3-1.6 0.1-3.5c0.4-2.7-0.2-4.1 0.5-6c0.7-2.4 2.4-4.5 3.3-4.9c1.9 1.7 2.9 2.9 2.2 6.5z" /><path class="s12" d="m203.8 40.2q0.1 1.8-0.9 7.8c-0.6 0.5-0.7 1-2.9 0.9q-2.1-0.2-3.9-1.5q0.3-4.5 1.7-7.6q1.4-3.1 2.6-3.5q3.3 1.5 3.4 3.9z" /><path class="s22" d="m134.3 212.8h1.7l41.6-24c2.1-1.2 5.8-1.1 8.2 0.3l28.1 16.2q0.4 0.3 0.8 0.5h1.2v2.3c0 0.7-0.4 1.5-1.4 2l-20.8 12l1.2 0.7q0.5 0.3 0.8 0.5h1.2v2c0.1 0.9-0.4 1.7-1.4 2.2l-17.2 10c-2.1 1.2-5.8 1-8.3-0.4l-5.5-3.2l-17.6-10.1l-10.5-6.1c-1.4-0.8-2-1.8-2-2.7h-0.1z" /><path class="s27" d="m214.5 208l-20.8 12l1.2 0.7c2.4 1.4 2.7 3.6 0.6 4.8l-17.2 9.9c-2.1 1.2-5.8 1.1-8.3-0.3l-5.5-3.3l-17.6-10.1l-10.5-6.1c-2.5-1.4-2.7-3.5-0.6-4.7l41.8-24.2c2.1-1.2 5.8-1.1 8.2 0.3l28.1 16.3c2.5 1.4 2.7 3.5 0.6 4.7z" /><path class="s23" d="m208.3 204.9l-17.3 10l-1.5-0.9l17.3-10z" /><path class="s23" d="m204.9 202.9l-17.3 10l-1.6-0.9l17.3-10z" /><path class="s17" d="m199.9 200l-17.3 10l-1.5-0.9l17.3-10z" /><path class="s17" d="m196.5 198l-17.3 10l-1.6-0.9l17.3-10z" /><path class="s17" d="m193 196l-17.3 10l-1.6-0.9l17.3-10z" /><path class="s17" d="m171 200.7l-2 0.9l-0.2-1.6l-2.3-1l2.5-0.3l0.6-1.5l1.8 1.4h2.7l-1.5 1.2l1.1 1.5z" /><path class="s17" d="m176.7 197.5l-2.1 0.8l-0.1-1.5l-2.4-1l2.6-0.4l0.6-1.4l1.7 1.3l2.7 0.1l-1.5 1.2l1.1 1.5z" /><path class="s23" d="m182.3 194.2l-2.1 0.9l-0.1-1.6l-2.3-1l2.5-0.3l0.6-1.5l1.7 1.4h2.7l-1.4 1.2l1 1.5z" /><path class="s0" d="m186.9 217.3l-20.7 11.9l-26-15l20.6-12z" /><path class="s22" d="m153.5 209q3.1-1.5 6.3-2.1q-0.9 2.7 0.2 3.4q1.1 0.6 3.2 1.8l-3 1.7l-3 1.7q-2-1.2-3.1-1.8q-1.1-0.6-5.9-0.1q1-1.8 3.7-3.7q0.1-0.1 0.3-0.3q0.2-0.1 0.4-0.2q0.2-0.1 0.4-0.2q0.2-0.1 0.5-0.2z" /><path class="s17" d="m171.7 220.6c-2.3 1.3-6.6 0.9-9.7-0.9c-3-1.8-5-5-2.8-6.3c2.3-1.3 7.9-0.2 11 1.6c3 1.8 3.7 4.3 1.5 5.6z" /><path class="s17" d="m165.9 213.9q2.5-1.2 4.5-0.1q2 1.1 0 1.9z" /><path class="s17" d="m163.4 219.8q-1.4 1.1-3.3 0q-1.9-1.2 0-2.6z" /><path class="s23" d="m168 214.1c-1.1-0.2-2.9-0.6-3.2-0.4c-0.3 0.1-0.2 1.4-1.3 2c-1.2 0.7-3.5 0.7-3.7 0.9c-0.3 0.2 0.3 1.2 0.7 1.8l-0.2 0.1c-0.7-0.5-2-1.4-3-2.3c-1.6-1.4-2.1-2.7 0.2-3.8c0 0 0-0.1 0.1-0.1c1.9-1.3 4.2-1 6.5-0.1c1.6 0.6 3.2 1.4 4.1 1.8z" /><path class="s17" d="m163.1 213.8c0.1 0.2 0.1 1.3-0.3 1.5q0 0 0 0q0 0 0 0q0 0 0 0q0 0 0 0c-0.5 0.3-2.3 0.2-2.6 0.2c-0.4-0.1-1.1-1.1-0.1-1.7c0 0 0.1 0 0.1 0c1-0.6 2.8-0.2 2.9 0z" /><path class="s23" d="m176.2 219.1c-0.2 0.4-1.2 1.5-2.7 2.4c-1.6 0.9-3.6 1.6-4.3 1.7c-1.2 0.1-2.2-0.2-3.1-0.8q-2.5-1.4-3.2-2.3c1.3 0 3.4 1 3.9 1c0.9-0.1 1.1-1 1.9-1.8c0.1-0.1 0.7-0.4 0.9-0.5c1.3-0.4 2.7-0.5 2.9-1c0.1-0.3-1.7-1.5-1.7-2.3q1.6 0.4 4.1 1.8c0.9 0.6 1.5 1.2 1.3 1.8z" /><path class="s23" d="m161.7 205c-0.2 0.4-0.5 0.8-0.8 1.2q-1.3 1.8-1.4 2.8c0 0-5 0.6-6.3 0.8c-0.3 0.8-1.3 3.6-1.3 3.6q-1.8 0.1-4.9 0.8c-0.6 0.2-1.4 0.4-2.1 0.5c-1.3 0.3-3 0.1-4.2-0.6l-0.2-0.1l9.8-5.7l0.4-0.2l9.7-5.6l0.3 0.1c1.1 0.7 1.6 1.6 1 2.4z" /><path class="s22" d="m216.6 200.3c-0.1 1-0.8 1.9-2 2.6l-28.6 16.5c-2.5 1.4-6.2 1.6-8.4 0.4l-42.5-24.6c-0.9-0.5-1.4-1.3-1.4-2.1v-2.1h1.2q0.4-0.3 0.8-0.6l10.8-6.2l17.8-10.3l5.7-3.3c2.4-1.4 6.2-1.5 8.3-0.3l17.5 10.1q0.3 0.1 0.5 0.3h1v1.7q0 0 0 0.1v0.2c-0.1 0.9-0.8 1.8-2.1 2.5l-1.2 0.7l21.2 12.2q0.2 0.1 0.4 0.3h1v1.7q0 0 0 0.1z" /><path class="s27" d="m214.5 200.8l-28.5 16.5c-2.5 1.4-6.2 1.6-8.4 0.3l-42.5-24.5c-2.1-1.2-1.8-3.4 0.6-4.8l10.8-6.2l17.8-10.3l5.7-3.3c2.4-1.4 6.2-1.6 8.3-0.3l17.5 10.1c2.2 1.2 1.9 3.4-0.6 4.8l-1.2 0.7l21.1 12.2c2.2 1.2 1.9 3.4-0.6 4.8z" /><path class="s0" d="m160.6 201.9l-21-12.2l26.4-15.2l21 12.1z" /><path class="s22" d="m152.5 194.7q-0.1-0.1-0.2-0.1q-0.1-0.1-0.2-0.1q-0.1-0.1-0.2-0.2q-2.6-1.8-4-5.1q3.4 0.5 5 0.6c1.6 0.1 4.1-0.8 5.3-1.5q1.1-0.6 2.3-1.3l2.4 1.4l2.5 1.5q-1.1 0.6-2.3 1.3c-1.1 0.7-2.7 2.1-2.5 3q0.2 1 1 2.9q-5.7-0.8-8.9-2.3q-0.1 0-0.2-0.1z" /><path class="s17" d="m171.3 188.2c-3 1.7-8.5 2.9-10.7 1.6c-2.2-1.3-0.2-4.4 2.8-6.2c3-1.7 7.2-2.1 9.4-0.8c2.2 1.2 1.5 3.7-1.5 5.4z" /><path class="s17" d="m171.5 187.5q1.9 0.8 0 1.9q-1.9 1-4.4-0.1z" /><path class="s17" d="m161.5 186.1q-1.9-1.4-0.1-2.6q1.9-1.1 3.3 0.1z" /><path class="s24" d="m169.7 180.8c5.2-0.7 7.4 1.1 7.5 3.5q0.2 3.4-6.8 4.4q1.1-0.9-0.3-2.6q-1.4-1.7-2.3-2.7l-4.4 0.2c-0.7-0.9 3.1-3.9 6.3-2.8z" /><path class="s23" d="m160.6 201.9l-10.3-6l-0.4-0.2l-10.3-6q0.8-0.4 2-0.9c1.2-0.6 2.4-0.8 3.9-0.4q1.4 0.3 5.5 1.2c-1.7 2 1.1 4 1.9 4.6c0.9 0.4 4.4 2 7.9 1.1q1.6 2.3 2.1 3.2c0.6 0.8 0.3 1.5-0.7 2.2q-0.9 0.7-1.6 1.2z" /><path class="s23" d="m207.3 200.1l-17.6-10.1l1.6-1l17.6 10.2z" /><path class="s23" d="m203.7 202.1l-17.5-10.1l1.6-0.9l17.6 10.1z" /><path class="s17" d="m198.7 205l-17.6-10.1l1.7-0.9l17.5 10.1z" /><path class="s17" d="m195.2 207.1l-17.6-10.2l1.6-0.9l17.6 10.1z" /><path class="s17" d="m191.7 209.1l-17.6-10.1l1.6-1l17.6 10.2z" /><path class="s17" d="m173.6 202.8l-1 1.5l1.4 1.2l-2.7 0.1l-1.7 1.4l-0.7-1.5l-2.5-0.4l2.3-1l0.2-1.6l2.1 0.9z" /><path class="s17" d="m179.4 206.1l-1.1 1.5l1.5 1.2l-2.8 0.1l-1.7 1.4l-0.6-1.5l-2.6-0.4l2.3-1l0.2-1.6l2.1 0.9z" /><path class="s23" d="m185.1 209.4l-1.1 1.5l1.5 1.2l-2.8 0.1l-1.7 1.4l-0.6-1.5l-2.6-0.4l2.4-1l0.1-1.6l2.1 0.9z" /><path class="s22" d="m7.3 189.1q0-0.1 0-0.1v-1.7h1q0.2-0.2 0.4-0.3l21.1-12.2l-1.2-0.7c-1.2-0.7-1.9-1.6-2-2.5v-0.2q0-0.1 0-0.1v-1.7h1q0.2-0.2 0.4-0.3l17.5-10.1c2.1-1.3 5.9-1.1 8.4 0.3l5.7 3.3l17.8 10.3l10.7 6.2q0.5 0.3 0.9 0.6h1.2v2.1h-0.1c0 0.8-0.4 1.6-1.4 2.1l-42.5 24.6c-2.1 1.2-5.9 1-8.4-0.4l-28.5-16.5c-1.3-0.7-2-1.7-2-2.6z" /><path class="s27" d="m8.7 184.8l21.1-12.2l-1.2-0.7c-2.4-1.4-2.7-3.6-0.6-4.8l17.5-10.1c2.1-1.3 5.9-1.1 8.4 0.3l5.7 3.3l17.8 10.3l10.7 6.2c2.5 1.4 2.7 3.6 0.6 4.8l-42.5 24.5c-2.1 1.3-5.9 1.1-8.4-0.3l-28.5-16.5c-2.5-1.4-2.7-3.6-0.6-4.8z" /><path class="s0" d="m36.8 175.4l21-12.1l26.4 15.2l-21 12.2z" /><path class="s24" d="m61.3 172.3l2.8 0.3q2.1 1.7 3.1 2.2c1.2 0.5 2.7 0.1 3.5 0.5c1.1 0.7 0 1.4 0.9 1.9c0.8 0.4 1.3 0.3 3.6 0.3q1.7 0.1 4 1.8l-7.3 4.2q-16.3-9.1-16-9.2q0.3-0.2 5.4-2z" /><path class="s24" d="m55.7 174.4q0.3-0.2 16 9.2l-7.2 4.2q-3.1-1.3-3.1-2.3c-0.1-1.3 0.2-1.6-0.6-2.1c-0.8-0.5-2.2 0.2-3.3-0.5c-0.8-0.4 0.1-1.3-0.9-2q-0.8-0.6-3.8-1.8l-0.4-1.6q3-3 3.3-3.1z" /><path class="s23" d="m61.9 187.5q0.5-0.8 1.6-2.3l5.4-3.2l0.5-0.2l5.4-3.1q2.6-0.7 4-1q1.6-0.3 4.5 1.3l-9.3 5.5l-0.5 0.2l-9.3 5.4q-2.9-1.7-2.3-2.6z" /><path class="s22" d="m63.6 181.4c-0.6-0.3-1.2-0.7-1.7-1l4.5-2.6c0.6 0.3 1.2 0.6 1.8 0.9q1.6 1 6.6 0q0.8 2-2 4.2c-0.1 0.1-1.8 1.1-2 1.2q-3.9 1.6-7.3 1.1q1.7-2.9 0.1-3.8z" /><path class="s17" d="m54.1 173.3c2.2-1.3 6.4-0.9 9.4 0.8c3 1.8 5 4.9 2.8 6.2c-2.2 1.2-7.7 0.1-10.7-1.6c-3-1.7-3.7-4.2-1.5-5.4z" /><path class="s24" d="m51.2 178.5c-1.1-0.7-2.1-1.6-2.4-2.5c-0.2-1-0.1-2.2 2.3-2.2c-0.4-1.7 0.7-3.3 4.6-3.7c4.5-0.4 9.3 2.5 10.7 4.7c-3.7-1.1-7.3 0.4-10.8 0.3c0.3 0.4 0.4 0.9 0.4 1.3c0 0.6-0.1 1.1-0.3 1.7c-0.2 0.8 0.5 2.2 2.7 3c-2.7 0-6.2-1.9-7.2-2.6z" /><path class="s23" d="m15 188l17.5-10.2l1.7 1l-17.6 10.1z" /><path class="s23" d="m18.5 190l17.6-10.2l1.6 1l-17.6 10.1z" /><path class="s17" d="m23.5 192.9l17.6-10.2l1.6 1l-17.6 10.1z" /><path class="s17" d="m27 194.9l17.6-10.1l1.6 0.9l-17.6 10.2z" /><path class="s17" d="m30.5 197l17.6-10.2l1.6 0.9l-17.5 10.2z" /><path class="s17" d="m52.9 192.2l2.1-0.9l0.1 1.6l2.4 1l-2.6 0.4l-0.6 1.5l-1.8-1.4l-2.7-0.1l1.5-1.2l-1.1-1.5z" /><path class="s23" d="m47.2 195.5l2-0.9l0.2 1.6l2.4 1l-2.6 0.4l-0.6 1.5l-1.8-1.4l-2.7-0.1l1.5-1.2l-1.1-1.5z" /><path class="s23" d="m41.4 198.8l2.1-0.9l0.2 1.6l2.3 1l-2.5 0.4l-0.7 1.5l-1.7-1.4l-2.7-0.1l1.4-1.2l-1-1.5z" /><path class="s8" d="m86 186.9c-0.8-1.2-1.7-2.3-2.5-3.5c1.7-2.3 5.7-4.2 6.8-5.5c1.2-1.4 2.2-1.4 3.4-0.2c1.1 1.2-0.3 2.2-0.8 2.5c-0.3 0.1-1.1 0-2 0.3c-0.7 0.2-2.1 1.8-4.2 5.5c-0.1 0.2-0.4 0.6-0.7 0.9z" /><path class="s28" d="m105.4 175.7l-3.2 18.6c-0.1 0.5-0.4 0.8-0.7 1l-0.6 0.3l-0.5-0.3h0.1q-0.1 0-0.1-0.1l-8.9-5.1c-0.9-0.5-1.4-1.7-1.2-2.6l3.3-18.6q0-0.1 0-0.1v-0.6l0.7-0.4c0.3-0.1 0.7-0.1 1.1 0.1l8.9 5.2c0.8 0.4 1.3 1.6 1.1 2.6z" /><path class="s3" d="m99.7 195.6l-8.9-5.1c-0.8-0.5-1.3-1.7-1.1-2.7l3.2-18.6c0.2-1 1-1.4 1.8-0.9l8.9 5.1c0.9 0.5 1.4 1.7 1.2 2.7l-3.3 18.6c-0.1 0.9-1 1.4-1.8 0.9z" /><path class="s0" d="m100.4 194.7l-9.9-5.7l3.6-19.9l9.8 5.7z" /><path class="s17" d="m96.3 175.9l-2.4-1.5l0.7-4.2l2.4 1.4z" /><path class="s17" d="m100.8 188.9l-2.5-1.4l0.8-4.2l2.4 1.4z" /><path class="s17" d="m103.2 175.2l-0.1 0.5l-3.8-2.1l0.1-0.6z" /><path class="s17" d="m103 176.3l-0.1 0.6l-3.8-2.2l0.1-0.6z" /><path class="s17" d="m102.8 177.4l-0.1 0.6l-3.8-2.2l0.1-0.5z" /><path class="s17" d="m102.6 178.6l-0.1 0.5l-3.8-2.1l0.1-0.6z" /><path class="s17" d="m102.3 180l-0.1 0.6l-8.6-4.9l0.2-0.6z" /><path class="s17" d="m102.1 181.2l-0.1 0.5l-8.6-4.9l0.2-0.6z" /><path class="s17" d="m101.9 182.3l-0.1 0.6l-8.6-5l0.2-0.5z" /><path class="s17" d="m101.7 183.4l-0.1 0.6l-8.6-4.9l0.2-0.6z" /><path class="s17" d="m100.6 189.5l-0.1 0.6l-8.5-4.9l0.1-0.6z" /><path class="s17" d="m100.4 190.7l-0.1 0.6l-8.5-5l0.1-0.6z" /><path class="s17" d="m100.2 191.8l-0.1 0.6l-8.5-5l0.1-0.5z" /><path class="s17" d="m100 192.9l-0.1 0.6l-8.5-4.9l0.1-0.6z" /><path class="s17" d="m98.4 183.7l-5.6-3.3l0.1-0.6l5.6 3.3z" /><path class="s17" d="m98.2 184.8l-5.6-3.2l0.1-0.6l5.6 3.2z" /><path class="s17" d="m98 185.9l-5.6-3.2l0.1-0.6l5.6 3.3z" /><path class="s17" d="m97.8 187.1l-5.6-3.3l0.1-0.6l5.6 3.3z" /><path class="s17" d="m99 168.3l1.1-0.6l0.5 0.3l-0.7 1z" /><path class="s17" d="m102.9 170.7l-0.3 1.4l-0.7-0.4l-0.5 0.9l-3.7-2.1l-0.6-1.9l1-0.6l0.9 0.5c0.4 0.2 0.9 0.2 0.9 0c0-0.2-0.1-0.6 0.2-0.8q0.2-0.2 0.7 0q0.5 0.3 0.6 0.7c0.1 0.4-0.1 0.7-0.2 0.9c0 0.1 0.4 0.7 0.8 1z" /><path class="s19" d="m101.8 171.3l-0.4 2.5l-4.7-2.7l0.4-2.5l0.8 0.5c0.4 0.2 1 0.2 1 0c0-0.1-0.1-0.6 0.1-0.8q0.3-0.2 0.8 0.1q0.4 0.2 0.6 0.6c0.1 0.5-0.2 0.7-0.2 0.9c0 0.2 0.4 0.7 0.8 1z" /><path class="s18" d="m101.8 172.4l-0.2 1.3l-0.2 0.1l0.4-2.5l1.1-0.6l-0.3 1.4l-0.2-0.1z" /><path class="s18" d="m100.5 172l-2.6-1.5c-0.1-0.1-0.2-0.2-0.2-0.4c0.1-0.1 0.2-0.2 0.3-0.1l2.6 1.5c0.1 0.1 0.2 0.2 0.2 0.4c-0.1 0.1-0.2 0.2-0.3 0.1z" /><path class="s4" d="m86.6 197.9q4.7 3.3 8 5.5q3.3 2.2 4.3 2.7l-4.3 2.6q-8.9-1.7-9.9-4.8q-0.9-3.1 1.9-6z" /><path class="s4" d="m104.7 205.1l-3.4 2q-7.5 3.8-10.5 4.1c-2.9 0.3-6.3-2.2-7.7-4.1q-1.5-1.9 2.9-3.6q2.8-0.1 4-0.2c2.9-0.3 7-0.5 8.9-0.5q2.1 0 5.8 2.3z" /><path class="s12" d="m79.1 180.4q-1.2 12.8-4.7 9.8c-3.4-3-2.3-8.3-0.2-10.3c2.5-2.4 3.6-0.1 4.9 0.5z" /><path class="s8" d="m87.2 171.4c0.5 3.3-0.6 4.8-1.6 5.7q-0.4 0.3-1.9 0.4l0.1 3.7q-2.2 0.8-4.3 0q-2-0.9-2-0.9q0.8-1.4 0.6-3.8c-0.1-3-1.2-7.2-0.4-8.8c1.3-2.9 4.4-3.2 6.1-2.1c0.6 0.4 2.8 0.9 3.4 5.8z" /><path class="s4" d="m92.7 207.5q-3.4 0.8-3.9 0l-1.1-2.5q3.3-0.2 5.2-0.7q1.7-0.4 5.2-0.4q-2 2.8-5.4 3.6z" /><path class="s4" d="m103.3 204.4q0.7 0.3 1.4 0.7c2.4 1.5 0.6 4.8-1.4 7.3c-1.8 2.1-10.9 6.3-16.8 7.2c-5.9 0.9-7.4-1.1-9.1-2c-3-1.7-5.9-4.3-3.8-10.4q1.1-3.4 8.8 0.5q10.7-2.4 15.7-3.8c2-0.5 3.8-0.2 5.2 0.5z" /><path class="s13" d="m89.4 206.8c0.7 3 0.1 3.7-1.5 4.8c-1.6 1.1-3.8 1.5-5.5 1.5c-2.7 0-8.4-2.9-9.5-5.7q0.2-0.8 0.3-1.2c2.1-5.2 1.6-8.1 1.5-9.3c-0.6-4.3-1.1-7-1.1-10.5q0-5.7 3.8-6.9l6.4 0.7q4.4 1.3 5.1 3c0.8 1.7 1.7 6.2 0.5 8.8c-2.5 5.3-0.2 13.9 0 14.8z" /><path class="s12" d="m85.4 181.2c-2.1 1-4 1.1-6.1 0.4q-2.1-0.6-2.4-1.7l0.7-1.5q0 0 2.1 0.8q2.1 0.7 4 0q1.7 0.6 1.7 2z" /><path class="s4" d="m85.9 165.6c2.3 0.1 2.4 2.7 2.3 4c-0.9 1.4-2.4 2.3-3.6 3.6c-1.2 1.3-3.4 4.9-5.6 5.1c-0.2-0.8-0.8-1.4-1.4-1.9c-1.1-1.2-2.3-3.4-2.3-4.7c0-6.3 2.6-8.4 5.5-8.4c3.4 0 4.2 1.2 5.1 2.3z" /><path class="s8" d="m85.9 172.2l-0.5 2.7q-1.8-0.7-1.3-2.7q0.5-2.2 1.8 0z" /><path class="s8" d="m87.8 184.6q1.8-0.3 3 1.1c1.2 1.3 5.7 6.6 6.5 7.6c0.1 1.3-1 3.2-1.8 4.4c-2.6-0.3-5.8-4.2-7.1-6.1c-1.6-2.3-4.1-4.1-0.6-7z" /><path class="s12" d="m89.7 194.9c-1.9-2.3-4-4.7-4.6-7.5q-0.8-3.4 0.4-4.5c2-1.5 4.5-1.2 6.7 2.3c0.8 1.2 1.8 2.7 2.7 4.3c-0.6 2.5-2.8 4.4-5.2 5.4z" /><path class="s4" d="m73.1 184.7c1-2.4 4.4-4.5 4.5-7.1q0-0.4-0.1-0.8q1.3 0.6 2.8 1c-0.9 1.1-0.7 6.6-2.7 10.5q-2.1 4.4-0.9 5.2q-6-2-3.6-8.8z" /><path class="s13" d="m81.2 177.1c-0.1 0.5-0.8 1.5-1.3 1.7c-0.6 0.2-2.1-0.3-2.6-0.7q-0.3-0.4-0.2-2.4q2.1 1.3 4.1 1.4z" /><path class="s8" d="m95.5 193.2q3.7-3.9 4.2-4.9c0.5-0.9 0.5-1.7 0.6-2.8c0.1-1.1-0.8-2.6-0.4-2.9c1.2-0.7 1.3 1.5 1.7 2q0.4 0.6 1.4 0.4q0.9-2.5 1.4-3.1c1.1 1 0.9 1.7 0.3 3.4c-0.5 1.3-1.6 2.9-2.3 3.8c-0.7 0.9-1.5 3.5-2.7 5.5c-1.3 2-1.4 3.1-3.1 3.1c-1.8 0.1-2.2-0.5-2.3-1.5q0-1 1.2-3z" /><path class="s8" d="m90.3 179v-1.1q1.7-1.3 2.5-1.8c0.8-0.4 1.3-0.3 1.1 0.5c-0.3 0.7-1 1.1-1.5 1.3c-0.4 0.1-1 2.3-1.6 2.2q-0.6-0.1-0.5-1.1z" /></svg>